G04 #@! TF.GenerationSoftware,KiCad,Pcbnew,8.0.1*
G04 #@! TF.CreationDate,2024-04-19T23:10:03+02:00*
G04 #@! TF.ProjectId,esp-ir-receiver,6573702d-6972-42d7-9265-636569766572,1.0.0*
G04 #@! TF.SameCoordinates,Original*
G04 #@! TF.FileFunction,Legend,Bot*
G04 #@! TF.FilePolarity,Positive*
%FSLAX46Y46*%
G04 Gerber Fmt 4.6, Leading zero omitted, Abs format (unit mm)*
G04 Created by KiCad (PCBNEW 8.0.1) date 2024-04-19 23:10:03*
%MOMM*%
%LPD*%
G01*
G04 APERTURE LIST*
G04 Aperture macros list*
%AMRoundRect*
0 Rectangle with rounded corners*
0 $1 Rounding radius*
0 $2 $3 $4 $5 $6 $7 $8 $9 X,Y pos of 4 corners*
0 Add a 4 corners polygon primitive as box body*
4,1,4,$2,$3,$4,$5,$6,$7,$8,$9,$2,$3,0*
0 Add four circle primitives for the rounded corners*
1,1,$1+$1,$2,$3*
1,1,$1+$1,$4,$5*
1,1,$1+$1,$6,$7*
1,1,$1+$1,$8,$9*
0 Add four rect primitives between the rounded corners*
20,1,$1+$1,$2,$3,$4,$5,0*
20,1,$1+$1,$4,$5,$6,$7,0*
20,1,$1+$1,$6,$7,$8,$9,0*
20,1,$1+$1,$8,$9,$2,$3,0*%
G04 Aperture macros list end*
%ADD10C,0.200000*%
%ADD11C,0.153000*%
%ADD12C,0.150000*%
%ADD13C,0.120000*%
%ADD14RoundRect,0.248400X0.651600X-0.651600X0.651600X0.651600X-0.651600X0.651600X-0.651600X-0.651600X0*%
%ADD15C,1.800000*%
%ADD16C,0.650000*%
%ADD17O,2.100000X1.000000*%
%ADD18O,1.800000X1.000000*%
%ADD19C,1.000000*%
%ADD20R,1.000000X1.000000*%
G04 APERTURE END LIST*
D10*
X159563148Y-111896325D02*
X159563148Y-111562992D01*
X158986958Y-111420135D02*
X158986958Y-111896325D01*
X158986958Y-111896325D02*
X160086958Y-111896325D01*
X160086958Y-111896325D02*
X160086958Y-111420135D01*
X159039339Y-111039182D02*
X158986958Y-110896325D01*
X158986958Y-110896325D02*
X158986958Y-110658230D01*
X158986958Y-110658230D02*
X159039339Y-110562992D01*
X159039339Y-110562992D02*
X159091719Y-110515373D01*
X159091719Y-110515373D02*
X159196481Y-110467754D01*
X159196481Y-110467754D02*
X159301243Y-110467754D01*
X159301243Y-110467754D02*
X159406005Y-110515373D01*
X159406005Y-110515373D02*
X159458386Y-110562992D01*
X159458386Y-110562992D02*
X159510767Y-110658230D01*
X159510767Y-110658230D02*
X159563148Y-110848706D01*
X159563148Y-110848706D02*
X159615529Y-110943944D01*
X159615529Y-110943944D02*
X159667910Y-110991563D01*
X159667910Y-110991563D02*
X159772672Y-111039182D01*
X159772672Y-111039182D02*
X159877434Y-111039182D01*
X159877434Y-111039182D02*
X159982196Y-110991563D01*
X159982196Y-110991563D02*
X160034577Y-110943944D01*
X160034577Y-110943944D02*
X160086958Y-110848706D01*
X160086958Y-110848706D02*
X160086958Y-110610611D01*
X160086958Y-110610611D02*
X160034577Y-110467754D01*
X158986958Y-110039182D02*
X160086958Y-110039182D01*
X160086958Y-110039182D02*
X160086958Y-109658230D01*
X160086958Y-109658230D02*
X160034577Y-109562992D01*
X160034577Y-109562992D02*
X159982196Y-109515373D01*
X159982196Y-109515373D02*
X159877434Y-109467754D01*
X159877434Y-109467754D02*
X159720291Y-109467754D01*
X159720291Y-109467754D02*
X159615529Y-109515373D01*
X159615529Y-109515373D02*
X159563148Y-109562992D01*
X159563148Y-109562992D02*
X159510767Y-109658230D01*
X159510767Y-109658230D02*
X159510767Y-110039182D01*
X160086958Y-109134420D02*
X160086958Y-108515373D01*
X160086958Y-108515373D02*
X159667910Y-108848706D01*
X159667910Y-108848706D02*
X159667910Y-108705849D01*
X159667910Y-108705849D02*
X159615529Y-108610611D01*
X159615529Y-108610611D02*
X159563148Y-108562992D01*
X159563148Y-108562992D02*
X159458386Y-108515373D01*
X159458386Y-108515373D02*
X159196481Y-108515373D01*
X159196481Y-108515373D02*
X159091719Y-108562992D01*
X159091719Y-108562992D02*
X159039339Y-108610611D01*
X159039339Y-108610611D02*
X158986958Y-108705849D01*
X158986958Y-108705849D02*
X158986958Y-108991563D01*
X158986958Y-108991563D02*
X159039339Y-109086801D01*
X159039339Y-109086801D02*
X159091719Y-109134420D01*
X159982196Y-108134420D02*
X160034577Y-108086801D01*
X160034577Y-108086801D02*
X160086958Y-107991563D01*
X160086958Y-107991563D02*
X160086958Y-107753468D01*
X160086958Y-107753468D02*
X160034577Y-107658230D01*
X160034577Y-107658230D02*
X159982196Y-107610611D01*
X159982196Y-107610611D02*
X159877434Y-107562992D01*
X159877434Y-107562992D02*
X159772672Y-107562992D01*
X159772672Y-107562992D02*
X159615529Y-107610611D01*
X159615529Y-107610611D02*
X158986958Y-108182039D01*
X158986958Y-108182039D02*
X158986958Y-107562992D01*
X158986958Y-106372515D02*
X160086958Y-106372515D01*
X158986958Y-105324897D02*
X159510767Y-105658230D01*
X158986958Y-105896325D02*
X160086958Y-105896325D01*
X160086958Y-105896325D02*
X160086958Y-105515373D01*
X160086958Y-105515373D02*
X160034577Y-105420135D01*
X160034577Y-105420135D02*
X159982196Y-105372516D01*
X159982196Y-105372516D02*
X159877434Y-105324897D01*
X159877434Y-105324897D02*
X159720291Y-105324897D01*
X159720291Y-105324897D02*
X159615529Y-105372516D01*
X159615529Y-105372516D02*
X159563148Y-105420135D01*
X159563148Y-105420135D02*
X159510767Y-105515373D01*
X159510767Y-105515373D02*
X159510767Y-105896325D01*
X158986958Y-103562992D02*
X159510767Y-103896325D01*
X158986958Y-104134420D02*
X160086958Y-104134420D01*
X160086958Y-104134420D02*
X160086958Y-103753468D01*
X160086958Y-103753468D02*
X160034577Y-103658230D01*
X160034577Y-103658230D02*
X159982196Y-103610611D01*
X159982196Y-103610611D02*
X159877434Y-103562992D01*
X159877434Y-103562992D02*
X159720291Y-103562992D01*
X159720291Y-103562992D02*
X159615529Y-103610611D01*
X159615529Y-103610611D02*
X159563148Y-103658230D01*
X159563148Y-103658230D02*
X159510767Y-103753468D01*
X159510767Y-103753468D02*
X159510767Y-104134420D01*
X159039339Y-102753468D02*
X158986958Y-102848706D01*
X158986958Y-102848706D02*
X158986958Y-103039182D01*
X158986958Y-103039182D02*
X159039339Y-103134420D01*
X159039339Y-103134420D02*
X159144100Y-103182039D01*
X159144100Y-103182039D02*
X159563148Y-103182039D01*
X159563148Y-103182039D02*
X159667910Y-103134420D01*
X159667910Y-103134420D02*
X159720291Y-103039182D01*
X159720291Y-103039182D02*
X159720291Y-102848706D01*
X159720291Y-102848706D02*
X159667910Y-102753468D01*
X159667910Y-102753468D02*
X159563148Y-102705849D01*
X159563148Y-102705849D02*
X159458386Y-102705849D01*
X159458386Y-102705849D02*
X159353624Y-103182039D01*
X159039339Y-101848706D02*
X158986958Y-101943944D01*
X158986958Y-101943944D02*
X158986958Y-102134420D01*
X158986958Y-102134420D02*
X159039339Y-102229658D01*
X159039339Y-102229658D02*
X159091719Y-102277277D01*
X159091719Y-102277277D02*
X159196481Y-102324896D01*
X159196481Y-102324896D02*
X159510767Y-102324896D01*
X159510767Y-102324896D02*
X159615529Y-102277277D01*
X159615529Y-102277277D02*
X159667910Y-102229658D01*
X159667910Y-102229658D02*
X159720291Y-102134420D01*
X159720291Y-102134420D02*
X159720291Y-101943944D01*
X159720291Y-101943944D02*
X159667910Y-101848706D01*
X159039339Y-101039182D02*
X158986958Y-101134420D01*
X158986958Y-101134420D02*
X158986958Y-101324896D01*
X158986958Y-101324896D02*
X159039339Y-101420134D01*
X159039339Y-101420134D02*
X159144100Y-101467753D01*
X159144100Y-101467753D02*
X159563148Y-101467753D01*
X159563148Y-101467753D02*
X159667910Y-101420134D01*
X159667910Y-101420134D02*
X159720291Y-101324896D01*
X159720291Y-101324896D02*
X159720291Y-101134420D01*
X159720291Y-101134420D02*
X159667910Y-101039182D01*
X159667910Y-101039182D02*
X159563148Y-100991563D01*
X159563148Y-100991563D02*
X159458386Y-100991563D01*
X159458386Y-100991563D02*
X159353624Y-101467753D01*
X158986958Y-100562991D02*
X159720291Y-100562991D01*
X160086958Y-100562991D02*
X160034577Y-100610610D01*
X160034577Y-100610610D02*
X159982196Y-100562991D01*
X159982196Y-100562991D02*
X160034577Y-100515372D01*
X160034577Y-100515372D02*
X160086958Y-100562991D01*
X160086958Y-100562991D02*
X159982196Y-100562991D01*
X159720291Y-100182039D02*
X158986958Y-99943944D01*
X158986958Y-99943944D02*
X159720291Y-99705849D01*
X159039339Y-98943944D02*
X158986958Y-99039182D01*
X158986958Y-99039182D02*
X158986958Y-99229658D01*
X158986958Y-99229658D02*
X159039339Y-99324896D01*
X159039339Y-99324896D02*
X159144100Y-99372515D01*
X159144100Y-99372515D02*
X159563148Y-99372515D01*
X159563148Y-99372515D02*
X159667910Y-99324896D01*
X159667910Y-99324896D02*
X159720291Y-99229658D01*
X159720291Y-99229658D02*
X159720291Y-99039182D01*
X159720291Y-99039182D02*
X159667910Y-98943944D01*
X159667910Y-98943944D02*
X159563148Y-98896325D01*
X159563148Y-98896325D02*
X159458386Y-98896325D01*
X159458386Y-98896325D02*
X159353624Y-99372515D01*
X158986958Y-98467753D02*
X159720291Y-98467753D01*
X159510767Y-98467753D02*
X159615529Y-98420134D01*
X159615529Y-98420134D02*
X159667910Y-98372515D01*
X159667910Y-98372515D02*
X159720291Y-98277277D01*
X159720291Y-98277277D02*
X159720291Y-98182039D01*
X157216020Y-111324897D02*
X157739829Y-111658230D01*
X157216020Y-111896325D02*
X158316020Y-111896325D01*
X158316020Y-111896325D02*
X158316020Y-111515373D01*
X158316020Y-111515373D02*
X158263639Y-111420135D01*
X158263639Y-111420135D02*
X158211258Y-111372516D01*
X158211258Y-111372516D02*
X158106496Y-111324897D01*
X158106496Y-111324897D02*
X157949353Y-111324897D01*
X157949353Y-111324897D02*
X157844591Y-111372516D01*
X157844591Y-111372516D02*
X157792210Y-111420135D01*
X157792210Y-111420135D02*
X157739829Y-111515373D01*
X157739829Y-111515373D02*
X157739829Y-111896325D01*
X157268401Y-110515373D02*
X157216020Y-110610611D01*
X157216020Y-110610611D02*
X157216020Y-110801087D01*
X157216020Y-110801087D02*
X157268401Y-110896325D01*
X157268401Y-110896325D02*
X157373162Y-110943944D01*
X157373162Y-110943944D02*
X157792210Y-110943944D01*
X157792210Y-110943944D02*
X157896972Y-110896325D01*
X157896972Y-110896325D02*
X157949353Y-110801087D01*
X157949353Y-110801087D02*
X157949353Y-110610611D01*
X157949353Y-110610611D02*
X157896972Y-110515373D01*
X157896972Y-110515373D02*
X157792210Y-110467754D01*
X157792210Y-110467754D02*
X157687448Y-110467754D01*
X157687448Y-110467754D02*
X157582686Y-110943944D01*
X157949353Y-110134420D02*
X157216020Y-109896325D01*
X157216020Y-109896325D02*
X157949353Y-109658230D01*
X157216020Y-109277277D02*
X157949353Y-109277277D01*
X158316020Y-109277277D02*
X158263639Y-109324896D01*
X158263639Y-109324896D02*
X158211258Y-109277277D01*
X158211258Y-109277277D02*
X158263639Y-109229658D01*
X158263639Y-109229658D02*
X158316020Y-109277277D01*
X158316020Y-109277277D02*
X158211258Y-109277277D01*
X157268401Y-108848706D02*
X157216020Y-108753468D01*
X157216020Y-108753468D02*
X157216020Y-108562992D01*
X157216020Y-108562992D02*
X157268401Y-108467754D01*
X157268401Y-108467754D02*
X157373162Y-108420135D01*
X157373162Y-108420135D02*
X157425543Y-108420135D01*
X157425543Y-108420135D02*
X157530305Y-108467754D01*
X157530305Y-108467754D02*
X157582686Y-108562992D01*
X157582686Y-108562992D02*
X157582686Y-108705849D01*
X157582686Y-108705849D02*
X157635067Y-108801087D01*
X157635067Y-108801087D02*
X157739829Y-108848706D01*
X157739829Y-108848706D02*
X157792210Y-108848706D01*
X157792210Y-108848706D02*
X157896972Y-108801087D01*
X157896972Y-108801087D02*
X157949353Y-108705849D01*
X157949353Y-108705849D02*
X157949353Y-108562992D01*
X157949353Y-108562992D02*
X157896972Y-108467754D01*
X157216020Y-107991563D02*
X157949353Y-107991563D01*
X158316020Y-107991563D02*
X158263639Y-108039182D01*
X158263639Y-108039182D02*
X158211258Y-107991563D01*
X158211258Y-107991563D02*
X158263639Y-107943944D01*
X158263639Y-107943944D02*
X158316020Y-107991563D01*
X158316020Y-107991563D02*
X158211258Y-107991563D01*
X157216020Y-107372516D02*
X157268401Y-107467754D01*
X157268401Y-107467754D02*
X157320781Y-107515373D01*
X157320781Y-107515373D02*
X157425543Y-107562992D01*
X157425543Y-107562992D02*
X157739829Y-107562992D01*
X157739829Y-107562992D02*
X157844591Y-107515373D01*
X157844591Y-107515373D02*
X157896972Y-107467754D01*
X157896972Y-107467754D02*
X157949353Y-107372516D01*
X157949353Y-107372516D02*
X157949353Y-107229659D01*
X157949353Y-107229659D02*
X157896972Y-107134421D01*
X157896972Y-107134421D02*
X157844591Y-107086802D01*
X157844591Y-107086802D02*
X157739829Y-107039183D01*
X157739829Y-107039183D02*
X157425543Y-107039183D01*
X157425543Y-107039183D02*
X157320781Y-107086802D01*
X157320781Y-107086802D02*
X157268401Y-107134421D01*
X157268401Y-107134421D02*
X157216020Y-107229659D01*
X157216020Y-107229659D02*
X157216020Y-107372516D01*
X157949353Y-106610611D02*
X157216020Y-106610611D01*
X157844591Y-106610611D02*
X157896972Y-106562992D01*
X157896972Y-106562992D02*
X157949353Y-106467754D01*
X157949353Y-106467754D02*
X157949353Y-106324897D01*
X157949353Y-106324897D02*
X157896972Y-106229659D01*
X157896972Y-106229659D02*
X157792210Y-106182040D01*
X157792210Y-106182040D02*
X157216020Y-106182040D01*
X157320781Y-105705849D02*
X157268401Y-105658230D01*
X157268401Y-105658230D02*
X157216020Y-105705849D01*
X157216020Y-105705849D02*
X157268401Y-105753468D01*
X157268401Y-105753468D02*
X157320781Y-105705849D01*
X157320781Y-105705849D02*
X157216020Y-105705849D01*
X157896972Y-105705849D02*
X157844591Y-105658230D01*
X157844591Y-105658230D02*
X157792210Y-105705849D01*
X157792210Y-105705849D02*
X157844591Y-105753468D01*
X157844591Y-105753468D02*
X157896972Y-105705849D01*
X157896972Y-105705849D02*
X157792210Y-105705849D01*
X157216020Y-103943945D02*
X157216020Y-104515373D01*
X157216020Y-104229659D02*
X158316020Y-104229659D01*
X158316020Y-104229659D02*
X158158877Y-104324897D01*
X158158877Y-104324897D02*
X158054115Y-104420135D01*
X158054115Y-104420135D02*
X158001734Y-104515373D01*
X157320781Y-103515373D02*
X157268401Y-103467754D01*
X157268401Y-103467754D02*
X157216020Y-103515373D01*
X157216020Y-103515373D02*
X157268401Y-103562992D01*
X157268401Y-103562992D02*
X157320781Y-103515373D01*
X157320781Y-103515373D02*
X157216020Y-103515373D01*
X158316020Y-102848707D02*
X158316020Y-102753469D01*
X158316020Y-102753469D02*
X158263639Y-102658231D01*
X158263639Y-102658231D02*
X158211258Y-102610612D01*
X158211258Y-102610612D02*
X158106496Y-102562993D01*
X158106496Y-102562993D02*
X157896972Y-102515374D01*
X157896972Y-102515374D02*
X157635067Y-102515374D01*
X157635067Y-102515374D02*
X157425543Y-102562993D01*
X157425543Y-102562993D02*
X157320781Y-102610612D01*
X157320781Y-102610612D02*
X157268401Y-102658231D01*
X157268401Y-102658231D02*
X157216020Y-102753469D01*
X157216020Y-102753469D02*
X157216020Y-102848707D01*
X157216020Y-102848707D02*
X157268401Y-102943945D01*
X157268401Y-102943945D02*
X157320781Y-102991564D01*
X157320781Y-102991564D02*
X157425543Y-103039183D01*
X157425543Y-103039183D02*
X157635067Y-103086802D01*
X157635067Y-103086802D02*
X157896972Y-103086802D01*
X157896972Y-103086802D02*
X158106496Y-103039183D01*
X158106496Y-103039183D02*
X158211258Y-102991564D01*
X158211258Y-102991564D02*
X158263639Y-102943945D01*
X158263639Y-102943945D02*
X158316020Y-102848707D01*
X157320781Y-102086802D02*
X157268401Y-102039183D01*
X157268401Y-102039183D02*
X157216020Y-102086802D01*
X157216020Y-102086802D02*
X157268401Y-102134421D01*
X157268401Y-102134421D02*
X157320781Y-102086802D01*
X157320781Y-102086802D02*
X157216020Y-102086802D01*
X158316020Y-101420136D02*
X158316020Y-101324898D01*
X158316020Y-101324898D02*
X158263639Y-101229660D01*
X158263639Y-101229660D02*
X158211258Y-101182041D01*
X158211258Y-101182041D02*
X158106496Y-101134422D01*
X158106496Y-101134422D02*
X157896972Y-101086803D01*
X157896972Y-101086803D02*
X157635067Y-101086803D01*
X157635067Y-101086803D02*
X157425543Y-101134422D01*
X157425543Y-101134422D02*
X157320781Y-101182041D01*
X157320781Y-101182041D02*
X157268401Y-101229660D01*
X157268401Y-101229660D02*
X157216020Y-101324898D01*
X157216020Y-101324898D02*
X157216020Y-101420136D01*
X157216020Y-101420136D02*
X157268401Y-101515374D01*
X157268401Y-101515374D02*
X157320781Y-101562993D01*
X157320781Y-101562993D02*
X157425543Y-101610612D01*
X157425543Y-101610612D02*
X157635067Y-101658231D01*
X157635067Y-101658231D02*
X157896972Y-101658231D01*
X157896972Y-101658231D02*
X158106496Y-101610612D01*
X158106496Y-101610612D02*
X158211258Y-101562993D01*
X158211258Y-101562993D02*
X158263639Y-101515374D01*
X158263639Y-101515374D02*
X158316020Y-101420136D01*
X131097901Y-98184712D02*
X131045520Y-98041855D01*
X131045520Y-98041855D02*
X131045520Y-97803760D01*
X131045520Y-97803760D02*
X131097901Y-97708522D01*
X131097901Y-97708522D02*
X131150281Y-97660903D01*
X131150281Y-97660903D02*
X131255043Y-97613284D01*
X131255043Y-97613284D02*
X131359805Y-97613284D01*
X131359805Y-97613284D02*
X131464567Y-97660903D01*
X131464567Y-97660903D02*
X131516948Y-97708522D01*
X131516948Y-97708522D02*
X131569329Y-97803760D01*
X131569329Y-97803760D02*
X131621710Y-97994236D01*
X131621710Y-97994236D02*
X131674091Y-98089474D01*
X131674091Y-98089474D02*
X131726472Y-98137093D01*
X131726472Y-98137093D02*
X131831234Y-98184712D01*
X131831234Y-98184712D02*
X131935996Y-98184712D01*
X131935996Y-98184712D02*
X132040758Y-98137093D01*
X132040758Y-98137093D02*
X132093139Y-98089474D01*
X132093139Y-98089474D02*
X132145520Y-97994236D01*
X132145520Y-97994236D02*
X132145520Y-97756141D01*
X132145520Y-97756141D02*
X132093139Y-97613284D01*
X132145520Y-97327569D02*
X132145520Y-96756141D01*
X131045520Y-97041855D02*
X132145520Y-97041855D01*
X131359805Y-96470426D02*
X131359805Y-95994236D01*
X131045520Y-96565664D02*
X132145520Y-96232331D01*
X132145520Y-96232331D02*
X131045520Y-95898998D01*
X132145520Y-95708521D02*
X132145520Y-95137093D01*
X131045520Y-95422807D02*
X132145520Y-95422807D01*
D11*
X155102537Y-109761932D02*
X154388252Y-109761932D01*
X154388252Y-109761932D02*
X154245395Y-109809551D01*
X154245395Y-109809551D02*
X154150157Y-109904789D01*
X154150157Y-109904789D02*
X154102537Y-110047646D01*
X154102537Y-110047646D02*
X154102537Y-110142884D01*
X154102537Y-108809551D02*
X154102537Y-109285741D01*
X154102537Y-109285741D02*
X155102537Y-109285741D01*
X154197776Y-107904789D02*
X154150157Y-107952408D01*
X154150157Y-107952408D02*
X154102537Y-108095265D01*
X154102537Y-108095265D02*
X154102537Y-108190503D01*
X154102537Y-108190503D02*
X154150157Y-108333360D01*
X154150157Y-108333360D02*
X154245395Y-108428598D01*
X154245395Y-108428598D02*
X154340633Y-108476217D01*
X154340633Y-108476217D02*
X154531109Y-108523836D01*
X154531109Y-108523836D02*
X154673966Y-108523836D01*
X154673966Y-108523836D02*
X154864442Y-108476217D01*
X154864442Y-108476217D02*
X154959680Y-108428598D01*
X154959680Y-108428598D02*
X155054918Y-108333360D01*
X155054918Y-108333360D02*
X155102537Y-108190503D01*
X155102537Y-108190503D02*
X155102537Y-108095265D01*
X155102537Y-108095265D02*
X155054918Y-107952408D01*
X155054918Y-107952408D02*
X155007299Y-107904789D01*
X155102537Y-107190503D02*
X154388252Y-107190503D01*
X154388252Y-107190503D02*
X154245395Y-107238122D01*
X154245395Y-107238122D02*
X154150157Y-107333360D01*
X154150157Y-107333360D02*
X154102537Y-107476217D01*
X154102537Y-107476217D02*
X154102537Y-107571455D01*
X154102537Y-106238122D02*
X154102537Y-106714312D01*
X154102537Y-106714312D02*
X155102537Y-106714312D01*
X154197776Y-105333360D02*
X154150157Y-105380979D01*
X154150157Y-105380979D02*
X154102537Y-105523836D01*
X154102537Y-105523836D02*
X154102537Y-105619074D01*
X154102537Y-105619074D02*
X154150157Y-105761931D01*
X154150157Y-105761931D02*
X154245395Y-105857169D01*
X154245395Y-105857169D02*
X154340633Y-105904788D01*
X154340633Y-105904788D02*
X154531109Y-105952407D01*
X154531109Y-105952407D02*
X154673966Y-105952407D01*
X154673966Y-105952407D02*
X154864442Y-105904788D01*
X154864442Y-105904788D02*
X154959680Y-105857169D01*
X154959680Y-105857169D02*
X155054918Y-105761931D01*
X155054918Y-105761931D02*
X155102537Y-105619074D01*
X155102537Y-105619074D02*
X155102537Y-105523836D01*
X155102537Y-105523836D02*
X155054918Y-105380979D01*
X155054918Y-105380979D02*
X155007299Y-105333360D01*
X155102537Y-104619074D02*
X154388252Y-104619074D01*
X154388252Y-104619074D02*
X154245395Y-104666693D01*
X154245395Y-104666693D02*
X154150157Y-104761931D01*
X154150157Y-104761931D02*
X154102537Y-104904788D01*
X154102537Y-104904788D02*
X154102537Y-105000026D01*
X154102537Y-103666693D02*
X154102537Y-104142883D01*
X154102537Y-104142883D02*
X155102537Y-104142883D01*
X154197776Y-102761931D02*
X154150157Y-102809550D01*
X154150157Y-102809550D02*
X154102537Y-102952407D01*
X154102537Y-102952407D02*
X154102537Y-103047645D01*
X154102537Y-103047645D02*
X154150157Y-103190502D01*
X154150157Y-103190502D02*
X154245395Y-103285740D01*
X154245395Y-103285740D02*
X154340633Y-103333359D01*
X154340633Y-103333359D02*
X154531109Y-103380978D01*
X154531109Y-103380978D02*
X154673966Y-103380978D01*
X154673966Y-103380978D02*
X154864442Y-103333359D01*
X154864442Y-103333359D02*
X154959680Y-103285740D01*
X154959680Y-103285740D02*
X155054918Y-103190502D01*
X155054918Y-103190502D02*
X155102537Y-103047645D01*
X155102537Y-103047645D02*
X155102537Y-102952407D01*
X155102537Y-102952407D02*
X155054918Y-102809550D01*
X155054918Y-102809550D02*
X155007299Y-102761931D01*
X155102537Y-102047645D02*
X154388252Y-102047645D01*
X154388252Y-102047645D02*
X154245395Y-102095264D01*
X154245395Y-102095264D02*
X154150157Y-102190502D01*
X154150157Y-102190502D02*
X154102537Y-102333359D01*
X154102537Y-102333359D02*
X154102537Y-102428597D01*
X154102537Y-101095264D02*
X154102537Y-101571454D01*
X154102537Y-101571454D02*
X155102537Y-101571454D01*
X154197776Y-100190502D02*
X154150157Y-100238121D01*
X154150157Y-100238121D02*
X154102537Y-100380978D01*
X154102537Y-100380978D02*
X154102537Y-100476216D01*
X154102537Y-100476216D02*
X154150157Y-100619073D01*
X154150157Y-100619073D02*
X154245395Y-100714311D01*
X154245395Y-100714311D02*
X154340633Y-100761930D01*
X154340633Y-100761930D02*
X154531109Y-100809549D01*
X154531109Y-100809549D02*
X154673966Y-100809549D01*
X154673966Y-100809549D02*
X154864442Y-100761930D01*
X154864442Y-100761930D02*
X154959680Y-100714311D01*
X154959680Y-100714311D02*
X155054918Y-100619073D01*
X155054918Y-100619073D02*
X155102537Y-100476216D01*
X155102537Y-100476216D02*
X155102537Y-100380978D01*
X155102537Y-100380978D02*
X155054918Y-100238121D01*
X155054918Y-100238121D02*
X155007299Y-100190502D01*
D10*
X133652232Y-98232331D02*
X132552232Y-97994236D01*
X132552232Y-97994236D02*
X133337946Y-97803760D01*
X133337946Y-97803760D02*
X132552232Y-97613284D01*
X132552232Y-97613284D02*
X133652232Y-97375189D01*
X132552232Y-96994236D02*
X133652232Y-96994236D01*
X133128422Y-96184713D02*
X133128422Y-96518046D01*
X132552232Y-96518046D02*
X133652232Y-96518046D01*
X133652232Y-96518046D02*
X133652232Y-96041856D01*
X132552232Y-95660903D02*
X133652232Y-95660903D01*
X135617520Y-98137092D02*
X136717520Y-98137092D01*
X136717520Y-98137092D02*
X136717520Y-97756140D01*
X136717520Y-97756140D02*
X136665139Y-97660902D01*
X136665139Y-97660902D02*
X136612758Y-97613283D01*
X136612758Y-97613283D02*
X136507996Y-97565664D01*
X136507996Y-97565664D02*
X136350853Y-97565664D01*
X136350853Y-97565664D02*
X136246091Y-97613283D01*
X136246091Y-97613283D02*
X136193710Y-97660902D01*
X136193710Y-97660902D02*
X136141329Y-97756140D01*
X136141329Y-97756140D02*
X136141329Y-98137092D01*
X136717520Y-97232330D02*
X135617520Y-96994235D01*
X135617520Y-96994235D02*
X136403234Y-96803759D01*
X136403234Y-96803759D02*
X135617520Y-96613283D01*
X135617520Y-96613283D02*
X136717520Y-96375188D01*
X135617520Y-95422807D02*
X136141329Y-95756140D01*
X135617520Y-95994235D02*
X136717520Y-95994235D01*
X136717520Y-95994235D02*
X136717520Y-95613283D01*
X136717520Y-95613283D02*
X136665139Y-95518045D01*
X136665139Y-95518045D02*
X136612758Y-95470426D01*
X136612758Y-95470426D02*
X136507996Y-95422807D01*
X136507996Y-95422807D02*
X136350853Y-95422807D01*
X136350853Y-95422807D02*
X136246091Y-95470426D01*
X136246091Y-95470426D02*
X136193710Y-95518045D01*
X136193710Y-95518045D02*
X136141329Y-95613283D01*
X136141329Y-95613283D02*
X136141329Y-95994235D01*
X134669710Y-97803759D02*
X134617329Y-97660902D01*
X134617329Y-97660902D02*
X134564948Y-97613283D01*
X134564948Y-97613283D02*
X134460186Y-97565664D01*
X134460186Y-97565664D02*
X134303043Y-97565664D01*
X134303043Y-97565664D02*
X134198281Y-97613283D01*
X134198281Y-97613283D02*
X134145901Y-97660902D01*
X134145901Y-97660902D02*
X134093520Y-97756140D01*
X134093520Y-97756140D02*
X134093520Y-98137092D01*
X134093520Y-98137092D02*
X135193520Y-98137092D01*
X135193520Y-98137092D02*
X135193520Y-97803759D01*
X135193520Y-97803759D02*
X135141139Y-97708521D01*
X135141139Y-97708521D02*
X135088758Y-97660902D01*
X135088758Y-97660902D02*
X134983996Y-97613283D01*
X134983996Y-97613283D02*
X134879234Y-97613283D01*
X134879234Y-97613283D02*
X134774472Y-97660902D01*
X134774472Y-97660902D02*
X134722091Y-97708521D01*
X134722091Y-97708521D02*
X134669710Y-97803759D01*
X134669710Y-97803759D02*
X134669710Y-98137092D01*
X135193520Y-97279949D02*
X135193520Y-96708521D01*
X134093520Y-96994235D02*
X135193520Y-96994235D01*
D12*
X139076620Y-110053818D02*
X139409953Y-109577627D01*
X139648048Y-110053818D02*
X139648048Y-109053818D01*
X139648048Y-109053818D02*
X139267096Y-109053818D01*
X139267096Y-109053818D02*
X139171858Y-109101437D01*
X139171858Y-109101437D02*
X139124239Y-109149056D01*
X139124239Y-109149056D02*
X139076620Y-109244294D01*
X139076620Y-109244294D02*
X139076620Y-109387151D01*
X139076620Y-109387151D02*
X139124239Y-109482389D01*
X139124239Y-109482389D02*
X139171858Y-109530008D01*
X139171858Y-109530008D02*
X139267096Y-109577627D01*
X139267096Y-109577627D02*
X139648048Y-109577627D01*
X138695667Y-110006199D02*
X138552810Y-110053818D01*
X138552810Y-110053818D02*
X138314715Y-110053818D01*
X138314715Y-110053818D02*
X138219477Y-110006199D01*
X138219477Y-110006199D02*
X138171858Y-109958579D01*
X138171858Y-109958579D02*
X138124239Y-109863341D01*
X138124239Y-109863341D02*
X138124239Y-109768103D01*
X138124239Y-109768103D02*
X138171858Y-109672865D01*
X138171858Y-109672865D02*
X138219477Y-109625246D01*
X138219477Y-109625246D02*
X138314715Y-109577627D01*
X138314715Y-109577627D02*
X138505191Y-109530008D01*
X138505191Y-109530008D02*
X138600429Y-109482389D01*
X138600429Y-109482389D02*
X138648048Y-109434770D01*
X138648048Y-109434770D02*
X138695667Y-109339532D01*
X138695667Y-109339532D02*
X138695667Y-109244294D01*
X138695667Y-109244294D02*
X138648048Y-109149056D01*
X138648048Y-109149056D02*
X138600429Y-109101437D01*
X138600429Y-109101437D02*
X138505191Y-109053818D01*
X138505191Y-109053818D02*
X138267096Y-109053818D01*
X138267096Y-109053818D02*
X138124239Y-109101437D01*
X137838524Y-109053818D02*
X137267096Y-109053818D01*
X137552810Y-110053818D02*
X137552810Y-109053818D01*
X142862714Y-99528818D02*
X142291286Y-99528818D01*
X142577000Y-100528818D02*
X142577000Y-99528818D01*
X141386524Y-100433579D02*
X141434143Y-100481199D01*
X141434143Y-100481199D02*
X141577000Y-100528818D01*
X141577000Y-100528818D02*
X141672238Y-100528818D01*
X141672238Y-100528818D02*
X141815095Y-100481199D01*
X141815095Y-100481199D02*
X141910333Y-100385960D01*
X141910333Y-100385960D02*
X141957952Y-100290722D01*
X141957952Y-100290722D02*
X142005571Y-100100246D01*
X142005571Y-100100246D02*
X142005571Y-99957389D01*
X142005571Y-99957389D02*
X141957952Y-99766913D01*
X141957952Y-99766913D02*
X141910333Y-99671675D01*
X141910333Y-99671675D02*
X141815095Y-99576437D01*
X141815095Y-99576437D02*
X141672238Y-99528818D01*
X141672238Y-99528818D02*
X141577000Y-99528818D01*
X141577000Y-99528818D02*
X141434143Y-99576437D01*
X141434143Y-99576437D02*
X141386524Y-99624056D01*
X140957952Y-100528818D02*
X140957952Y-99528818D01*
X140386524Y-100528818D02*
X140815095Y-99957389D01*
X140386524Y-99528818D02*
X140957952Y-100100246D01*
X142886524Y-101560818D02*
X142315096Y-101560818D01*
X142600810Y-102560818D02*
X142600810Y-101560818D01*
X141981762Y-102560818D02*
X141981762Y-101560818D01*
X141981762Y-101560818D02*
X141743667Y-101560818D01*
X141743667Y-101560818D02*
X141600810Y-101608437D01*
X141600810Y-101608437D02*
X141505572Y-101703675D01*
X141505572Y-101703675D02*
X141457953Y-101798913D01*
X141457953Y-101798913D02*
X141410334Y-101989389D01*
X141410334Y-101989389D02*
X141410334Y-102132246D01*
X141410334Y-102132246D02*
X141457953Y-102322722D01*
X141457953Y-102322722D02*
X141505572Y-102417960D01*
X141505572Y-102417960D02*
X141600810Y-102513199D01*
X141600810Y-102513199D02*
X141743667Y-102560818D01*
X141743667Y-102560818D02*
X141981762Y-102560818D01*
X140791286Y-101560818D02*
X140600810Y-101560818D01*
X140600810Y-101560818D02*
X140505572Y-101608437D01*
X140505572Y-101608437D02*
X140410334Y-101703675D01*
X140410334Y-101703675D02*
X140362715Y-101894151D01*
X140362715Y-101894151D02*
X140362715Y-102227484D01*
X140362715Y-102227484D02*
X140410334Y-102417960D01*
X140410334Y-102417960D02*
X140505572Y-102513199D01*
X140505572Y-102513199D02*
X140600810Y-102560818D01*
X140600810Y-102560818D02*
X140791286Y-102560818D01*
X140791286Y-102560818D02*
X140886524Y-102513199D01*
X140886524Y-102513199D02*
X140981762Y-102417960D01*
X140981762Y-102417960D02*
X141029381Y-102227484D01*
X141029381Y-102227484D02*
X141029381Y-101894151D01*
X141029381Y-101894151D02*
X140981762Y-101703675D01*
X140981762Y-101703675D02*
X140886524Y-101608437D01*
X140886524Y-101608437D02*
X140791286Y-101560818D01*
X139798905Y-113117818D02*
X139227477Y-113117818D01*
X139513191Y-114117818D02*
X139513191Y-113117818D01*
X138989381Y-113117818D02*
X138322715Y-114117818D01*
X138322715Y-113117818D02*
X138989381Y-114117818D01*
X139076667Y-112085818D02*
X139410000Y-111609627D01*
X139648095Y-112085818D02*
X139648095Y-111085818D01*
X139648095Y-111085818D02*
X139267143Y-111085818D01*
X139267143Y-111085818D02*
X139171905Y-111133437D01*
X139171905Y-111133437D02*
X139124286Y-111181056D01*
X139124286Y-111181056D02*
X139076667Y-111276294D01*
X139076667Y-111276294D02*
X139076667Y-111419151D01*
X139076667Y-111419151D02*
X139124286Y-111514389D01*
X139124286Y-111514389D02*
X139171905Y-111562008D01*
X139171905Y-111562008D02*
X139267143Y-111609627D01*
X139267143Y-111609627D02*
X139648095Y-111609627D01*
X138743333Y-111085818D02*
X138076667Y-112085818D01*
X138076667Y-111085818D02*
X138743333Y-112085818D01*
X149768333Y-101560818D02*
X149196905Y-101560818D01*
X149482619Y-102560818D02*
X149482619Y-101560818D01*
X148863571Y-102560818D02*
X148863571Y-101560818D01*
X148863571Y-101560818D02*
X148530238Y-102275103D01*
X148530238Y-102275103D02*
X148196905Y-101560818D01*
X148196905Y-101560818D02*
X148196905Y-102560818D01*
X147768333Y-102513199D02*
X147625476Y-102560818D01*
X147625476Y-102560818D02*
X147387381Y-102560818D01*
X147387381Y-102560818D02*
X147292143Y-102513199D01*
X147292143Y-102513199D02*
X147244524Y-102465579D01*
X147244524Y-102465579D02*
X147196905Y-102370341D01*
X147196905Y-102370341D02*
X147196905Y-102275103D01*
X147196905Y-102275103D02*
X147244524Y-102179865D01*
X147244524Y-102179865D02*
X147292143Y-102132246D01*
X147292143Y-102132246D02*
X147387381Y-102084627D01*
X147387381Y-102084627D02*
X147577857Y-102037008D01*
X147577857Y-102037008D02*
X147673095Y-101989389D01*
X147673095Y-101989389D02*
X147720714Y-101941770D01*
X147720714Y-101941770D02*
X147768333Y-101846532D01*
X147768333Y-101846532D02*
X147768333Y-101751294D01*
X147768333Y-101751294D02*
X147720714Y-101656056D01*
X147720714Y-101656056D02*
X147673095Y-101608437D01*
X147673095Y-101608437D02*
X147577857Y-101560818D01*
X147577857Y-101560818D02*
X147339762Y-101560818D01*
X147339762Y-101560818D02*
X147196905Y-101608437D01*
X149712809Y-99528818D02*
X149141381Y-99528818D01*
X149427095Y-100528818D02*
X149427095Y-99528818D01*
X148808047Y-100528818D02*
X148808047Y-99528818D01*
X148808047Y-99528818D02*
X148569952Y-99528818D01*
X148569952Y-99528818D02*
X148427095Y-99576437D01*
X148427095Y-99576437D02*
X148331857Y-99671675D01*
X148331857Y-99671675D02*
X148284238Y-99766913D01*
X148284238Y-99766913D02*
X148236619Y-99957389D01*
X148236619Y-99957389D02*
X148236619Y-100100246D01*
X148236619Y-100100246D02*
X148284238Y-100290722D01*
X148284238Y-100290722D02*
X148331857Y-100385960D01*
X148331857Y-100385960D02*
X148427095Y-100481199D01*
X148427095Y-100481199D02*
X148569952Y-100528818D01*
X148569952Y-100528818D02*
X148808047Y-100528818D01*
X147808047Y-100528818D02*
X147808047Y-99528818D01*
X149698495Y-96099818D02*
X149079448Y-96099818D01*
X149079448Y-96099818D02*
X149412781Y-96480770D01*
X149412781Y-96480770D02*
X149269924Y-96480770D01*
X149269924Y-96480770D02*
X149174686Y-96528389D01*
X149174686Y-96528389D02*
X149127067Y-96576008D01*
X149127067Y-96576008D02*
X149079448Y-96671246D01*
X149079448Y-96671246D02*
X149079448Y-96909341D01*
X149079448Y-96909341D02*
X149127067Y-97004579D01*
X149127067Y-97004579D02*
X149174686Y-97052199D01*
X149174686Y-97052199D02*
X149269924Y-97099818D01*
X149269924Y-97099818D02*
X149555638Y-97099818D01*
X149555638Y-97099818D02*
X149650876Y-97052199D01*
X149650876Y-97052199D02*
X149698495Y-97004579D01*
X148793733Y-96099818D02*
X148460400Y-97099818D01*
X148460400Y-97099818D02*
X148127067Y-96099818D01*
X147888971Y-96099818D02*
X147269924Y-96099818D01*
X147269924Y-96099818D02*
X147603257Y-96480770D01*
X147603257Y-96480770D02*
X147460400Y-96480770D01*
X147460400Y-96480770D02*
X147365162Y-96528389D01*
X147365162Y-96528389D02*
X147317543Y-96576008D01*
X147317543Y-96576008D02*
X147269924Y-96671246D01*
X147269924Y-96671246D02*
X147269924Y-96909341D01*
X147269924Y-96909341D02*
X147317543Y-97004579D01*
X147317543Y-97004579D02*
X147365162Y-97052199D01*
X147365162Y-97052199D02*
X147460400Y-97099818D01*
X147460400Y-97099818D02*
X147746114Y-97099818D01*
X147746114Y-97099818D02*
X147841352Y-97052199D01*
X147841352Y-97052199D02*
X147888971Y-97004579D01*
X142110305Y-96147437D02*
X142205543Y-96099818D01*
X142205543Y-96099818D02*
X142348400Y-96099818D01*
X142348400Y-96099818D02*
X142491257Y-96147437D01*
X142491257Y-96147437D02*
X142586495Y-96242675D01*
X142586495Y-96242675D02*
X142634114Y-96337913D01*
X142634114Y-96337913D02*
X142681733Y-96528389D01*
X142681733Y-96528389D02*
X142681733Y-96671246D01*
X142681733Y-96671246D02*
X142634114Y-96861722D01*
X142634114Y-96861722D02*
X142586495Y-96956960D01*
X142586495Y-96956960D02*
X142491257Y-97052199D01*
X142491257Y-97052199D02*
X142348400Y-97099818D01*
X142348400Y-97099818D02*
X142253162Y-97099818D01*
X142253162Y-97099818D02*
X142110305Y-97052199D01*
X142110305Y-97052199D02*
X142062686Y-97004579D01*
X142062686Y-97004579D02*
X142062686Y-96671246D01*
X142062686Y-96671246D02*
X142253162Y-96671246D01*
X141634114Y-97099818D02*
X141634114Y-96099818D01*
X141634114Y-96099818D02*
X141062686Y-97099818D01*
X141062686Y-97099818D02*
X141062686Y-96099818D01*
X140586495Y-97099818D02*
X140586495Y-96099818D01*
X140586495Y-96099818D02*
X140348400Y-96099818D01*
X140348400Y-96099818D02*
X140205543Y-96147437D01*
X140205543Y-96147437D02*
X140110305Y-96242675D01*
X140110305Y-96242675D02*
X140062686Y-96337913D01*
X140062686Y-96337913D02*
X140015067Y-96528389D01*
X140015067Y-96528389D02*
X140015067Y-96671246D01*
X140015067Y-96671246D02*
X140062686Y-96861722D01*
X140062686Y-96861722D02*
X140110305Y-96956960D01*
X140110305Y-96956960D02*
X140205543Y-97052199D01*
X140205543Y-97052199D02*
X140348400Y-97099818D01*
X140348400Y-97099818D02*
X140586495Y-97099818D01*
D13*
X141642001Y-109598999D02*
G75*
G02*
X140242001Y-109598999I-700000J0D01*
G01*
X140242001Y-109598999D02*
G75*
G02*
X141642001Y-109598999I700000J0D01*
G01*
X144690001Y-100073999D02*
G75*
G02*
X143290001Y-100073999I-700000J0D01*
G01*
X143290001Y-100073999D02*
G75*
G02*
X144690001Y-100073999I700000J0D01*
G01*
X144690001Y-102105999D02*
G75*
G02*
X143290001Y-102105999I-700000J0D01*
G01*
X143290001Y-102105999D02*
G75*
G02*
X144690001Y-102105999I700000J0D01*
G01*
X141642001Y-113662999D02*
G75*
G02*
X140242001Y-113662999I-700000J0D01*
G01*
X140242001Y-113662999D02*
G75*
G02*
X141642001Y-113662999I700000J0D01*
G01*
X141642001Y-111630999D02*
G75*
G02*
X140242001Y-111630999I-700000J0D01*
G01*
X140242001Y-111630999D02*
G75*
G02*
X141642001Y-111630999I700000J0D01*
G01*
X146722001Y-102105999D02*
G75*
G02*
X145322001Y-102105999I-700000J0D01*
G01*
X145322001Y-102105999D02*
G75*
G02*
X146722001Y-102105999I700000J0D01*
G01*
X146722001Y-100073999D02*
G75*
G02*
X145322001Y-100073999I-700000J0D01*
G01*
X145322001Y-100073999D02*
G75*
G02*
X146722001Y-100073999I700000J0D01*
G01*
X146747401Y-96644999D02*
G75*
G02*
X145347401Y-96644999I-700000J0D01*
G01*
X145347401Y-96644999D02*
G75*
G02*
X146747401Y-96644999I700000J0D01*
G01*
X143315401Y-95944999D02*
X143315401Y-97344999D01*
X143315401Y-97344999D02*
X144715401Y-97344999D01*
X144715401Y-95944999D02*
X143315401Y-95944999D01*
X144715401Y-97344999D02*
X144715401Y-95944999D01*
%LPC*%
D14*
X151184001Y-101494024D03*
D15*
X151184001Y-98954024D03*
X151184001Y-96414024D03*
D16*
X134589001Y-101089999D03*
X134589001Y-106869999D03*
D17*
X135109001Y-99659999D03*
D18*
X130909001Y-99659999D03*
D17*
X135109001Y-108299999D03*
D18*
X130909001Y-108299999D03*
D19*
X140942001Y-109598999D03*
X143990001Y-100073999D03*
X143990001Y-102105999D03*
X140942001Y-113662999D03*
X140942001Y-111630999D03*
X146022001Y-102105999D03*
X146022001Y-100073999D03*
X146047401Y-96644999D03*
D20*
X144015401Y-96644999D03*
%LPD*%
M02*
