M48
; DRILL file {KiCad 8.0.1} date 2024-04-19T23:10:10+0200
; FORMAT={-:-/ absolute / metric / decimal}
; #@! TF.CreationDate,2024-04-19T23:10:10+02:00
; #@! TF.GenerationSoftware,Kicad,Pcbnew,8.0.1
; #@! TF.FileFunction,Plated,1,4,PTH
FMAT,2
METRIC
; #@! TA.AperFunction,Plated,PTH,ViaDrill
T1C0.300
; #@! TA.AperFunction,Plated,PTH,ComponentDrill
T2C0.300
; #@! TA.AperFunction,Plated,PTH,ViaDrill
T3C0.400
; #@! TA.AperFunction,Plated,PTH,ViaDrill
T4C0.600
; #@! TA.AperFunction,Plated,PTH,ComponentDrill
T5C0.600
; #@! TA.AperFunction,Plated,PTH,ComponentDrill
T6C0.900
%
G90
G05
T1
X128.75Y-96.264
X128.75Y-97.534
X128.75Y-98.804
X128.75Y-100.074
X128.75Y-101.344
X128.75Y-102.614
X128.75Y-103.884
X128.75Y-105.154
X128.75Y-106.424
X128.75Y-107.694
X128.75Y-108.964
X128.75Y-110.234
X128.75Y-111.504
X128.75Y-112.774
X128.75Y-114.044
X129.766Y-94.994
X129.766Y-96.264
X129.766Y-97.534
X129.766Y-115.187
X130.909Y-94.994
X131.036Y-102.614
X131.036Y-105.154
X131.036Y-115.187
X131.544Y-98.527
X132.306Y-94.994
X132.306Y-111.504
X132.306Y-114.044
X132.306Y-115.187
X133.068Y-98.527
X133.477Y-102.616
X133.477Y-105.156
X133.576Y-94.994
X133.576Y-115.187
X134.592Y-98.527
X134.846Y-94.994
X134.846Y-111.504
X134.846Y-114.044
X134.846Y-115.187
X136.116Y-94.994
X136.116Y-115.187
X136.125Y-98.527
X136.848Y-110.264
X136.878Y-102.233
X136.878Y-106.297
X137.132Y-104.011
X137.386Y-94.994
X137.386Y-111.504
X137.386Y-114.044
X137.386Y-115.187
X137.513Y-107.694
X137.64Y-99.947
X137.894Y-97.534
X138.656Y-94.994
X138.656Y-115.187
X138.91Y-97.534
X138.91Y-99.947
X139.037Y-104.011
X139.799Y-110.869
X139.926Y-94.994
X139.926Y-96.137
X139.926Y-97.153
X139.926Y-102.106
X139.926Y-106.678
X139.926Y-107.694
X139.926Y-108.71
X139.926Y-115.187
X140.307Y-104.011
X140.561Y-100.935
X140.589Y-100.074
X141.196Y-94.994
X141.196Y-115.187
X141.323Y-96.645
X141.323Y-97.788
X141.577Y-103.884
X142.113Y-109.728
X142.189Y-104.648
X142.339Y-96.645
X142.339Y-97.788
X142.466Y-94.994
X142.466Y-112.901
X142.466Y-114.044
X142.466Y-115.187
X142.494Y-110.871
X142.494Y-111.76
X142.847Y-108.329
X142.974Y-102.868
X143.002Y-100.076
X143.129Y-110.148
X143.355Y-112.012
X143.51Y-105.512
X143.637Y-110.998
X143.736Y-94.994
X143.736Y-115.187
X143.863Y-103.503
X144.117Y-98.169
X144.17Y-106.121
X144.628Y-104.75
X144.78Y-110.871
X145.006Y-94.994
X145.006Y-100.074
X145.006Y-115.186
X145.26Y-106.549
X145.26Y-107.501
X145.26Y-108.454
X145.542Y-104.699
X145.641Y-110.744
X146.086Y-106.549
X146.086Y-107.501
X146.086Y-108.454
X146.276Y-94.994
X146.276Y-98.169
X146.276Y-115.186
X146.657Y-104.773
X146.911Y-106.549
X146.911Y-107.501
X146.911Y-108.454
X147.038Y-110.742
X147.165Y-102.36
X147.419Y-101.471
X147.546Y-94.994
X147.546Y-115.187
X147.673Y-104.773
X148.054Y-102.233
X148.054Y-111.25
X148.219Y-105.572
X148.463Y-109.347
X148.562Y-114.171
X148.816Y-94.994
X148.816Y-115.187
X149.047Y-107.544
X149.07Y-111.758
X149.098Y-106.731
X149.197Y-109.98
X149.451Y-113.282
X149.959Y-110.742
X149.959Y-112.393
X150.086Y-94.994
X150.086Y-108.964
X150.086Y-114.044
X150.086Y-115.187
X150.703Y-103.247
X150.848Y-110.742
X151.229Y-104.265
X151.356Y-94.994
X151.356Y-108.964
X151.356Y-111.631
X151.356Y-112.774
X151.356Y-114.044
X151.356Y-115.187
X151.435Y-102.87
X151.483Y-105.281
X151.483Y-106.297
X151.483Y-107.186
X152.372Y-110.742
X152.626Y-94.994
X152.626Y-105.154
X152.626Y-106.424
X152.626Y-107.694
X152.626Y-108.964
X152.626Y-111.631
X152.626Y-112.774
X152.626Y-114.044
X152.626Y-115.187
X153.515Y-110.742
X153.896Y-94.994
X153.896Y-96.264
X153.896Y-97.534
X153.896Y-98.804
X153.896Y-100.074
X153.896Y-101.344
X153.896Y-102.614
X153.896Y-103.884
X153.896Y-105.154
X153.896Y-106.424
X153.896Y-107.694
X153.896Y-108.964
X153.896Y-112.774
X153.896Y-114.044
X153.896Y-115.187
X154.404Y-111.631
X155.166Y-94.994
X155.166Y-96.264
X155.166Y-97.534
X155.166Y-98.804
X155.166Y-100.074
X155.166Y-101.344
X155.166Y-102.614
X155.166Y-103.884
X155.166Y-105.154
X155.166Y-106.424
X155.166Y-107.694
X155.166Y-108.964
X155.166Y-110.742
X155.166Y-112.774
X155.166Y-114.044
X155.166Y-115.187
T2
X155.702Y-111.828
T3
X149.578Y-104.773
T4
X140.526Y-99.023
X149.705Y-102.487
T6
X151.184Y-96.414
X151.184Y-98.954
X151.184Y-101.494
T5
X131.309Y-99.66G85X130.509Y-99.66
G05
X131.309Y-108.3G85X130.509Y-108.3
G05
X135.659Y-99.66G85X134.559Y-99.66
G05
X135.659Y-108.3G85X134.559Y-108.3
G05
M30
