G04 #@! TF.GenerationSoftware,KiCad,Pcbnew,8.0.1*
G04 #@! TF.CreationDate,2024-04-19T23:10:03+02:00*
G04 #@! TF.ProjectId,esp-ir-receiver,6573702d-6972-42d7-9265-636569766572,1.0.0*
G04 #@! TF.SameCoordinates,Original*
G04 #@! TF.FileFunction,Copper,L4,Bot*
G04 #@! TF.FilePolarity,Positive*
%FSLAX46Y46*%
G04 Gerber Fmt 4.6, Leading zero omitted, Abs format (unit mm)*
G04 Created by KiCad (PCBNEW 8.0.1) date 2024-04-19 23:10:03*
%MOMM*%
%LPD*%
G01*
G04 APERTURE LIST*
G04 Aperture macros list*
%AMRoundRect*
0 Rectangle with rounded corners*
0 $1 Rounding radius*
0 $2 $3 $4 $5 $6 $7 $8 $9 X,Y pos of 4 corners*
0 Add a 4 corners polygon primitive as box body*
4,1,4,$2,$3,$4,$5,$6,$7,$8,$9,$2,$3,0*
0 Add four circle primitives for the rounded corners*
1,1,$1+$1,$2,$3*
1,1,$1+$1,$4,$5*
1,1,$1+$1,$6,$7*
1,1,$1+$1,$8,$9*
0 Add four rect primitives between the rounded corners*
20,1,$1+$1,$2,$3,$4,$5,0*
20,1,$1+$1,$4,$5,$6,$7,0*
20,1,$1+$1,$6,$7,$8,$9,0*
20,1,$1+$1,$8,$9,$2,$3,0*%
G04 Aperture macros list end*
G04 #@! TA.AperFunction,ComponentPad*
%ADD10R,0.500000X0.900000*%
G04 #@! TD*
G04 #@! TA.AperFunction,ComponentPad*
%ADD11RoundRect,0.248400X0.651600X-0.651600X0.651600X0.651600X-0.651600X0.651600X-0.651600X-0.651600X0*%
G04 #@! TD*
G04 #@! TA.AperFunction,ComponentPad*
%ADD12C,1.800000*%
G04 #@! TD*
G04 #@! TA.AperFunction,ComponentPad*
%ADD13O,2.100000X1.000000*%
G04 #@! TD*
G04 #@! TA.AperFunction,ComponentPad*
%ADD14O,1.800000X1.000000*%
G04 #@! TD*
G04 #@! TA.AperFunction,SMDPad,CuDef*
%ADD15C,1.000000*%
G04 #@! TD*
G04 #@! TA.AperFunction,SMDPad,CuDef*
%ADD16R,1.000000X1.000000*%
G04 #@! TD*
G04 #@! TA.AperFunction,ViaPad*
%ADD17C,0.400000*%
G04 #@! TD*
G04 #@! TA.AperFunction,ViaPad*
%ADD18C,0.500000*%
G04 #@! TD*
G04 #@! TA.AperFunction,ViaPad*
%ADD19C,0.700000*%
G04 #@! TD*
G04 #@! TA.AperFunction,Conductor*
%ADD20C,0.254000*%
G04 #@! TD*
G04 #@! TA.AperFunction,Conductor*
%ADD21C,0.127000*%
G04 #@! TD*
G04 APERTURE END LIST*
D10*
X155702000Y-111828000D03*
D11*
X151184001Y-101494024D03*
D12*
X151184001Y-98954024D03*
X151184001Y-96414024D03*
D13*
X135109001Y-99659999D03*
D14*
X130909001Y-99659999D03*
D13*
X135109001Y-108299999D03*
D14*
X130909001Y-108299999D03*
D15*
X140942001Y-109598999D03*
X143990001Y-100073999D03*
X143990001Y-102105999D03*
X140942001Y-113662999D03*
X140942001Y-111630999D03*
X146022001Y-102105999D03*
X146022001Y-100073999D03*
X146047401Y-96644999D03*
D16*
X144015401Y-96644999D03*
D17*
X142339001Y-97787999D03*
X137386001Y-114043999D03*
X155166001Y-112773999D03*
X141196001Y-115186999D03*
X153896001Y-101343999D03*
X152626001Y-108963999D03*
X145260001Y-106548999D03*
X146085501Y-107501499D03*
X153896001Y-105153999D03*
X146085501Y-106548999D03*
X145006001Y-94993999D03*
X137386001Y-94993999D03*
X137894001Y-97533999D03*
X128750001Y-110233999D03*
X132306001Y-111503999D03*
X128750001Y-111503999D03*
X149451001Y-113281999D03*
X155166001Y-94993999D03*
X138910001Y-97533999D03*
X154404001Y-111630999D03*
X137640001Y-99946999D03*
X142466001Y-114043999D03*
X144780000Y-110871000D03*
X146276001Y-98168999D03*
X129766001Y-96263999D03*
X150086001Y-108963999D03*
X155166001Y-97533999D03*
X155166001Y-105153999D03*
X128750001Y-100073999D03*
X138656001Y-115186999D03*
X141323001Y-97787999D03*
X153896001Y-108963999D03*
X139037001Y-104010999D03*
X153896001Y-114043999D03*
X148816001Y-115186999D03*
X147419001Y-101470999D03*
X129766001Y-97533999D03*
X142189200Y-104648000D03*
X142466001Y-94993999D03*
X155166001Y-108963999D03*
X134846001Y-115186999D03*
X155166001Y-110741999D03*
X145641001Y-110744000D03*
X142974001Y-102867999D03*
X150848001Y-110741999D03*
X137386001Y-115186999D03*
X128750001Y-107693999D03*
X128750001Y-98803999D03*
X146911001Y-106548999D03*
X138656001Y-94993999D03*
X149070001Y-111757999D03*
X152626001Y-115186999D03*
X148816001Y-94993999D03*
X138910001Y-99946999D03*
X151229001Y-104264999D03*
X147546001Y-115186999D03*
X153515001Y-110741999D03*
X134846001Y-94993999D03*
X152626001Y-107693999D03*
X145260001Y-107501499D03*
X151356001Y-115186999D03*
X128750001Y-103883999D03*
X131036001Y-105153999D03*
X151356001Y-114043999D03*
X155166001Y-103883999D03*
X151483001Y-105280999D03*
X129766001Y-115186999D03*
X142339001Y-96644999D03*
X150703002Y-103247000D03*
X146911001Y-108453999D03*
X128750001Y-102613999D03*
X143355001Y-112011999D03*
X139926001Y-108709999D03*
X128750001Y-112773999D03*
X153896001Y-94993999D03*
X128750001Y-97533999D03*
X139926001Y-94993999D03*
X147038001Y-110741999D03*
X145006001Y-115185971D03*
X153896001Y-98803999D03*
X143736001Y-94993999D03*
X139926001Y-106677999D03*
X150086001Y-114043999D03*
X131036001Y-102613999D03*
X152626001Y-94993999D03*
X155166001Y-101343999D03*
X136878001Y-106296999D03*
X145260001Y-108453999D03*
X152626001Y-114043999D03*
X128750001Y-114043999D03*
X155166001Y-100073999D03*
X141196001Y-94993999D03*
X137132001Y-104010999D03*
X133576001Y-115186999D03*
X153896001Y-106423999D03*
X139799001Y-110868999D03*
X155166001Y-107693999D03*
X139926001Y-96136999D03*
X151356001Y-94993999D03*
X133576001Y-94993999D03*
X146911001Y-107501499D03*
X139926001Y-97152999D03*
X152626001Y-112773999D03*
X128750001Y-106423999D03*
X153896001Y-100073999D03*
X139926001Y-115186999D03*
X155166001Y-96263999D03*
X128750001Y-101343999D03*
X136116001Y-115186999D03*
X153896001Y-96263999D03*
X150086001Y-115186999D03*
X142466001Y-115186999D03*
X149959001Y-112392999D03*
X137386001Y-111503999D03*
X139926001Y-102105999D03*
X155166001Y-102613999D03*
X141577001Y-103883999D03*
X153896001Y-112773999D03*
X143736001Y-115186999D03*
X152372001Y-110741999D03*
X140589000Y-100073999D03*
X139926001Y-107693999D03*
X131036001Y-115186999D03*
X152626001Y-105153999D03*
X148054001Y-111249999D03*
X146276001Y-94993999D03*
X136116001Y-94993999D03*
X153896001Y-102613999D03*
X133477000Y-105156000D03*
X151483001Y-106296999D03*
X142494000Y-111760000D03*
X128750001Y-96263999D03*
X148463000Y-109347000D03*
X151356001Y-111630999D03*
X142466001Y-112900999D03*
X132306001Y-94993999D03*
X142113000Y-109728000D03*
X133477000Y-102616000D03*
X132306001Y-115186999D03*
X153896001Y-103883999D03*
X153896001Y-115186999D03*
X153896001Y-97533999D03*
X141323001Y-96644999D03*
X146276001Y-115185971D03*
X151483001Y-107185999D03*
X148562001Y-114170999D03*
X134846001Y-114043999D03*
X145006001Y-100073999D03*
X155166001Y-98803999D03*
X128750001Y-105153999D03*
X152626001Y-111630999D03*
X152626001Y-106423999D03*
X143002000Y-100076000D03*
X150086001Y-94993999D03*
X147546001Y-94993999D03*
X151356001Y-108963999D03*
X136878001Y-102232999D03*
X153896001Y-107693999D03*
X151356001Y-112773999D03*
X149197001Y-109979999D03*
X132306001Y-114043999D03*
X155166001Y-106423999D03*
X146085501Y-108453999D03*
X155166001Y-115186999D03*
X130909001Y-94993999D03*
X134846001Y-111503999D03*
X129766001Y-94993999D03*
X143637000Y-110998000D03*
X155166001Y-114043999D03*
X128750001Y-108963999D03*
X144117001Y-98168999D03*
X140561001Y-100934999D03*
X140307001Y-104010999D03*
X143863001Y-103502999D03*
X136124645Y-98526974D03*
X149959001Y-110741999D03*
X148054001Y-102232999D03*
X151434800Y-102870000D03*
D18*
X149578001Y-104772999D03*
D19*
X140526026Y-99023024D03*
D17*
X142847001Y-108328999D03*
D19*
X149705001Y-102486999D03*
D17*
X144170400Y-106121200D03*
X137513001Y-107693999D03*
X133068001Y-98526974D03*
X149047200Y-107543600D03*
X149098000Y-106730800D03*
X134592001Y-98526974D03*
X143510000Y-105511600D03*
X131544001Y-98526974D03*
X147673001Y-104772999D03*
X146657001Y-104772999D03*
X145542000Y-104698800D03*
X144627600Y-104749600D03*
X148218501Y-105572499D03*
X142494000Y-110871000D03*
X143129000Y-110148499D03*
X147165001Y-102359999D03*
X136848001Y-110263999D03*
D20*
X146047401Y-97508599D02*
X144532976Y-99023024D01*
X146047401Y-96644999D02*
X146047401Y-97508599D01*
X144532976Y-99023024D02*
X140526026Y-99023024D01*
D21*
X139418001Y-106042999D02*
X137767001Y-107693999D01*
X137767001Y-107693999D02*
X137513001Y-107693999D01*
X144170400Y-106121200D02*
X144092199Y-106042999D01*
X144092199Y-106042999D02*
X139418001Y-106042999D01*
X146893082Y-105664000D02*
X144323545Y-105664000D01*
X143764000Y-104932353D02*
X141953646Y-103121999D01*
X141953646Y-103121999D02*
X135227001Y-103121999D01*
X135227001Y-103121999D02*
X133068001Y-100962999D01*
X144323545Y-105664000D02*
X143764000Y-105104455D01*
X143764000Y-105104455D02*
X143764000Y-104932353D01*
X149047200Y-107543600D02*
X148772682Y-107543600D01*
X148772682Y-107543600D02*
X146893082Y-105664000D01*
X133068001Y-100962999D02*
X133068001Y-98526974D01*
X133535501Y-98717499D02*
X133726026Y-98526974D01*
X144018000Y-104827143D02*
X142058856Y-102867999D01*
X149098000Y-106730800D02*
X148319092Y-106730800D01*
X142058856Y-102867999D02*
X135354001Y-102867999D01*
X144428755Y-105410000D02*
X144018000Y-104999245D01*
X133535501Y-98720619D02*
X133535501Y-98717499D01*
X146998292Y-105410000D02*
X144428755Y-105410000D01*
X133322001Y-100835999D02*
X133322001Y-98934119D01*
X135354001Y-102867999D02*
X133322001Y-100835999D01*
X144018000Y-104999245D02*
X144018000Y-104827143D01*
X133322001Y-98934119D02*
X133535501Y-98720619D01*
X133726026Y-98526974D02*
X134592001Y-98526974D01*
X148319092Y-106730800D02*
X146998292Y-105410000D01*
X143510000Y-105037563D02*
X141848436Y-103375999D01*
X132814001Y-98934119D02*
X132600501Y-98720619D01*
X132600501Y-98720619D02*
X132600501Y-98717499D01*
X132814001Y-101089999D02*
X132814001Y-98934119D01*
X143510000Y-105511600D02*
X143510000Y-105037563D01*
X132600501Y-98717499D02*
X132409976Y-98526974D01*
X141848436Y-103375999D02*
X135100001Y-103375999D01*
X135100001Y-103375999D02*
X132814001Y-101089999D01*
X132409976Y-98526974D02*
X131544001Y-98526974D01*
X147673001Y-104772999D02*
X147419001Y-104772999D01*
X146022001Y-103375999D02*
X146022001Y-102105999D01*
X147419001Y-104772999D02*
X146022001Y-103375999D01*
X145133001Y-100962999D02*
X146022001Y-100073999D01*
X146657001Y-104772999D02*
X146657001Y-104391999D01*
X145133001Y-102867999D02*
X145133001Y-100962999D01*
X146657001Y-104391999D02*
X145133001Y-102867999D01*
X144879001Y-100962999D02*
X143990001Y-100073999D01*
X145542000Y-104698800D02*
X145542000Y-103636208D01*
X145542000Y-103636208D02*
X144879001Y-102973209D01*
X144879001Y-102973209D02*
X144879001Y-100962999D01*
X144625001Y-104747001D02*
X144625001Y-102740999D01*
X144625001Y-102740999D02*
X143990001Y-102105999D01*
X144627600Y-104749600D02*
X144625001Y-104747001D01*
X148218501Y-105572499D02*
X148435001Y-105355999D01*
X149762776Y-101494024D02*
X151184001Y-101494024D01*
X148435001Y-102821799D02*
X149762776Y-101494024D01*
X148435001Y-105355999D02*
X148435001Y-102821799D01*
X141632501Y-111321499D02*
X141632501Y-112972499D01*
X142494000Y-110871000D02*
X142083000Y-110871000D01*
X142083000Y-110871000D02*
X141632501Y-111321499D01*
X141632501Y-112972499D02*
X140942001Y-113662999D01*
X142424501Y-110148499D02*
X140942001Y-111630999D01*
X143129000Y-110148499D02*
X142424501Y-110148499D01*
X147751001Y-105803499D02*
X147751001Y-105356144D01*
X148140501Y-104966644D02*
X148140501Y-103335499D01*
X149251145Y-106222800D02*
X148170302Y-106222800D01*
X147165001Y-109090999D02*
X148204400Y-108051600D01*
X140277001Y-110263999D02*
X140942001Y-109598999D01*
X140942001Y-109598999D02*
X141450001Y-109090999D01*
X148140501Y-103335499D02*
X147165001Y-102359999D01*
X148204400Y-108051600D02*
X149200345Y-108051600D01*
X136848001Y-110263999D02*
X140277001Y-110263999D01*
X148170302Y-106222800D02*
X147751001Y-105803499D01*
X149565500Y-106537155D02*
X149251145Y-106222800D01*
X147751001Y-105356144D02*
X148140501Y-104966644D01*
X149565500Y-107686445D02*
X149565500Y-106537155D01*
X149200345Y-108051600D02*
X149565500Y-107686445D01*
X141450001Y-109090999D02*
X147165001Y-109090999D01*
G04 #@! TA.AperFunction,Conductor*
G36*
X155506168Y-94679728D02*
G01*
X155542147Y-94729218D01*
X155547001Y-94759838D01*
X155547001Y-115413471D01*
X155528094Y-115471662D01*
X155478594Y-115507626D01*
X155448001Y-115512471D01*
X129449625Y-115512469D01*
X129449538Y-115512462D01*
X129398336Y-115512468D01*
X129389706Y-115512092D01*
X129234292Y-115498512D01*
X129217295Y-115495517D01*
X129070787Y-115456273D01*
X129054568Y-115450371D01*
X128917103Y-115386279D01*
X128902156Y-115377650D01*
X128777913Y-115290661D01*
X128764691Y-115279567D01*
X128657444Y-115172321D01*
X128646350Y-115159100D01*
X128559356Y-115034855D01*
X128550727Y-115019908D01*
X128486632Y-114882443D01*
X128480734Y-114866237D01*
X128441484Y-114719713D01*
X128438491Y-114702727D01*
X128424928Y-114547557D01*
X128424552Y-114538926D01*
X128424557Y-114495405D01*
X128424556Y-114495402D01*
X128424557Y-114486548D01*
X128424550Y-114486481D01*
X128424549Y-113662999D01*
X140236356Y-113662999D01*
X140256861Y-113831871D01*
X140317183Y-113990929D01*
X140413818Y-114130928D01*
X140541149Y-114243733D01*
X140691776Y-114322789D01*
X140856945Y-114363499D01*
X140856948Y-114363499D01*
X141027054Y-114363499D01*
X141027057Y-114363499D01*
X141192226Y-114322789D01*
X141342853Y-114243733D01*
X141470184Y-114130928D01*
X141566819Y-113990929D01*
X141627141Y-113831871D01*
X141647646Y-113662999D01*
X141627141Y-113494127D01*
X141610540Y-113450356D01*
X141607584Y-113389243D01*
X141633102Y-113345248D01*
X141856309Y-113122043D01*
X141896501Y-113025012D01*
X141896501Y-111471857D01*
X141915408Y-111413666D01*
X141925491Y-111401860D01*
X142119207Y-111208143D01*
X142173722Y-111180367D01*
X142234154Y-111189938D01*
X142247403Y-111198058D01*
X142253279Y-111202328D01*
X142367438Y-111260495D01*
X142367440Y-111260495D01*
X142367445Y-111260498D01*
X142494000Y-111280542D01*
X142620555Y-111260498D01*
X142734723Y-111202326D01*
X142825326Y-111111723D01*
X142883498Y-110997555D01*
X142903542Y-110871000D01*
X142903154Y-110868553D01*
X142900801Y-110853695D01*
X142883498Y-110744445D01*
X142883495Y-110744440D01*
X142883495Y-110744438D01*
X142882252Y-110741999D01*
X149549459Y-110741999D01*
X149569503Y-110868553D01*
X149569505Y-110868560D01*
X149627672Y-110982717D01*
X149627675Y-110982722D01*
X149718278Y-111073325D01*
X149718280Y-111073326D01*
X149718282Y-111073327D01*
X149832439Y-111131494D01*
X149832441Y-111131494D01*
X149832446Y-111131497D01*
X149959001Y-111151541D01*
X150085556Y-111131497D01*
X150199724Y-111073325D01*
X150290327Y-110982722D01*
X150348499Y-110868554D01*
X150368543Y-110741999D01*
X150348499Y-110615444D01*
X150348496Y-110615439D01*
X150348496Y-110615437D01*
X150290329Y-110501280D01*
X150290328Y-110501278D01*
X150290327Y-110501276D01*
X150199724Y-110410673D01*
X150199721Y-110410671D01*
X150199719Y-110410670D01*
X150085562Y-110352503D01*
X150085557Y-110352501D01*
X150085556Y-110352501D01*
X149959001Y-110332457D01*
X149832446Y-110352501D01*
X149832439Y-110352503D01*
X149718282Y-110410670D01*
X149718280Y-110410671D01*
X149627673Y-110501278D01*
X149627672Y-110501280D01*
X149569505Y-110615437D01*
X149569503Y-110615444D01*
X149549459Y-110741998D01*
X149549459Y-110741999D01*
X142882252Y-110741999D01*
X142838040Y-110655228D01*
X142828468Y-110594796D01*
X142856245Y-110540280D01*
X142910762Y-110512502D01*
X142971192Y-110522072D01*
X143002445Y-110537997D01*
X143129000Y-110558041D01*
X143255555Y-110537997D01*
X143369723Y-110479825D01*
X143460326Y-110389222D01*
X143518498Y-110275054D01*
X143538542Y-110148499D01*
X143518498Y-110021944D01*
X143518495Y-110021939D01*
X143518495Y-110021937D01*
X143460328Y-109907780D01*
X143460327Y-109907778D01*
X143460326Y-109907776D01*
X143369723Y-109817173D01*
X143369720Y-109817171D01*
X143369718Y-109817170D01*
X143255561Y-109759003D01*
X143255556Y-109759001D01*
X143255555Y-109759001D01*
X143129000Y-109738957D01*
X143002445Y-109759001D01*
X143002438Y-109759003D01*
X142888281Y-109817170D01*
X142888275Y-109817174D01*
X142849946Y-109855503D01*
X142795429Y-109883280D01*
X142779943Y-109884499D01*
X142371988Y-109884499D01*
X142343564Y-109896271D01*
X142343563Y-109896270D01*
X142274961Y-109924688D01*
X142274959Y-109924689D01*
X142274957Y-109924690D01*
X142274956Y-109924691D01*
X141260759Y-110938887D01*
X141206242Y-110966664D01*
X141167064Y-110965006D01*
X141027062Y-110930499D01*
X141027057Y-110930499D01*
X140856945Y-110930499D01*
X140856942Y-110930499D01*
X140691777Y-110971208D01*
X140541147Y-111050266D01*
X140413819Y-111163068D01*
X140413817Y-111163071D01*
X140346568Y-111260498D01*
X140317183Y-111303069D01*
X140256861Y-111462127D01*
X140236356Y-111630999D01*
X140256861Y-111799871D01*
X140317183Y-111958929D01*
X140413818Y-112098928D01*
X140541149Y-112211733D01*
X140691776Y-112290789D01*
X140856945Y-112331499D01*
X140856948Y-112331499D01*
X141027054Y-112331499D01*
X141027057Y-112331499D01*
X141192226Y-112290789D01*
X141223495Y-112274377D01*
X141283804Y-112264077D01*
X141338653Y-112291193D01*
X141367088Y-112345369D01*
X141368501Y-112362038D01*
X141368501Y-112822139D01*
X141349594Y-112880330D01*
X141339506Y-112892141D01*
X141260758Y-112970888D01*
X141206243Y-112998665D01*
X141167064Y-112997007D01*
X141027059Y-112962499D01*
X141027057Y-112962499D01*
X140856945Y-112962499D01*
X140856942Y-112962499D01*
X140691777Y-113003208D01*
X140541147Y-113082266D01*
X140413819Y-113195068D01*
X140413818Y-113195070D01*
X140317183Y-113335069D01*
X140256861Y-113494127D01*
X140236356Y-113662999D01*
X128424549Y-113662999D01*
X128424543Y-108549999D01*
X129539138Y-108549999D01*
X129547429Y-108591683D01*
X129547432Y-108591694D01*
X129622809Y-108773672D01*
X129622815Y-108773684D01*
X129732250Y-108937461D01*
X129732253Y-108937465D01*
X129871534Y-109076746D01*
X129871538Y-109076749D01*
X130035315Y-109186184D01*
X130035327Y-109186190D01*
X130217311Y-109261569D01*
X130410507Y-109299998D01*
X130410511Y-109299999D01*
X130659000Y-109299999D01*
X130659001Y-109299998D01*
X130659001Y-108599999D01*
X131159001Y-108599999D01*
X131159001Y-109299998D01*
X131159002Y-109299999D01*
X131407491Y-109299999D01*
X131407494Y-109299998D01*
X131600689Y-109261569D01*
X131600691Y-109261569D01*
X131782674Y-109186190D01*
X131782686Y-109186184D01*
X131946463Y-109076749D01*
X131946467Y-109076746D01*
X132085748Y-108937465D01*
X132085751Y-108937461D01*
X132195186Y-108773684D01*
X132195192Y-108773672D01*
X132270569Y-108591694D01*
X132270572Y-108591683D01*
X132278864Y-108549999D01*
X133589138Y-108549999D01*
X133597429Y-108591683D01*
X133597432Y-108591694D01*
X133672809Y-108773672D01*
X133672815Y-108773684D01*
X133782250Y-108937461D01*
X133782253Y-108937465D01*
X133921534Y-109076746D01*
X133921538Y-109076749D01*
X134085315Y-109186184D01*
X134085327Y-109186190D01*
X134267311Y-109261569D01*
X134460507Y-109299998D01*
X134460511Y-109299999D01*
X134859000Y-109299999D01*
X134859001Y-109299998D01*
X134859001Y-108599999D01*
X135359001Y-108599999D01*
X135359001Y-109299998D01*
X135359002Y-109299999D01*
X135757491Y-109299999D01*
X135757494Y-109299998D01*
X135950689Y-109261569D01*
X135950691Y-109261569D01*
X136132674Y-109186190D01*
X136132686Y-109186184D01*
X136296463Y-109076749D01*
X136296467Y-109076746D01*
X136435748Y-108937465D01*
X136435751Y-108937461D01*
X136545186Y-108773684D01*
X136545192Y-108773672D01*
X136620569Y-108591694D01*
X136620572Y-108591683D01*
X136628864Y-108549999D01*
X135825989Y-108549999D01*
X135843206Y-108540059D01*
X135899061Y-108484204D01*
X135938557Y-108415795D01*
X135959001Y-108339495D01*
X135959001Y-108260503D01*
X135938557Y-108184203D01*
X135899061Y-108115794D01*
X135843206Y-108059939D01*
X135825989Y-108049999D01*
X136628863Y-108049999D01*
X136620572Y-108008314D01*
X136620569Y-108008303D01*
X136545192Y-107826325D01*
X136545186Y-107826313D01*
X136435751Y-107662536D01*
X136435748Y-107662532D01*
X136296467Y-107523251D01*
X136296463Y-107523248D01*
X136132686Y-107413813D01*
X136132674Y-107413807D01*
X135950690Y-107338428D01*
X135757494Y-107299999D01*
X135359002Y-107299999D01*
X135359001Y-107300000D01*
X135359001Y-107999999D01*
X134859001Y-107999999D01*
X134859001Y-107440419D01*
X134877908Y-107382228D01*
X134908500Y-107354684D01*
X134944822Y-107333714D01*
X135052716Y-107225820D01*
X135105695Y-107134058D01*
X135129007Y-107093681D01*
X135129007Y-107093679D01*
X135129009Y-107093677D01*
X135168501Y-106946292D01*
X135168501Y-106793706D01*
X135129009Y-106646321D01*
X135129007Y-106646318D01*
X135129007Y-106646316D01*
X135052719Y-106514182D01*
X135052717Y-106514180D01*
X135052716Y-106514178D01*
X134944822Y-106406284D01*
X134944819Y-106406282D01*
X134944817Y-106406280D01*
X134812682Y-106329992D01*
X134812683Y-106329992D01*
X134750563Y-106313347D01*
X134665294Y-106290499D01*
X134512708Y-106290499D01*
X134451130Y-106306999D01*
X134365318Y-106329992D01*
X134233184Y-106406280D01*
X134125282Y-106514182D01*
X134048994Y-106646316D01*
X134009501Y-106793706D01*
X134009501Y-106946291D01*
X134048994Y-107093681D01*
X134125282Y-107225815D01*
X134125284Y-107225817D01*
X134125286Y-107225820D01*
X134141743Y-107242277D01*
X134169519Y-107296792D01*
X134159948Y-107357224D01*
X134116683Y-107400489D01*
X134109627Y-107403742D01*
X134085323Y-107413809D01*
X133921538Y-107523248D01*
X133921534Y-107523251D01*
X133782253Y-107662532D01*
X133782250Y-107662536D01*
X133672815Y-107826313D01*
X133672809Y-107826325D01*
X133597432Y-108008303D01*
X133597429Y-108008314D01*
X133589138Y-108049999D01*
X134392013Y-108049999D01*
X134374796Y-108059939D01*
X134318941Y-108115794D01*
X134279445Y-108184203D01*
X134259001Y-108260503D01*
X134259001Y-108339495D01*
X134279445Y-108415795D01*
X134318941Y-108484204D01*
X134374796Y-108540059D01*
X134392013Y-108549999D01*
X133589138Y-108549999D01*
X132278864Y-108549999D01*
X131475989Y-108549999D01*
X131493206Y-108540059D01*
X131549061Y-108484204D01*
X131588557Y-108415795D01*
X131609001Y-108339495D01*
X131609001Y-108260503D01*
X131588557Y-108184203D01*
X131549061Y-108115794D01*
X131493206Y-108059939D01*
X131475989Y-108049999D01*
X132278863Y-108049999D01*
X132270572Y-108008314D01*
X132270569Y-108008303D01*
X132195192Y-107826325D01*
X132195186Y-107826313D01*
X132085751Y-107662536D01*
X132085748Y-107662532D01*
X131946467Y-107523251D01*
X131946463Y-107523248D01*
X131782686Y-107413813D01*
X131782674Y-107413807D01*
X131600690Y-107338428D01*
X131407494Y-107299999D01*
X131159002Y-107299999D01*
X131159001Y-107300000D01*
X131159001Y-107999999D01*
X130659001Y-107999999D01*
X130659001Y-107300000D01*
X130659000Y-107299999D01*
X130410507Y-107299999D01*
X130217312Y-107338428D01*
X130217310Y-107338428D01*
X130035327Y-107413807D01*
X130035315Y-107413813D01*
X129871538Y-107523248D01*
X129871534Y-107523251D01*
X129732253Y-107662532D01*
X129732250Y-107662536D01*
X129622815Y-107826313D01*
X129622809Y-107826325D01*
X129547432Y-108008303D01*
X129547429Y-108008314D01*
X129539138Y-108049999D01*
X130342013Y-108049999D01*
X130324796Y-108059939D01*
X130268941Y-108115794D01*
X130229445Y-108184203D01*
X130209001Y-108260503D01*
X130209001Y-108339495D01*
X130229445Y-108415795D01*
X130268941Y-108484204D01*
X130324796Y-108540059D01*
X130342013Y-108549999D01*
X129539138Y-108549999D01*
X128424543Y-108549999D01*
X128424532Y-99909999D01*
X129539138Y-99909999D01*
X129547429Y-99951683D01*
X129547432Y-99951694D01*
X129622809Y-100133672D01*
X129622815Y-100133684D01*
X129732250Y-100297461D01*
X129732253Y-100297465D01*
X129871534Y-100436746D01*
X129871538Y-100436749D01*
X130035315Y-100546184D01*
X130035327Y-100546190D01*
X130217311Y-100621569D01*
X130410507Y-100659998D01*
X130410511Y-100659999D01*
X130659000Y-100659999D01*
X130659001Y-100659998D01*
X130659001Y-99959999D01*
X131159001Y-99959999D01*
X131159001Y-100659998D01*
X131159002Y-100659999D01*
X131407491Y-100659999D01*
X131407494Y-100659998D01*
X131600689Y-100621569D01*
X131600691Y-100621569D01*
X131782674Y-100546190D01*
X131782686Y-100546184D01*
X131946463Y-100436749D01*
X131946467Y-100436746D01*
X132085748Y-100297465D01*
X132085751Y-100297461D01*
X132195186Y-100133684D01*
X132195192Y-100133672D01*
X132270569Y-99951694D01*
X132270572Y-99951683D01*
X132278864Y-99909999D01*
X131475989Y-99909999D01*
X131493206Y-99900059D01*
X131549061Y-99844204D01*
X131588557Y-99775795D01*
X131609001Y-99699495D01*
X131609001Y-99620503D01*
X131588557Y-99544203D01*
X131549061Y-99475794D01*
X131493206Y-99419939D01*
X131475989Y-99409999D01*
X132278863Y-99409999D01*
X132270572Y-99368314D01*
X132270569Y-99368303D01*
X132195192Y-99186325D01*
X132195186Y-99186313D01*
X132085751Y-99022536D01*
X132085748Y-99022532D01*
X132023194Y-98959978D01*
X131995417Y-98905461D01*
X132004988Y-98845029D01*
X132048253Y-98801764D01*
X132093198Y-98790974D01*
X132259616Y-98790974D01*
X132317807Y-98809881D01*
X132329620Y-98819970D01*
X132363517Y-98853867D01*
X132375825Y-98868865D01*
X132376689Y-98870158D01*
X132376692Y-98870161D01*
X132376693Y-98870163D01*
X132521006Y-99014476D01*
X132548782Y-99068991D01*
X132550001Y-99084478D01*
X132550001Y-101142511D01*
X132590191Y-101239540D01*
X132590192Y-101239541D01*
X132590193Y-101239543D01*
X134950457Y-103599807D01*
X135047488Y-103639999D01*
X135152513Y-103639999D01*
X139880501Y-103639999D01*
X139938692Y-103658906D01*
X139974656Y-103708406D01*
X139974656Y-103769592D01*
X139968710Y-103783944D01*
X139917505Y-103884437D01*
X139917503Y-103884444D01*
X139897459Y-104010998D01*
X139897459Y-104010999D01*
X139917503Y-104137553D01*
X139917505Y-104137560D01*
X139975672Y-104251717D01*
X139975675Y-104251722D01*
X140066278Y-104342325D01*
X140066280Y-104342326D01*
X140066282Y-104342327D01*
X140180439Y-104400494D01*
X140180441Y-104400494D01*
X140180446Y-104400497D01*
X140307001Y-104420541D01*
X140433556Y-104400497D01*
X140547724Y-104342325D01*
X140638327Y-104251722D01*
X140696499Y-104137554D01*
X140716543Y-104010999D01*
X140696499Y-103884444D01*
X140696496Y-103884439D01*
X140696496Y-103884437D01*
X140645292Y-103783944D01*
X140635720Y-103723512D01*
X140663497Y-103668996D01*
X140718014Y-103641218D01*
X140733501Y-103639999D01*
X141698076Y-103639999D01*
X141756267Y-103658906D01*
X141768080Y-103668995D01*
X143204314Y-105105229D01*
X143232091Y-105159746D01*
X143222520Y-105220178D01*
X143204315Y-105245235D01*
X143178675Y-105270875D01*
X143178671Y-105270881D01*
X143120504Y-105385038D01*
X143120502Y-105385045D01*
X143100458Y-105511599D01*
X143100458Y-105511600D01*
X143120502Y-105638154D01*
X143122911Y-105645569D01*
X143120700Y-105646287D01*
X143128493Y-105695488D01*
X143100714Y-105750004D01*
X143046197Y-105777780D01*
X143030712Y-105778999D01*
X139365488Y-105778999D01*
X139339234Y-105789874D01*
X139339233Y-105789874D01*
X139268457Y-105819189D01*
X137785538Y-107302107D01*
X137731021Y-107329884D01*
X137670589Y-107320313D01*
X137639556Y-107304501D01*
X137513001Y-107284457D01*
X137386446Y-107304501D01*
X137386439Y-107304503D01*
X137272282Y-107362670D01*
X137272280Y-107362671D01*
X137181673Y-107453278D01*
X137181672Y-107453280D01*
X137123505Y-107567437D01*
X137123503Y-107567444D01*
X137103459Y-107693998D01*
X137103459Y-107693999D01*
X137123503Y-107820553D01*
X137123505Y-107820560D01*
X137181672Y-107934717D01*
X137181675Y-107934722D01*
X137272278Y-108025325D01*
X137272280Y-108025326D01*
X137272282Y-108025327D01*
X137386439Y-108083494D01*
X137386441Y-108083494D01*
X137386446Y-108083497D01*
X137513001Y-108103541D01*
X137639556Y-108083497D01*
X137753724Y-108025325D01*
X137808213Y-107970834D01*
X137840325Y-107949377D01*
X137916545Y-107917807D01*
X139498358Y-106335995D01*
X139552875Y-106308218D01*
X139568362Y-106306999D01*
X143750422Y-106306999D01*
X143808613Y-106325906D01*
X143834184Y-106355847D01*
X143834496Y-106355621D01*
X143837368Y-106359574D01*
X143838630Y-106361052D01*
X143839074Y-106361923D01*
X143929677Y-106452526D01*
X143929679Y-106452527D01*
X143929681Y-106452528D01*
X144043838Y-106510695D01*
X144043840Y-106510695D01*
X144043845Y-106510698D01*
X144170400Y-106530742D01*
X144296955Y-106510698D01*
X144411123Y-106452526D01*
X144501726Y-106361923D01*
X144559898Y-106247755D01*
X144579942Y-106121200D01*
X144567475Y-106042486D01*
X144577046Y-105982055D01*
X144620311Y-105938790D01*
X144665256Y-105928000D01*
X146742722Y-105928000D01*
X146800913Y-105946907D01*
X146812726Y-105956996D01*
X148474325Y-107618596D01*
X148502102Y-107673113D01*
X148492531Y-107733545D01*
X148449266Y-107776810D01*
X148404321Y-107787600D01*
X148256912Y-107787600D01*
X148151887Y-107787600D01*
X148126543Y-107798097D01*
X148054858Y-107827790D01*
X147084645Y-108798003D01*
X147030128Y-108825780D01*
X147014641Y-108826999D01*
X143160057Y-108826999D01*
X143101866Y-108808092D01*
X143065902Y-108758592D01*
X143065902Y-108697406D01*
X143090051Y-108657997D01*
X143178327Y-108569722D01*
X143236499Y-108455554D01*
X143256543Y-108328999D01*
X143236499Y-108202444D01*
X143236496Y-108202439D01*
X143236496Y-108202437D01*
X143178329Y-108088280D01*
X143178328Y-108088278D01*
X143178327Y-108088276D01*
X143087724Y-107997673D01*
X143087721Y-107997671D01*
X143087719Y-107997670D01*
X142973562Y-107939503D01*
X142973557Y-107939501D01*
X142973556Y-107939501D01*
X142847001Y-107919457D01*
X142720446Y-107939501D01*
X142720439Y-107939503D01*
X142606282Y-107997670D01*
X142606280Y-107997671D01*
X142515673Y-108088278D01*
X142515672Y-108088280D01*
X142457505Y-108202437D01*
X142457503Y-108202444D01*
X142437459Y-108328998D01*
X142437459Y-108328999D01*
X142457503Y-108455553D01*
X142457505Y-108455560D01*
X142515672Y-108569717D01*
X142515675Y-108569722D01*
X142603950Y-108657997D01*
X142631726Y-108712512D01*
X142622155Y-108772944D01*
X142578890Y-108816209D01*
X142533945Y-108826999D01*
X141397488Y-108826999D01*
X141369068Y-108838770D01*
X141300457Y-108867190D01*
X141300453Y-108867193D01*
X141260759Y-108906887D01*
X141206242Y-108934664D01*
X141167065Y-108933006D01*
X141027062Y-108898499D01*
X141027057Y-108898499D01*
X140856945Y-108898499D01*
X140856942Y-108898499D01*
X140691777Y-108939208D01*
X140541147Y-109018266D01*
X140413819Y-109131068D01*
X140413818Y-109131070D01*
X140317183Y-109271069D01*
X140281857Y-109364219D01*
X140256861Y-109430128D01*
X140236356Y-109598997D01*
X140236356Y-109599000D01*
X140256860Y-109767868D01*
X140256862Y-109767874D01*
X140273460Y-109811641D01*
X140276415Y-109872755D01*
X140250898Y-109916748D01*
X140196647Y-109971001D01*
X140142131Y-109998780D01*
X140126642Y-109999999D01*
X137197058Y-109999999D01*
X137138867Y-109981092D01*
X137127055Y-109971003D01*
X137088725Y-109932674D01*
X137088724Y-109932673D01*
X137088721Y-109932671D01*
X137088719Y-109932670D01*
X136974562Y-109874503D01*
X136974557Y-109874501D01*
X136974556Y-109874501D01*
X136848001Y-109854457D01*
X136721446Y-109874501D01*
X136721439Y-109874503D01*
X136607282Y-109932670D01*
X136607280Y-109932671D01*
X136516673Y-110023278D01*
X136516672Y-110023280D01*
X136458505Y-110137437D01*
X136458503Y-110137444D01*
X136438565Y-110263332D01*
X136438459Y-110263999D01*
X136452476Y-110352503D01*
X136458503Y-110390553D01*
X136458505Y-110390560D01*
X136508056Y-110487807D01*
X136516675Y-110504722D01*
X136607278Y-110595325D01*
X136607280Y-110595326D01*
X136607282Y-110595327D01*
X136721439Y-110653494D01*
X136721441Y-110653494D01*
X136721446Y-110653497D01*
X136848001Y-110673541D01*
X136974556Y-110653497D01*
X137088724Y-110595325D01*
X137107890Y-110576159D01*
X137127055Y-110556995D01*
X137181572Y-110529218D01*
X137197058Y-110527999D01*
X140329513Y-110527999D01*
X140329514Y-110527999D01*
X140426545Y-110487807D01*
X140623242Y-110291108D01*
X140677757Y-110263332D01*
X140716934Y-110264989D01*
X140856945Y-110299499D01*
X140856948Y-110299499D01*
X141027054Y-110299499D01*
X141027057Y-110299499D01*
X141192226Y-110258789D01*
X141342853Y-110179733D01*
X141470184Y-110066928D01*
X141566819Y-109926929D01*
X141627141Y-109767871D01*
X141647646Y-109598999D01*
X141631488Y-109465930D01*
X141643243Y-109405887D01*
X141688047Y-109364219D01*
X141729766Y-109354999D01*
X147217513Y-109354999D01*
X147217514Y-109354999D01*
X147314545Y-109314807D01*
X148284756Y-108344596D01*
X148339273Y-108316819D01*
X148354760Y-108315600D01*
X149252857Y-108315600D01*
X149252858Y-108315600D01*
X149349889Y-108275408D01*
X149789308Y-107835989D01*
X149829500Y-107738958D01*
X149829500Y-107633933D01*
X149829500Y-106484642D01*
X149789308Y-106387611D01*
X149757318Y-106355621D01*
X149715045Y-106313347D01*
X149400688Y-105998991D01*
X149343849Y-105975447D01*
X149303658Y-105958800D01*
X149303657Y-105958800D01*
X148637205Y-105958800D01*
X148579014Y-105939893D01*
X148543050Y-105890393D01*
X148543050Y-105829207D01*
X148548995Y-105814855D01*
X148555634Y-105801824D01*
X148607999Y-105699054D01*
X148628043Y-105572499D01*
X148629262Y-105564803D01*
X148631969Y-105565231D01*
X148646950Y-105519125D01*
X148657037Y-105507314D01*
X148658809Y-105505543D01*
X148699001Y-105408512D01*
X148699001Y-105303487D01*
X148699001Y-104773001D01*
X149118827Y-104773001D01*
X149137425Y-104902357D01*
X149137426Y-104902360D01*
X149137426Y-104902361D01*
X149137427Y-104902363D01*
X149189509Y-105016407D01*
X149191720Y-105021249D01*
X149227453Y-105062486D01*
X149277306Y-105120020D01*
X149343402Y-105162497D01*
X149380272Y-105186192D01*
X149387253Y-105190678D01*
X149512654Y-105227499D01*
X149512655Y-105227499D01*
X149643347Y-105227499D01*
X149643348Y-105227499D01*
X149768749Y-105190678D01*
X149878696Y-105120020D01*
X149964283Y-105021247D01*
X150018575Y-104902363D01*
X150018576Y-104902357D01*
X150037175Y-104773001D01*
X150037175Y-104772996D01*
X150018576Y-104643640D01*
X150018575Y-104643637D01*
X150018575Y-104643635D01*
X149964283Y-104524751D01*
X149964281Y-104524749D01*
X149964281Y-104524748D01*
X149906513Y-104458081D01*
X149878696Y-104425978D01*
X149843162Y-104403142D01*
X149768753Y-104355322D01*
X149768750Y-104355321D01*
X149768749Y-104355320D01*
X149706048Y-104336909D01*
X149643349Y-104318499D01*
X149643348Y-104318499D01*
X149512654Y-104318499D01*
X149512652Y-104318499D01*
X149387253Y-104355320D01*
X149387248Y-104355322D01*
X149277310Y-104425975D01*
X149277305Y-104425979D01*
X149191720Y-104524748D01*
X149137426Y-104643637D01*
X149137425Y-104643640D01*
X149118827Y-104772996D01*
X149118827Y-104773001D01*
X148699001Y-104773001D01*
X148699001Y-102972157D01*
X148717908Y-102913966D01*
X148727991Y-102902160D01*
X149011276Y-102618874D01*
X149065791Y-102591098D01*
X149126223Y-102600669D01*
X149169488Y-102643934D01*
X149172742Y-102650993D01*
X149211036Y-102743442D01*
X149220646Y-102766642D01*
X149309527Y-102882473D01*
X149425358Y-102971354D01*
X149560247Y-103027227D01*
X149668812Y-103041519D01*
X149705000Y-103046284D01*
X149705001Y-103046284D01*
X149705002Y-103046284D01*
X149733951Y-103042472D01*
X149849755Y-103027227D01*
X149984644Y-102971354D01*
X150100475Y-102882473D01*
X150189356Y-102766642D01*
X150245229Y-102631753D01*
X150245229Y-102631752D01*
X150247712Y-102625758D01*
X150249292Y-102626412D01*
X150278122Y-102582001D01*
X150335240Y-102560064D01*
X150373135Y-102565482D01*
X150448003Y-102591680D01*
X150478323Y-102594523D01*
X150478327Y-102594524D01*
X150478333Y-102594524D01*
X150959628Y-102594524D01*
X151017819Y-102613431D01*
X151053783Y-102662931D01*
X151053783Y-102724117D01*
X151047836Y-102738472D01*
X151045303Y-102743442D01*
X151045302Y-102743445D01*
X151033430Y-102818406D01*
X151025258Y-102870000D01*
X151027233Y-102882473D01*
X151045302Y-102996554D01*
X151045304Y-102996561D01*
X151070640Y-103046284D01*
X151103474Y-103110723D01*
X151194077Y-103201326D01*
X151194079Y-103201327D01*
X151194081Y-103201328D01*
X151308238Y-103259495D01*
X151308240Y-103259495D01*
X151308245Y-103259498D01*
X151434800Y-103279542D01*
X151561355Y-103259498D01*
X151675523Y-103201326D01*
X151766126Y-103110723D01*
X151824298Y-102996555D01*
X151844342Y-102870000D01*
X151824298Y-102743445D01*
X151821048Y-102737068D01*
X151811475Y-102676638D01*
X151839251Y-102622120D01*
X151893766Y-102594340D01*
X151899991Y-102593556D01*
X151919999Y-102591680D01*
X152047727Y-102546986D01*
X152156606Y-102466629D01*
X152236963Y-102357750D01*
X152281657Y-102230022D01*
X152284500Y-102199700D01*
X152284501Y-102199698D01*
X152284501Y-100788350D01*
X152284500Y-100788346D01*
X152281657Y-100758026D01*
X152236963Y-100630298D01*
X152156606Y-100521419D01*
X152047727Y-100441062D01*
X152047726Y-100441061D01*
X151920002Y-100396369D01*
X151920001Y-100396368D01*
X151919999Y-100396368D01*
X151919996Y-100396367D01*
X151919993Y-100396367D01*
X151889678Y-100393524D01*
X151889669Y-100393524D01*
X151856483Y-100393524D01*
X151798292Y-100374617D01*
X151762328Y-100325117D01*
X151762328Y-100263931D01*
X151798292Y-100214431D01*
X151809364Y-100207456D01*
X151952352Y-100130074D01*
X151952358Y-100130070D01*
X151982798Y-100106376D01*
X151272584Y-99396162D01*
X151357695Y-99373357D01*
X151460307Y-99314114D01*
X151544091Y-99230330D01*
X151603334Y-99127718D01*
X151626139Y-99042607D01*
X152335188Y-99751656D01*
X152419481Y-99622638D01*
X152419486Y-99622629D01*
X152512680Y-99410164D01*
X152512681Y-99410161D01*
X152569639Y-99185244D01*
X152588798Y-98954024D01*
X152569639Y-98722803D01*
X152512681Y-98497886D01*
X152512680Y-98497883D01*
X152419486Y-98285418D01*
X152419481Y-98285409D01*
X152335188Y-98156390D01*
X151626139Y-98865438D01*
X151603334Y-98780330D01*
X151544091Y-98677718D01*
X151460307Y-98593934D01*
X151357695Y-98534691D01*
X151272582Y-98511885D01*
X151982798Y-97801670D01*
X151952356Y-97777976D01*
X151952353Y-97777974D01*
X151748305Y-97667548D01*
X151605170Y-97618410D01*
X151556271Y-97581632D01*
X151538329Y-97523137D01*
X151558195Y-97465267D01*
X151601550Y-97432460D01*
X151676638Y-97403372D01*
X151850042Y-97296005D01*
X152000765Y-97158603D01*
X152123674Y-96995845D01*
X152214583Y-96813274D01*
X152270398Y-96617107D01*
X152289216Y-96414024D01*
X152270398Y-96210941D01*
X152214583Y-96014774D01*
X152123674Y-95832203D01*
X152000765Y-95669445D01*
X151850042Y-95532043D01*
X151676638Y-95424676D01*
X151486457Y-95351000D01*
X151486456Y-95350999D01*
X151486454Y-95350999D01*
X151285977Y-95313524D01*
X151082025Y-95313524D01*
X150881547Y-95350999D01*
X150811633Y-95378083D01*
X150691364Y-95424676D01*
X150517960Y-95532043D01*
X150367237Y-95669445D01*
X150342921Y-95701645D01*
X150244329Y-95832201D01*
X150244324Y-95832210D01*
X150153420Y-96014771D01*
X150153419Y-96014774D01*
X150097604Y-96210941D01*
X150078786Y-96414024D01*
X150097604Y-96617107D01*
X150153419Y-96813274D01*
X150244328Y-96995845D01*
X150367237Y-97158603D01*
X150517960Y-97296005D01*
X150691364Y-97403372D01*
X150766449Y-97432459D01*
X150813880Y-97471110D01*
X150829534Y-97530259D01*
X150807432Y-97587313D01*
X150762832Y-97618410D01*
X150619695Y-97667549D01*
X150415647Y-97777975D01*
X150415638Y-97777980D01*
X150385202Y-97801669D01*
X150385202Y-97801670D01*
X151095417Y-98511885D01*
X151010307Y-98534691D01*
X150907695Y-98593934D01*
X150823911Y-98677718D01*
X150764668Y-98780330D01*
X150741862Y-98865440D01*
X150032813Y-98156391D01*
X149948518Y-98285414D01*
X149855319Y-98497886D01*
X149798362Y-98722803D01*
X149779203Y-98954024D01*
X149798362Y-99185244D01*
X149855320Y-99410161D01*
X149855321Y-99410164D01*
X149948515Y-99622629D01*
X149948520Y-99622638D01*
X150032812Y-99751656D01*
X150741862Y-99042605D01*
X150764668Y-99127718D01*
X150823911Y-99230330D01*
X150907695Y-99314114D01*
X151010307Y-99373357D01*
X151095415Y-99396162D01*
X150385202Y-100106375D01*
X150385202Y-100106376D01*
X150415644Y-100130070D01*
X150415648Y-100130073D01*
X150558638Y-100207456D01*
X150600816Y-100251781D01*
X150608886Y-100312431D01*
X150579765Y-100366242D01*
X150524576Y-100392659D01*
X150511519Y-100393524D01*
X150478323Y-100393524D01*
X150448008Y-100396367D01*
X150447999Y-100396369D01*
X150320275Y-100441061D01*
X150211397Y-100521418D01*
X150211395Y-100521420D01*
X150131038Y-100630298D01*
X150086346Y-100758022D01*
X150086344Y-100758031D01*
X150083501Y-100788346D01*
X150083501Y-101131024D01*
X150064594Y-101189215D01*
X150015094Y-101225179D01*
X149984501Y-101230024D01*
X149710263Y-101230024D01*
X149622626Y-101266325D01*
X149613231Y-101270216D01*
X148626488Y-102256959D01*
X148571971Y-102284736D01*
X148511539Y-102275165D01*
X148468274Y-102231900D01*
X148458703Y-102202442D01*
X148458269Y-102199701D01*
X148443499Y-102106444D01*
X148443496Y-102106439D01*
X148443496Y-102106437D01*
X148385329Y-101992280D01*
X148385328Y-101992278D01*
X148385327Y-101992276D01*
X148294724Y-101901673D01*
X148294721Y-101901671D01*
X148294719Y-101901670D01*
X148180562Y-101843503D01*
X148180557Y-101843501D01*
X148180556Y-101843501D01*
X148054001Y-101823457D01*
X147927446Y-101843501D01*
X147927439Y-101843503D01*
X147813282Y-101901670D01*
X147813280Y-101901671D01*
X147722673Y-101992278D01*
X147664678Y-102106099D01*
X147621413Y-102149363D01*
X147560981Y-102158934D01*
X147506465Y-102131156D01*
X147496377Y-102119345D01*
X147496329Y-102119279D01*
X147496328Y-102119278D01*
X147496327Y-102119276D01*
X147405724Y-102028673D01*
X147405721Y-102028671D01*
X147405719Y-102028670D01*
X147291562Y-101970503D01*
X147291557Y-101970501D01*
X147291556Y-101970501D01*
X147165001Y-101950457D01*
X147038446Y-101970501D01*
X147038439Y-101970503D01*
X146924282Y-102028670D01*
X146924276Y-102028674D01*
X146884336Y-102068614D01*
X146829819Y-102096391D01*
X146769387Y-102086819D01*
X146726123Y-102043554D01*
X146716055Y-102010543D01*
X146715096Y-102002644D01*
X146707141Y-101937127D01*
X146646819Y-101778069D01*
X146550184Y-101638070D01*
X146541080Y-101630005D01*
X146454965Y-101553714D01*
X146422853Y-101525265D01*
X146272226Y-101446209D01*
X146272225Y-101446208D01*
X146272224Y-101446208D01*
X146107059Y-101405499D01*
X146107057Y-101405499D01*
X145936945Y-101405499D01*
X145936942Y-101405499D01*
X145771777Y-101446208D01*
X145621147Y-101525266D01*
X145561650Y-101577976D01*
X145505556Y-101602411D01*
X145445812Y-101589208D01*
X145405238Y-101543410D01*
X145397001Y-101503873D01*
X145397001Y-101113357D01*
X145415908Y-101055166D01*
X145425991Y-101043360D01*
X145703242Y-100766108D01*
X145757757Y-100738332D01*
X145796934Y-100739989D01*
X145936945Y-100774499D01*
X145936948Y-100774499D01*
X146107054Y-100774499D01*
X146107057Y-100774499D01*
X146272226Y-100733789D01*
X146422853Y-100654733D01*
X146550184Y-100541928D01*
X146646819Y-100401929D01*
X146707141Y-100242871D01*
X146727646Y-100073999D01*
X146707141Y-99905127D01*
X146646819Y-99746069D01*
X146550184Y-99606070D01*
X146422853Y-99493265D01*
X146272226Y-99414209D01*
X146272225Y-99414208D01*
X146272224Y-99414208D01*
X146107059Y-99373499D01*
X146107057Y-99373499D01*
X145936945Y-99373499D01*
X145936942Y-99373499D01*
X145771777Y-99414208D01*
X145621147Y-99493266D01*
X145493819Y-99606068D01*
X145493817Y-99606071D01*
X145482388Y-99622629D01*
X145397183Y-99746069D01*
X145336861Y-99905127D01*
X145316356Y-100073999D01*
X145336861Y-100242871D01*
X145340240Y-100251781D01*
X145353460Y-100286640D01*
X145356415Y-100347754D01*
X145330897Y-100391748D01*
X145076005Y-100646641D01*
X145021488Y-100674419D01*
X144961056Y-100664848D01*
X144935997Y-100646642D01*
X144681104Y-100391749D01*
X144653327Y-100337232D01*
X144658542Y-100286638D01*
X144675141Y-100242871D01*
X144695646Y-100073999D01*
X144675141Y-99905127D01*
X144614819Y-99746069D01*
X144518184Y-99606070D01*
X144518180Y-99606066D01*
X144518177Y-99606063D01*
X144425125Y-99523626D01*
X144394106Y-99470887D01*
X144400012Y-99409987D01*
X144440585Y-99364189D01*
X144490774Y-99350524D01*
X144576093Y-99350524D01*
X144576093Y-99350523D01*
X144659382Y-99328206D01*
X144659383Y-99328206D01*
X144659383Y-99328205D01*
X144659386Y-99328205D01*
X144734066Y-99285089D01*
X146309466Y-97709689D01*
X146352582Y-97635009D01*
X146374901Y-97551715D01*
X146374901Y-97465483D01*
X146374901Y-97324078D01*
X146393808Y-97265887D01*
X146427893Y-97236418D01*
X146448253Y-97225733D01*
X146575584Y-97112928D01*
X146672219Y-96972929D01*
X146732541Y-96813871D01*
X146753046Y-96644999D01*
X146732541Y-96476127D01*
X146672219Y-96317069D01*
X146575584Y-96177070D01*
X146448253Y-96064265D01*
X146297626Y-95985209D01*
X146297625Y-95985208D01*
X146297624Y-95985208D01*
X146132459Y-95944499D01*
X146132457Y-95944499D01*
X145962345Y-95944499D01*
X145962342Y-95944499D01*
X145797177Y-95985208D01*
X145646547Y-96064266D01*
X145519219Y-96177068D01*
X145519218Y-96177070D01*
X145422583Y-96317069D01*
X145362261Y-96476127D01*
X145341756Y-96644999D01*
X145362261Y-96813871D01*
X145422583Y-96972929D01*
X145519218Y-97112928D01*
X145646549Y-97225733D01*
X145666908Y-97236418D01*
X145709647Y-97280201D01*
X145719901Y-97324078D01*
X145719901Y-97331936D01*
X145700994Y-97390127D01*
X145690905Y-97401940D01*
X144426317Y-98666528D01*
X144371800Y-98694305D01*
X144356313Y-98695524D01*
X141022479Y-98695524D01*
X140964288Y-98676617D01*
X140943941Y-98656795D01*
X140921500Y-98627550D01*
X140921498Y-98627548D01*
X140921497Y-98627547D01*
X140855908Y-98577219D01*
X140805669Y-98538669D01*
X140796065Y-98534691D01*
X140670782Y-98482797D01*
X140670784Y-98482797D01*
X140670780Y-98482796D01*
X140670778Y-98482795D01*
X140670776Y-98482795D01*
X140526027Y-98463739D01*
X140526025Y-98463739D01*
X140381275Y-98482795D01*
X140381270Y-98482797D01*
X140246385Y-98538668D01*
X140130553Y-98627549D01*
X140130551Y-98627551D01*
X140041670Y-98743383D01*
X139985799Y-98878267D01*
X139985797Y-98878273D01*
X139966741Y-99023023D01*
X139966741Y-99023024D01*
X139972792Y-99068991D01*
X139985798Y-99167778D01*
X140011708Y-99230330D01*
X140034389Y-99285088D01*
X140041671Y-99302667D01*
X140130552Y-99418498D01*
X140246383Y-99507379D01*
X140381272Y-99563252D01*
X140489837Y-99577544D01*
X140526025Y-99582309D01*
X140526026Y-99582309D01*
X140526027Y-99582309D01*
X140554976Y-99578497D01*
X140670780Y-99563252D01*
X140805669Y-99507379D01*
X140921500Y-99418498D01*
X140921501Y-99418495D01*
X140921504Y-99418494D01*
X140943940Y-99389256D01*
X140994365Y-99354601D01*
X141022481Y-99350524D01*
X143489228Y-99350524D01*
X143547419Y-99369431D01*
X143583383Y-99418931D01*
X143583383Y-99480117D01*
X143554877Y-99523626D01*
X143461824Y-99606063D01*
X143461817Y-99606071D01*
X143450388Y-99622629D01*
X143365183Y-99746069D01*
X143304861Y-99905127D01*
X143284356Y-100073999D01*
X143304861Y-100242871D01*
X143365183Y-100401929D01*
X143450449Y-100525457D01*
X143461817Y-100541926D01*
X143461819Y-100541929D01*
X143466629Y-100546190D01*
X143589149Y-100654733D01*
X143739776Y-100733789D01*
X143904945Y-100774499D01*
X143904948Y-100774499D01*
X144075054Y-100774499D01*
X144075057Y-100774499D01*
X144197082Y-100744423D01*
X144215064Y-100739991D01*
X144276089Y-100744423D01*
X144308760Y-100766110D01*
X144586005Y-101043355D01*
X144613782Y-101097872D01*
X144615001Y-101113359D01*
X144615001Y-101503873D01*
X144596094Y-101562064D01*
X144546594Y-101598028D01*
X144485408Y-101598028D01*
X144450352Y-101577976D01*
X144390854Y-101525266D01*
X144390853Y-101525265D01*
X144240226Y-101446209D01*
X144240225Y-101446208D01*
X144240224Y-101446208D01*
X144075059Y-101405499D01*
X144075057Y-101405499D01*
X143904945Y-101405499D01*
X143904942Y-101405499D01*
X143739777Y-101446208D01*
X143589147Y-101525266D01*
X143461819Y-101638068D01*
X143461817Y-101638071D01*
X143379019Y-101758024D01*
X143365183Y-101778069D01*
X143304861Y-101937127D01*
X143300809Y-101970501D01*
X143284356Y-102105997D01*
X143284356Y-102106000D01*
X143287411Y-102131156D01*
X143304861Y-102274871D01*
X143365183Y-102433929D01*
X143455989Y-102565483D01*
X143461817Y-102573926D01*
X143461819Y-102573929D01*
X143474420Y-102585092D01*
X143589149Y-102686733D01*
X143739776Y-102765789D01*
X143904945Y-102806499D01*
X143904948Y-102806499D01*
X144075054Y-102806499D01*
X144075057Y-102806499D01*
X144209075Y-102773467D01*
X144215064Y-102771991D01*
X144276089Y-102776423D01*
X144308760Y-102798110D01*
X144332005Y-102821355D01*
X144359782Y-102875872D01*
X144361001Y-102891359D01*
X144361001Y-103189943D01*
X144342094Y-103248134D01*
X144292594Y-103284098D01*
X144231408Y-103284098D01*
X144191999Y-103259948D01*
X144103724Y-103171673D01*
X144103721Y-103171671D01*
X144103719Y-103171670D01*
X143989562Y-103113503D01*
X143989557Y-103113501D01*
X143989556Y-103113501D01*
X143863001Y-103093457D01*
X143736446Y-103113501D01*
X143736439Y-103113503D01*
X143622282Y-103171670D01*
X143622280Y-103171671D01*
X143531673Y-103262278D01*
X143531672Y-103262280D01*
X143473505Y-103376437D01*
X143473503Y-103376444D01*
X143458627Y-103470372D01*
X143453459Y-103502999D01*
X143468120Y-103595569D01*
X143473503Y-103629553D01*
X143473504Y-103629557D01*
X143480335Y-103642963D01*
X143489907Y-103703395D01*
X143462130Y-103757912D01*
X143407614Y-103785690D01*
X143347181Y-103776119D01*
X143322122Y-103757913D01*
X142765535Y-103201326D01*
X142208400Y-102644191D01*
X142208398Y-102644190D01*
X142208397Y-102644189D01*
X142145673Y-102618208D01*
X142111369Y-102603999D01*
X142111368Y-102603999D01*
X135504362Y-102603999D01*
X135446171Y-102585092D01*
X135434358Y-102575003D01*
X134678937Y-101819582D01*
X134651160Y-101765065D01*
X134660731Y-101704633D01*
X134703996Y-101661368D01*
X134723314Y-101653952D01*
X134812679Y-101630007D01*
X134812681Y-101630005D01*
X134812683Y-101630005D01*
X134944817Y-101553717D01*
X134944817Y-101553716D01*
X134944822Y-101553714D01*
X135052716Y-101445820D01*
X135052719Y-101445815D01*
X135129007Y-101313681D01*
X135129007Y-101313679D01*
X135129009Y-101313677D01*
X135168501Y-101166292D01*
X135168501Y-101013706D01*
X135147411Y-100934999D01*
X140151459Y-100934999D01*
X140168620Y-101043354D01*
X140171503Y-101061553D01*
X140171505Y-101061560D01*
X140224870Y-101166292D01*
X140229675Y-101175722D01*
X140320278Y-101266325D01*
X140320280Y-101266326D01*
X140320282Y-101266327D01*
X140434439Y-101324494D01*
X140434441Y-101324494D01*
X140434446Y-101324497D01*
X140561001Y-101344541D01*
X140687556Y-101324497D01*
X140801724Y-101266325D01*
X140892327Y-101175722D01*
X140950499Y-101061554D01*
X140970543Y-100934999D01*
X140950499Y-100808444D01*
X140950496Y-100808439D01*
X140950496Y-100808437D01*
X140892329Y-100694280D01*
X140892328Y-100694278D01*
X140892327Y-100694276D01*
X140801724Y-100603673D01*
X140801721Y-100603671D01*
X140801719Y-100603670D01*
X140687562Y-100545503D01*
X140687557Y-100545501D01*
X140687556Y-100545501D01*
X140561001Y-100525457D01*
X140434446Y-100545501D01*
X140434439Y-100545503D01*
X140320282Y-100603670D01*
X140320280Y-100603671D01*
X140229673Y-100694278D01*
X140229672Y-100694280D01*
X140171505Y-100808437D01*
X140171503Y-100808444D01*
X140151459Y-100934999D01*
X135147411Y-100934999D01*
X135129009Y-100866321D01*
X135129007Y-100866317D01*
X135129007Y-100866316D01*
X135052719Y-100734182D01*
X135052717Y-100734180D01*
X135052716Y-100734178D01*
X134944822Y-100626284D01*
X134944819Y-100626282D01*
X134908500Y-100605313D01*
X134867560Y-100559843D01*
X134859001Y-100519577D01*
X134859001Y-99959999D01*
X135359001Y-99959999D01*
X135359001Y-100659998D01*
X135359002Y-100659999D01*
X135757491Y-100659999D01*
X135757494Y-100659998D01*
X135950689Y-100621569D01*
X135950691Y-100621569D01*
X136132674Y-100546190D01*
X136132686Y-100546184D01*
X136296463Y-100436749D01*
X136296467Y-100436746D01*
X136435748Y-100297465D01*
X136435751Y-100297461D01*
X136545186Y-100133684D01*
X136545192Y-100133672D01*
X136620569Y-99951694D01*
X136620572Y-99951683D01*
X136628864Y-99909999D01*
X135825989Y-99909999D01*
X135843206Y-99900059D01*
X135899061Y-99844204D01*
X135938557Y-99775795D01*
X135959001Y-99699495D01*
X135959001Y-99620503D01*
X135938557Y-99544203D01*
X135899061Y-99475794D01*
X135843206Y-99419939D01*
X135825989Y-99409999D01*
X136628863Y-99409999D01*
X136620572Y-99368314D01*
X136620569Y-99368303D01*
X136545192Y-99186325D01*
X136545186Y-99186313D01*
X136435751Y-99022536D01*
X136435748Y-99022532D01*
X136388445Y-98975229D01*
X136360668Y-98920712D01*
X136370239Y-98860280D01*
X136388443Y-98835224D01*
X136455971Y-98767697D01*
X136514143Y-98653529D01*
X136534187Y-98526974D01*
X136514143Y-98400419D01*
X136514140Y-98400414D01*
X136514140Y-98400412D01*
X136455973Y-98286255D01*
X136455972Y-98286253D01*
X136455971Y-98286251D01*
X136365368Y-98195648D01*
X136365365Y-98195646D01*
X136365363Y-98195645D01*
X136251206Y-98137478D01*
X136251201Y-98137476D01*
X136251200Y-98137476D01*
X136124645Y-98117432D01*
X135998090Y-98137476D01*
X135998083Y-98137478D01*
X135883926Y-98195645D01*
X135883924Y-98195646D01*
X135793317Y-98286253D01*
X135793316Y-98286255D01*
X135735149Y-98400412D01*
X135735147Y-98400419D01*
X135715103Y-98526973D01*
X135715103Y-98526974D01*
X135718039Y-98545512D01*
X135708468Y-98605944D01*
X135665203Y-98649209D01*
X135620258Y-98659999D01*
X135359002Y-98659999D01*
X135359001Y-98660000D01*
X135359001Y-99359999D01*
X134859001Y-99359999D01*
X134859001Y-98873030D01*
X134877908Y-98814839D01*
X134887991Y-98803032D01*
X134923327Y-98767697D01*
X134981499Y-98653529D01*
X135001543Y-98526974D01*
X134981499Y-98400419D01*
X134981496Y-98400414D01*
X134981496Y-98400412D01*
X134923329Y-98286255D01*
X134923328Y-98286253D01*
X134923327Y-98286251D01*
X134832724Y-98195648D01*
X134832721Y-98195646D01*
X134832719Y-98195645D01*
X134718562Y-98137478D01*
X134718557Y-98137476D01*
X134718556Y-98137476D01*
X134592001Y-98117432D01*
X134465446Y-98137476D01*
X134465439Y-98137478D01*
X134351282Y-98195645D01*
X134351276Y-98195649D01*
X134312947Y-98233978D01*
X134258430Y-98261755D01*
X134242944Y-98262974D01*
X133778539Y-98262974D01*
X133673513Y-98262974D01*
X133651531Y-98272078D01*
X133576481Y-98303165D01*
X133561183Y-98318464D01*
X133506666Y-98346240D01*
X133446234Y-98336668D01*
X133402971Y-98293403D01*
X133399328Y-98286253D01*
X133399327Y-98286251D01*
X133308724Y-98195648D01*
X133308721Y-98195646D01*
X133308719Y-98195645D01*
X133194562Y-98137478D01*
X133194557Y-98137476D01*
X133194556Y-98137476D01*
X133068001Y-98117432D01*
X132941446Y-98137476D01*
X132941439Y-98137478D01*
X132827282Y-98195645D01*
X132827280Y-98195646D01*
X132736674Y-98286252D01*
X132733028Y-98293408D01*
X132689761Y-98336670D01*
X132629329Y-98346240D01*
X132574818Y-98318464D01*
X132559520Y-98303166D01*
X132559518Y-98303165D01*
X132559517Y-98303164D01*
X132496793Y-98277183D01*
X132462489Y-98262974D01*
X132462488Y-98262974D01*
X131893058Y-98262974D01*
X131834867Y-98244067D01*
X131823055Y-98233978D01*
X131784725Y-98195649D01*
X131784724Y-98195648D01*
X131784721Y-98195646D01*
X131784719Y-98195645D01*
X131670562Y-98137478D01*
X131670557Y-98137476D01*
X131670556Y-98137476D01*
X131544001Y-98117432D01*
X131417446Y-98137476D01*
X131417439Y-98137478D01*
X131303282Y-98195645D01*
X131303280Y-98195646D01*
X131212673Y-98286253D01*
X131212672Y-98286255D01*
X131154505Y-98400412D01*
X131154503Y-98400419D01*
X131134459Y-98526973D01*
X131134459Y-98526974D01*
X131155722Y-98661225D01*
X131155547Y-98661252D01*
X131159001Y-98683051D01*
X131159001Y-99359999D01*
X130659001Y-99359999D01*
X130659001Y-98660000D01*
X130659000Y-98659999D01*
X130410507Y-98659999D01*
X130217312Y-98698428D01*
X130217310Y-98698428D01*
X130035327Y-98773807D01*
X130035315Y-98773813D01*
X129871538Y-98883248D01*
X129871534Y-98883251D01*
X129732253Y-99022532D01*
X129732250Y-99022536D01*
X129622815Y-99186313D01*
X129622809Y-99186325D01*
X129547432Y-99368303D01*
X129547429Y-99368314D01*
X129539138Y-99409999D01*
X130342013Y-99409999D01*
X130324796Y-99419939D01*
X130268941Y-99475794D01*
X130229445Y-99544203D01*
X130209001Y-99620503D01*
X130209001Y-99699495D01*
X130229445Y-99775795D01*
X130268941Y-99844204D01*
X130324796Y-99900059D01*
X130342013Y-99909999D01*
X129539138Y-99909999D01*
X128424532Y-99909999D01*
X128424529Y-97192823D01*
X143015400Y-97192823D01*
X143021802Y-97252369D01*
X143021804Y-97252380D01*
X143072047Y-97387087D01*
X143072048Y-97387089D01*
X143158208Y-97502183D01*
X143158216Y-97502191D01*
X143273310Y-97588351D01*
X143273312Y-97588352D01*
X143408019Y-97638595D01*
X143408030Y-97638597D01*
X143467577Y-97644999D01*
X143765400Y-97644999D01*
X143765401Y-97644998D01*
X144265401Y-97644998D01*
X144265402Y-97644999D01*
X144563225Y-97644999D01*
X144622771Y-97638597D01*
X144622782Y-97638595D01*
X144757489Y-97588352D01*
X144757491Y-97588351D01*
X144872585Y-97502191D01*
X144872593Y-97502183D01*
X144958753Y-97387089D01*
X144958754Y-97387087D01*
X145008997Y-97252380D01*
X145008999Y-97252369D01*
X145015401Y-97192823D01*
X145015401Y-96895000D01*
X145015400Y-96894999D01*
X144265402Y-96894999D01*
X144265401Y-96895000D01*
X144265401Y-97644998D01*
X143765401Y-97644998D01*
X143765401Y-96895000D01*
X143765400Y-96894999D01*
X143015402Y-96894999D01*
X143015401Y-96895000D01*
X143015401Y-97192823D01*
X143015400Y-97192823D01*
X128424529Y-97192823D01*
X128424528Y-96394998D01*
X143015401Y-96394998D01*
X143015402Y-96394999D01*
X143765400Y-96394999D01*
X143765401Y-96394998D01*
X144265401Y-96394998D01*
X144265402Y-96394999D01*
X145015400Y-96394999D01*
X145015401Y-96394998D01*
X145015401Y-96097174D01*
X145008999Y-96037628D01*
X145008997Y-96037617D01*
X144958754Y-95902910D01*
X144958753Y-95902908D01*
X144872593Y-95787814D01*
X144872585Y-95787806D01*
X144757491Y-95701646D01*
X144757489Y-95701645D01*
X144622782Y-95651402D01*
X144622771Y-95651400D01*
X144563225Y-95644999D01*
X144265402Y-95644999D01*
X144265401Y-95645000D01*
X144265401Y-96394998D01*
X143765401Y-96394998D01*
X143765401Y-95645000D01*
X143765400Y-95644999D01*
X143467577Y-95644999D01*
X143408030Y-95651400D01*
X143408019Y-95651402D01*
X143273312Y-95701645D01*
X143273310Y-95701646D01*
X143158216Y-95787806D01*
X143158208Y-95787814D01*
X143072048Y-95902908D01*
X143072047Y-95902910D01*
X143021804Y-96037617D01*
X143021802Y-96037628D01*
X143015401Y-96097174D01*
X143015401Y-96394998D01*
X128424528Y-96394998D01*
X128424527Y-95685616D01*
X128424528Y-95685614D01*
X128424527Y-95642334D01*
X128424904Y-95633708D01*
X128438498Y-95478297D01*
X128441494Y-95461303D01*
X128471048Y-95350999D01*
X128480749Y-95314792D01*
X128486645Y-95298590D01*
X128550753Y-95161107D01*
X128559373Y-95146179D01*
X128646374Y-95021927D01*
X128657455Y-95008720D01*
X128764721Y-94901454D01*
X128777928Y-94890373D01*
X128902179Y-94803373D01*
X128917109Y-94794752D01*
X129054599Y-94730641D01*
X129070786Y-94724750D01*
X129217308Y-94685493D01*
X129234295Y-94682498D01*
X129273324Y-94679084D01*
X129389741Y-94668902D01*
X129398367Y-94668525D01*
X129441615Y-94668526D01*
X129441618Y-94668525D01*
X129449457Y-94668525D01*
X129449662Y-94668508D01*
X155447975Y-94660839D01*
X155506168Y-94679728D01*
G37*
G04 #@! TD.AperFunction*
M02*
