G04 #@! TF.GenerationSoftware,KiCad,Pcbnew,8.0.1*
G04 #@! TF.CreationDate,2024-04-19T23:10:03+02:00*
G04 #@! TF.ProjectId,esp-ir-receiver,6573702d-6972-42d7-9265-636569766572,1.0.0*
G04 #@! TF.SameCoordinates,Original*
G04 #@! TF.FileFunction,Soldermask,Top*
G04 #@! TF.FilePolarity,Negative*
%FSLAX46Y46*%
G04 Gerber Fmt 4.6, Leading zero omitted, Abs format (unit mm)*
G04 Created by KiCad (PCBNEW 8.0.1) date 2024-04-19 23:10:03*
%MOMM*%
%LPD*%
G01*
G04 APERTURE LIST*
G04 Aperture macros list*
%AMRoundRect*
0 Rectangle with rounded corners*
0 $1 Rounding radius*
0 $2 $3 $4 $5 $6 $7 $8 $9 X,Y pos of 4 corners*
0 Add a 4 corners polygon primitive as box body*
4,1,4,$2,$3,$4,$5,$6,$7,$8,$9,$2,$3,0*
0 Add four circle primitives for the rounded corners*
1,1,$1+$1,$2,$3*
1,1,$1+$1,$4,$5*
1,1,$1+$1,$6,$7*
1,1,$1+$1,$8,$9*
0 Add four rect primitives between the rounded corners*
20,1,$1+$1,$2,$3,$4,$5,0*
20,1,$1+$1,$4,$5,$6,$7,0*
20,1,$1+$1,$6,$7,$8,$9,0*
20,1,$1+$1,$8,$9,$2,$3,0*%
%AMFreePoly0*
4,1,19,0.500000,-0.750000,0.000000,-0.750000,0.000000,-0.744911,-0.071157,-0.744911,-0.207708,-0.704816,-0.327430,-0.627875,-0.420627,-0.520320,-0.479746,-0.390866,-0.500000,-0.250000,-0.500000,0.250000,-0.479746,0.390866,-0.420627,0.520320,-0.327430,0.627875,-0.207708,0.704816,-0.071157,0.744911,0.000000,0.744911,0.000000,0.750000,0.500000,0.750000,0.500000,-0.750000,0.500000,-0.750000,
$1*%
%AMFreePoly1*
4,1,19,0.000000,0.744911,0.071157,0.744911,0.207708,0.704816,0.327430,0.627875,0.420627,0.520320,0.479746,0.390866,0.500000,0.250000,0.500000,-0.250000,0.479746,-0.390866,0.420627,-0.520320,0.327430,-0.627875,0.207708,-0.704816,0.071157,-0.744911,0.000000,-0.744911,0.000000,-0.750000,-0.500000,-0.750000,-0.500000,0.750000,0.000000,0.750000,0.000000,0.744911,0.000000,0.744911,
$1*%
G04 Aperture macros list end*
%ADD10RoundRect,0.218750X-0.256250X0.218750X-0.256250X-0.218750X0.256250X-0.218750X0.256250X0.218750X0*%
%ADD11R,2.000000X1.500000*%
%ADD12R,2.000000X3.800000*%
%ADD13FreePoly0,180.000000*%
%ADD14FreePoly1,180.000000*%
%ADD15RoundRect,0.140000X0.170000X-0.140000X0.170000X0.140000X-0.170000X0.140000X-0.170000X-0.140000X0*%
%ADD16RoundRect,0.140000X-0.170000X0.140000X-0.170000X-0.140000X0.170000X-0.140000X0.170000X0.140000X0*%
%ADD17RoundRect,0.140000X0.140000X0.170000X-0.140000X0.170000X-0.140000X-0.170000X0.140000X-0.170000X0*%
%ADD18RoundRect,0.135000X-0.185000X0.135000X-0.185000X-0.135000X0.185000X-0.135000X0.185000X0.135000X0*%
%ADD19RoundRect,0.248400X0.651600X-0.651600X0.651600X0.651600X-0.651600X0.651600X-0.651600X-0.651600X0*%
%ADD20C,1.800000*%
%ADD21R,1.400000X1.200000*%
%ADD22RoundRect,0.140000X-0.140000X-0.170000X0.140000X-0.170000X0.140000X0.170000X-0.140000X0.170000X0*%
%ADD23R,0.500000X0.300000*%
%ADD24R,1.000000X0.750000*%
%ADD25RoundRect,0.147500X-0.147500X-0.172500X0.147500X-0.172500X0.147500X0.172500X-0.147500X0.172500X0*%
%ADD26RoundRect,0.135000X0.185000X-0.135000X0.185000X0.135000X-0.185000X0.135000X-0.185000X-0.135000X0*%
%ADD27R,0.500000X0.375000*%
%ADD28R,0.650000X0.300000*%
%ADD29RoundRect,0.135000X-0.135000X-0.185000X0.135000X-0.185000X0.135000X0.185000X-0.135000X0.185000X0*%
%ADD30C,0.650000*%
%ADD31R,1.240000X0.600000*%
%ADD32R,1.240000X0.300000*%
%ADD33O,2.100000X1.000000*%
%ADD34O,1.800000X1.000000*%
%ADD35RoundRect,0.147500X0.172500X-0.147500X0.172500X0.147500X-0.172500X0.147500X-0.172500X-0.147500X0*%
%ADD36RoundRect,0.050000X0.387500X0.050000X-0.387500X0.050000X-0.387500X-0.050000X0.387500X-0.050000X0*%
%ADD37RoundRect,0.050000X0.050000X0.387500X-0.050000X0.387500X-0.050000X-0.387500X0.050000X-0.387500X0*%
%ADD38R,2.600000X2.600000*%
G04 APERTURE END LIST*
D10*
X133059357Y-96238498D03*
X133059357Y-97813500D03*
D11*
X141831001Y-96644999D03*
X141831001Y-98944999D03*
X141831001Y-101244999D03*
D12*
X148131001Y-98944999D03*
D10*
X136116001Y-96238498D03*
X136116001Y-97813500D03*
D13*
X139941001Y-112392999D03*
D14*
X138641001Y-112392999D03*
D15*
X149959001Y-111701999D03*
X149959001Y-110741999D03*
D16*
X150703003Y-107211999D03*
X150703003Y-108171999D03*
D15*
X143340505Y-113877999D03*
X143340505Y-112917999D03*
D17*
X142819001Y-105661999D03*
X141859001Y-105661999D03*
D18*
X144536001Y-102992999D03*
X144536001Y-104012999D03*
D10*
X134592001Y-96238498D03*
X134592001Y-97813500D03*
D19*
X151184001Y-101494024D03*
D20*
X151184001Y-98954024D03*
X151184001Y-96414024D03*
D21*
X147064505Y-112177999D03*
X144864505Y-112177999D03*
X144864505Y-113877999D03*
X147064505Y-113877999D03*
D16*
X148547505Y-112390999D03*
X148547505Y-113350999D03*
D22*
X149743002Y-105279000D03*
X150703002Y-105279000D03*
X137950001Y-108695999D03*
X138910001Y-108695999D03*
X148082001Y-110741999D03*
X149042001Y-110741999D03*
X149743002Y-103247000D03*
X150703002Y-103247000D03*
D10*
X131544001Y-96238498D03*
X131544001Y-97813500D03*
D23*
X137894001Y-106265999D03*
X137894001Y-105565999D03*
D22*
X139883001Y-105661999D03*
X140843001Y-105661999D03*
D16*
X151483001Y-109723999D03*
X151483001Y-110683999D03*
D18*
X138910001Y-101469000D03*
X138910001Y-102488998D03*
D17*
X150703003Y-106294999D03*
X149743003Y-106294999D03*
D16*
X145552001Y-103022999D03*
X145552001Y-103982999D03*
D24*
X130116001Y-110263999D03*
X136116001Y-110263999D03*
X130116001Y-114013999D03*
X136116001Y-114013999D03*
D15*
X139926001Y-99023024D03*
X139926001Y-98063024D03*
D16*
X146568001Y-103022999D03*
X146568001Y-103982999D03*
D17*
X150703003Y-104262999D03*
X149743003Y-104262999D03*
D25*
X152434842Y-109723999D03*
X153404842Y-109723999D03*
D26*
X138910001Y-106665999D03*
X138910001Y-105645999D03*
D27*
X138011974Y-103502999D03*
D28*
X137936974Y-104040499D03*
D27*
X138011974Y-104577999D03*
X139711974Y-104577999D03*
D28*
X139786974Y-104040499D03*
D27*
X139711974Y-103502999D03*
D18*
X141859001Y-106676000D03*
X141859001Y-107696000D03*
D26*
X137894001Y-97152999D03*
X137894001Y-96133001D03*
D18*
X137894001Y-98040000D03*
X137894001Y-99059998D03*
X138910001Y-98040000D03*
X138910001Y-99059998D03*
D23*
X137886974Y-101882999D03*
X137886974Y-102582999D03*
D26*
X138910001Y-97154998D03*
X138910001Y-96135000D03*
D18*
X148600001Y-102992999D03*
X148600001Y-104012999D03*
D29*
X151646001Y-103246999D03*
X152666001Y-103246999D03*
D30*
X134589001Y-101089999D03*
X134589001Y-106869999D03*
D31*
X135709001Y-100779999D03*
X135709001Y-101579999D03*
D32*
X135709001Y-102729999D03*
X135709001Y-103729999D03*
X135709001Y-104229999D03*
X135709001Y-105229999D03*
D31*
X135709001Y-106379999D03*
X135709001Y-107179999D03*
X135709001Y-107179999D03*
X135709001Y-106379999D03*
D32*
X135709001Y-105729999D03*
X135709001Y-104729999D03*
X135709001Y-103229999D03*
X135709001Y-102229999D03*
D31*
X135709001Y-101579999D03*
X135709001Y-100779999D03*
D33*
X135109001Y-99659999D03*
D34*
X130909001Y-99659999D03*
D33*
X135109001Y-108299999D03*
D34*
X130909001Y-108299999D03*
D35*
X149743001Y-108176998D03*
X149743001Y-107206998D03*
D36*
X148054001Y-108710000D03*
X148054001Y-108309999D03*
X148054001Y-107909999D03*
X148054000Y-107509999D03*
X148054001Y-107109999D03*
X148054001Y-106709999D03*
X148054001Y-106309998D03*
D37*
X147316502Y-105572499D03*
X146916501Y-105572499D03*
X146516501Y-105572499D03*
X146116501Y-105572500D03*
X145716501Y-105572499D03*
X145316501Y-105572499D03*
X144916500Y-105572499D03*
D36*
X144179001Y-106309998D03*
X144179001Y-106709999D03*
X144179001Y-107109999D03*
X144179002Y-107509999D03*
X144179001Y-107909999D03*
X144179001Y-108309999D03*
X144179001Y-108710000D03*
D37*
X144916500Y-109447499D03*
X145316501Y-109447499D03*
X145716501Y-109447499D03*
X146116501Y-109447498D03*
X146516501Y-109447499D03*
X146916501Y-109447499D03*
X147316502Y-109447499D03*
D38*
X146116501Y-107509999D03*
D15*
X139926001Y-100934999D03*
X139926001Y-99974999D03*
D16*
X142875000Y-106706000D03*
X142875000Y-107666000D03*
D26*
X147584001Y-104012999D03*
X147584001Y-102992999D03*
D18*
X140843000Y-106676000D03*
X140843000Y-107696000D03*
D16*
X154356683Y-109723999D03*
X154356683Y-110683999D03*
D22*
X137950001Y-107679999D03*
X138910001Y-107679999D03*
X151676001Y-104262999D03*
X152636001Y-104262999D03*
M02*
