%TF.GenerationSoftware,KiCad,Pcbnew,8.0.1*%
%TF.CreationDate,2024-04-19T23:10:09+02:00*%
%TF.ProjectId,esp-ir-receiver,6573702d-6972-42d7-9265-636569766572,1.0.0*%
%TF.SameCoordinates,Original*%
%TF.FileFunction,Drillmap*%
%TF.FilePolarity,Positive*%
%FSLAX45Y45*%
G04 Gerber Fmt 4.5, Leading zero omitted, Abs format (unit mm)*
G04 Created by KiCad (PCBNEW 8.0.1) date 2024-04-19 23:10:09*
%MOMM*%
%LPD*%
G01*
G04 APERTURE LIST*
%ADD10C,0.100000*%
%ADD11C,0.200000*%
G04 APERTURE END LIST*
D10*
X12812405Y-11454297D02*
X12812403Y-9563803D01*
X16125297Y-11454297D02*
G75*
G02*
X15998297Y-11581297I-126998J-3D01*
G01*
X15999200Y-9435900D02*
G75*
G02*
X16126200Y-9562900I0J-127000D01*
G01*
X12812403Y-9563803D02*
G75*
G02*
X12939403Y-9436803I126997J3D01*
G01*
X16126200Y-9562900D02*
X16125297Y-11454297D01*
X12939403Y-9436803D02*
X15999200Y-9435900D01*
X15998297Y-11581297D02*
X12939405Y-11581297D01*
X12939405Y-11581297D02*
G75*
G02*
X12812403Y-11454297I-15J126987D01*
G01*
D11*
D10*
X12860000Y-9611400D02*
X12890000Y-9641400D01*
X12890000Y-9611400D02*
X12860000Y-9641400D01*
X12860000Y-9738400D02*
X12890000Y-9768400D01*
X12890000Y-9738400D02*
X12860000Y-9768400D01*
X12860000Y-9865400D02*
X12890000Y-9895400D01*
X12890000Y-9865400D02*
X12860000Y-9895400D01*
X12860000Y-9992400D02*
X12890000Y-10022400D01*
X12890000Y-9992400D02*
X12860000Y-10022400D01*
X12860000Y-10119400D02*
X12890000Y-10149400D01*
X12890000Y-10119400D02*
X12860000Y-10149400D01*
X12860000Y-10246400D02*
X12890000Y-10276400D01*
X12890000Y-10246400D02*
X12860000Y-10276400D01*
X12860000Y-10373400D02*
X12890000Y-10403400D01*
X12890000Y-10373400D02*
X12860000Y-10403400D01*
X12860000Y-10500400D02*
X12890000Y-10530400D01*
X12890000Y-10500400D02*
X12860000Y-10530400D01*
X12860000Y-10627400D02*
X12890000Y-10657400D01*
X12890000Y-10627400D02*
X12860000Y-10657400D01*
X12860000Y-10754400D02*
X12890000Y-10784400D01*
X12890000Y-10754400D02*
X12860000Y-10784400D01*
X12860000Y-10881400D02*
X12890000Y-10911400D01*
X12890000Y-10881400D02*
X12860000Y-10911400D01*
X12860000Y-11008400D02*
X12890000Y-11038400D01*
X12890000Y-11008400D02*
X12860000Y-11038400D01*
X12860000Y-11135400D02*
X12890000Y-11165400D01*
X12890000Y-11135400D02*
X12860000Y-11165400D01*
X12860000Y-11262400D02*
X12890000Y-11292400D01*
X12890000Y-11262400D02*
X12860000Y-11292400D01*
X12860000Y-11389400D02*
X12890000Y-11419400D01*
X12890000Y-11389400D02*
X12860000Y-11419400D01*
X12961600Y-9484400D02*
X12991600Y-9514400D01*
X12991600Y-9484400D02*
X12961600Y-9514400D01*
X12961600Y-9611400D02*
X12991600Y-9641400D01*
X12991600Y-9611400D02*
X12961600Y-9641400D01*
X12961600Y-9738400D02*
X12991600Y-9768400D01*
X12991600Y-9738400D02*
X12961600Y-9768400D01*
X12961600Y-11503700D02*
X12991600Y-11533700D01*
X12991600Y-11503700D02*
X12961600Y-11533700D01*
X13075900Y-9484400D02*
X13105900Y-9514400D01*
X13105900Y-9484400D02*
X13075900Y-9514400D01*
X13088600Y-10246400D02*
X13118600Y-10276400D01*
X13118600Y-10246400D02*
X13088600Y-10276400D01*
X13088600Y-10500400D02*
X13118600Y-10530400D01*
X13118600Y-10500400D02*
X13088600Y-10530400D01*
X13088600Y-11503700D02*
X13118600Y-11533700D01*
X13118600Y-11503700D02*
X13088600Y-11533700D01*
X13139400Y-9837697D02*
X13169400Y-9867697D01*
X13169400Y-9837697D02*
X13139400Y-9867697D01*
X13215600Y-9484400D02*
X13245600Y-9514400D01*
X13245600Y-9484400D02*
X13215600Y-9514400D01*
X13215600Y-11135400D02*
X13245600Y-11165400D01*
X13245600Y-11135400D02*
X13215600Y-11165400D01*
X13215600Y-11389400D02*
X13245600Y-11419400D01*
X13245600Y-11389400D02*
X13215600Y-11419400D01*
X13215600Y-11503700D02*
X13245600Y-11533700D01*
X13245600Y-11503700D02*
X13215600Y-11533700D01*
X13291800Y-9837697D02*
X13321800Y-9867697D01*
X13321800Y-9837697D02*
X13291800Y-9867697D01*
X13332700Y-10246600D02*
X13362700Y-10276600D01*
X13362700Y-10246600D02*
X13332700Y-10276600D01*
X13332700Y-10500600D02*
X13362700Y-10530600D01*
X13362700Y-10500600D02*
X13332700Y-10530600D01*
X13342600Y-9484400D02*
X13372600Y-9514400D01*
X13372600Y-9484400D02*
X13342600Y-9514400D01*
X13342600Y-11503700D02*
X13372600Y-11533700D01*
X13372600Y-11503700D02*
X13342600Y-11533700D01*
X13444200Y-9837697D02*
X13474200Y-9867697D01*
X13474200Y-9837697D02*
X13444200Y-9867697D01*
X13469600Y-9484400D02*
X13499600Y-9514400D01*
X13499600Y-9484400D02*
X13469600Y-9514400D01*
X13469600Y-11135400D02*
X13499600Y-11165400D01*
X13499600Y-11135400D02*
X13469600Y-11165400D01*
X13469600Y-11389400D02*
X13499600Y-11419400D01*
X13499600Y-11389400D02*
X13469600Y-11419400D01*
X13469600Y-11503700D02*
X13499600Y-11533700D01*
X13499600Y-11503700D02*
X13469600Y-11533700D01*
X13596600Y-9484400D02*
X13626600Y-9514400D01*
X13626600Y-9484400D02*
X13596600Y-9514400D01*
X13596600Y-11503700D02*
X13626600Y-11533700D01*
X13626600Y-11503700D02*
X13596600Y-11533700D01*
X13597464Y-9837697D02*
X13627464Y-9867697D01*
X13627464Y-9837697D02*
X13597464Y-9867697D01*
X13669800Y-11011400D02*
X13699800Y-11041400D01*
X13699800Y-11011400D02*
X13669800Y-11041400D01*
X13672800Y-10208300D02*
X13702800Y-10238300D01*
X13702800Y-10208300D02*
X13672800Y-10238300D01*
X13672800Y-10614700D02*
X13702800Y-10644700D01*
X13702800Y-10614700D02*
X13672800Y-10644700D01*
X13698200Y-10386100D02*
X13728200Y-10416100D01*
X13728200Y-10386100D02*
X13698200Y-10416100D01*
X13723600Y-9484400D02*
X13753600Y-9514400D01*
X13753600Y-9484400D02*
X13723600Y-9514400D01*
X13723600Y-11135400D02*
X13753600Y-11165400D01*
X13753600Y-11135400D02*
X13723600Y-11165400D01*
X13723600Y-11389400D02*
X13753600Y-11419400D01*
X13753600Y-11389400D02*
X13723600Y-11419400D01*
X13723600Y-11503700D02*
X13753600Y-11533700D01*
X13753600Y-11503700D02*
X13723600Y-11533700D01*
X13736300Y-10754400D02*
X13766300Y-10784400D01*
X13766300Y-10754400D02*
X13736300Y-10784400D01*
X13749000Y-9979700D02*
X13779000Y-10009700D01*
X13779000Y-9979700D02*
X13749000Y-10009700D01*
X13774400Y-9738400D02*
X13804400Y-9768400D01*
X13804400Y-9738400D02*
X13774400Y-9768400D01*
X13850600Y-9484400D02*
X13880600Y-9514400D01*
X13880600Y-9484400D02*
X13850600Y-9514400D01*
X13850600Y-11503700D02*
X13880600Y-11533700D01*
X13880600Y-11503700D02*
X13850600Y-11533700D01*
X13876000Y-9738400D02*
X13906000Y-9768400D01*
X13906000Y-9738400D02*
X13876000Y-9768400D01*
X13876000Y-9979700D02*
X13906000Y-10009700D01*
X13906000Y-9979700D02*
X13876000Y-10009700D01*
X13888700Y-10386100D02*
X13918700Y-10416100D01*
X13918700Y-10386100D02*
X13888700Y-10416100D01*
X13964900Y-11071900D02*
X13994900Y-11101900D01*
X13994900Y-11071900D02*
X13964900Y-11101900D01*
X13977600Y-9484400D02*
X14007600Y-9514400D01*
X14007600Y-9484400D02*
X13977600Y-9514400D01*
X13977600Y-9598700D02*
X14007600Y-9628700D01*
X14007600Y-9598700D02*
X13977600Y-9628700D01*
X13977600Y-9700300D02*
X14007600Y-9730300D01*
X14007600Y-9700300D02*
X13977600Y-9730300D01*
X13977600Y-10195600D02*
X14007600Y-10225600D01*
X14007600Y-10195600D02*
X13977600Y-10225600D01*
X13977600Y-10652800D02*
X14007600Y-10682800D01*
X14007600Y-10652800D02*
X13977600Y-10682800D01*
X13977600Y-10754400D02*
X14007600Y-10784400D01*
X14007600Y-10754400D02*
X13977600Y-10784400D01*
X13977600Y-10856000D02*
X14007600Y-10886000D01*
X14007600Y-10856000D02*
X13977600Y-10886000D01*
X13977600Y-11503700D02*
X14007600Y-11533700D01*
X14007600Y-11503700D02*
X13977600Y-11533700D01*
X14015700Y-10386100D02*
X14045700Y-10416100D01*
X14045700Y-10386100D02*
X14015700Y-10416100D01*
X14041100Y-10078500D02*
X14071100Y-10108500D01*
X14071100Y-10078500D02*
X14041100Y-10108500D01*
X14043900Y-9992400D02*
X14073900Y-10022400D01*
X14073900Y-9992400D02*
X14043900Y-10022400D01*
X14104600Y-9484400D02*
X14134600Y-9514400D01*
X14134600Y-9484400D02*
X14104600Y-9514400D01*
X14104600Y-11503700D02*
X14134600Y-11533700D01*
X14134600Y-11503700D02*
X14104600Y-11533700D01*
X14117300Y-9649500D02*
X14147300Y-9679500D01*
X14147300Y-9649500D02*
X14117300Y-9679500D01*
X14117300Y-9763800D02*
X14147300Y-9793800D01*
X14147300Y-9763800D02*
X14117300Y-9793800D01*
X14142700Y-10373400D02*
X14172700Y-10403400D01*
X14172700Y-10373400D02*
X14142700Y-10403400D01*
X14196300Y-10957800D02*
X14226300Y-10987800D01*
X14226300Y-10957800D02*
X14196300Y-10987800D01*
X14203920Y-10449800D02*
X14233920Y-10479800D01*
X14233920Y-10449800D02*
X14203920Y-10479800D01*
X14218900Y-9649500D02*
X14248900Y-9679500D01*
X14248900Y-9649500D02*
X14218900Y-9679500D01*
X14218900Y-9763800D02*
X14248900Y-9793800D01*
X14248900Y-9763800D02*
X14218900Y-9793800D01*
X14231600Y-9484400D02*
X14261600Y-9514400D01*
X14261600Y-9484400D02*
X14231600Y-9514400D01*
X14231600Y-11275100D02*
X14261600Y-11305100D01*
X14261600Y-11275100D02*
X14231600Y-11305100D01*
X14231600Y-11389400D02*
X14261600Y-11419400D01*
X14261600Y-11389400D02*
X14231600Y-11419400D01*
X14231600Y-11503700D02*
X14261600Y-11533700D01*
X14261600Y-11503700D02*
X14231600Y-11533700D01*
X14234400Y-11072100D02*
X14264400Y-11102100D01*
X14264400Y-11072100D02*
X14234400Y-11102100D01*
X14234400Y-11161000D02*
X14264400Y-11191000D01*
X14264400Y-11161000D02*
X14234400Y-11191000D01*
X14269700Y-10817900D02*
X14299700Y-10847900D01*
X14299700Y-10817900D02*
X14269700Y-10847900D01*
X14282400Y-10271800D02*
X14312400Y-10301800D01*
X14312400Y-10271800D02*
X14282400Y-10301800D01*
X14285200Y-9992600D02*
X14315200Y-10022600D01*
X14315200Y-9992600D02*
X14285200Y-10022600D01*
X14297900Y-10999850D02*
X14327900Y-11029850D01*
X14327900Y-10999850D02*
X14297900Y-11029850D01*
X14320500Y-11186200D02*
X14350500Y-11216200D01*
X14350500Y-11186200D02*
X14320500Y-11216200D01*
X14336000Y-10536160D02*
X14366000Y-10566160D01*
X14366000Y-10536160D02*
X14336000Y-10566160D01*
X14348700Y-11084800D02*
X14378700Y-11114800D01*
X14378700Y-11084800D02*
X14348700Y-11114800D01*
X14358600Y-9484400D02*
X14388600Y-9514400D01*
X14388600Y-9484400D02*
X14358600Y-9514400D01*
X14358600Y-11503700D02*
X14388600Y-11533700D01*
X14388600Y-11503700D02*
X14358600Y-11533700D01*
X14371300Y-10335300D02*
X14401300Y-10365300D01*
X14401300Y-10335300D02*
X14371300Y-10365300D01*
X14396700Y-9801900D02*
X14426700Y-9831900D01*
X14426700Y-9801900D02*
X14396700Y-9831900D01*
X14402040Y-10597120D02*
X14432040Y-10627120D01*
X14432040Y-10597120D02*
X14402040Y-10627120D01*
X14447760Y-10459960D02*
X14477760Y-10489960D01*
X14477760Y-10459960D02*
X14447760Y-10489960D01*
X14463000Y-11072100D02*
X14493000Y-11102100D01*
X14493000Y-11072100D02*
X14463000Y-11102100D01*
X14485600Y-9484400D02*
X14515600Y-9514400D01*
X14515600Y-9484400D02*
X14485600Y-9514400D01*
X14485600Y-9992400D02*
X14515600Y-10022400D01*
X14515600Y-9992400D02*
X14485600Y-10022400D01*
X14485600Y-11503597D02*
X14515600Y-11533597D01*
X14515600Y-11503597D02*
X14485600Y-11533597D01*
X14511000Y-10639900D02*
X14541000Y-10669900D01*
X14541000Y-10639900D02*
X14511000Y-10669900D01*
X14511000Y-10735150D02*
X14541000Y-10765150D01*
X14541000Y-10735150D02*
X14511000Y-10765150D01*
X14511000Y-10830400D02*
X14541000Y-10860400D01*
X14541000Y-10830400D02*
X14511000Y-10860400D01*
X14539200Y-10454880D02*
X14569200Y-10484880D01*
X14569200Y-10454880D02*
X14539200Y-10484880D01*
X14549100Y-11059400D02*
X14579100Y-11089400D01*
X14579100Y-11059400D02*
X14549100Y-11089400D01*
X14593550Y-10639900D02*
X14623550Y-10669900D01*
X14623550Y-10639900D02*
X14593550Y-10669900D01*
X14593550Y-10735150D02*
X14623550Y-10765150D01*
X14623550Y-10735150D02*
X14593550Y-10765150D01*
X14593550Y-10830400D02*
X14623550Y-10860400D01*
X14623550Y-10830400D02*
X14593550Y-10860400D01*
X14612600Y-9484400D02*
X14642600Y-9514400D01*
X14642600Y-9484400D02*
X14612600Y-9514400D01*
X14612600Y-9801900D02*
X14642600Y-9831900D01*
X14642600Y-9801900D02*
X14612600Y-9831900D01*
X14612600Y-11503597D02*
X14642600Y-11533597D01*
X14642600Y-11503597D02*
X14612600Y-11533597D01*
X14650700Y-10462300D02*
X14680700Y-10492300D01*
X14680700Y-10462300D02*
X14650700Y-10492300D01*
X14676100Y-10639900D02*
X14706100Y-10669900D01*
X14706100Y-10639900D02*
X14676100Y-10669900D01*
X14676100Y-10735150D02*
X14706100Y-10765150D01*
X14706100Y-10735150D02*
X14676100Y-10765150D01*
X14676100Y-10830400D02*
X14706100Y-10860400D01*
X14706100Y-10830400D02*
X14676100Y-10860400D01*
X14688800Y-11059200D02*
X14718800Y-11089200D01*
X14718800Y-11059200D02*
X14688800Y-11089200D01*
X14701500Y-10221000D02*
X14731500Y-10251000D01*
X14731500Y-10221000D02*
X14701500Y-10251000D01*
X14726900Y-10132100D02*
X14756900Y-10162100D01*
X14756900Y-10132100D02*
X14726900Y-10162100D01*
X14739600Y-9484400D02*
X14769600Y-9514400D01*
X14769600Y-9484400D02*
X14739600Y-9514400D01*
X14739600Y-11503700D02*
X14769600Y-11533700D01*
X14769600Y-11503700D02*
X14739600Y-11533700D01*
X14752300Y-10462300D02*
X14782300Y-10492300D01*
X14782300Y-10462300D02*
X14752300Y-10492300D01*
X14790400Y-10208300D02*
X14820400Y-10238300D01*
X14820400Y-10208300D02*
X14790400Y-10238300D01*
X14790400Y-11110000D02*
X14820400Y-11140000D01*
X14820400Y-11110000D02*
X14790400Y-11140000D01*
X14806850Y-10542250D02*
X14836850Y-10572250D01*
X14836850Y-10542250D02*
X14806850Y-10572250D01*
X14831300Y-10919700D02*
X14861300Y-10949700D01*
X14861300Y-10919700D02*
X14831300Y-10949700D01*
X14841200Y-11402100D02*
X14871200Y-11432100D01*
X14871200Y-11402100D02*
X14841200Y-11432100D01*
X14866600Y-9484400D02*
X14896600Y-9514400D01*
X14896600Y-9484400D02*
X14866600Y-9514400D01*
X14866600Y-11503700D02*
X14896600Y-11533700D01*
X14896600Y-11503700D02*
X14866600Y-11533700D01*
X14889720Y-10739360D02*
X14919720Y-10769360D01*
X14919720Y-10739360D02*
X14889720Y-10769360D01*
X14892000Y-11160800D02*
X14922000Y-11190800D01*
X14922000Y-11160800D02*
X14892000Y-11190800D01*
X14894800Y-10658080D02*
X14924800Y-10688080D01*
X14924800Y-10658080D02*
X14894800Y-10688080D01*
X14904700Y-10983000D02*
X14934700Y-11013000D01*
X14934700Y-10983000D02*
X14904700Y-11013000D01*
X14930100Y-11313200D02*
X14960100Y-11343200D01*
X14960100Y-11313200D02*
X14930100Y-11343200D01*
X14980900Y-11059200D02*
X15010900Y-11089200D01*
X15010900Y-11059200D02*
X14980900Y-11089200D01*
X14980900Y-11224300D02*
X15010900Y-11254300D01*
X15010900Y-11224300D02*
X14980900Y-11254300D01*
X14993600Y-9484400D02*
X15023600Y-9514400D01*
X15023600Y-9484400D02*
X14993600Y-9514400D01*
X14993600Y-10881400D02*
X15023600Y-10911400D01*
X15023600Y-10881400D02*
X14993600Y-10911400D01*
X14993600Y-11389400D02*
X15023600Y-11419400D01*
X15023600Y-11389400D02*
X14993600Y-11419400D01*
X14993600Y-11503700D02*
X15023600Y-11533700D01*
X15023600Y-11503700D02*
X14993600Y-11533700D01*
X15055300Y-10309700D02*
X15085300Y-10339700D01*
X15085300Y-10309700D02*
X15055300Y-10339700D01*
X15069800Y-11059200D02*
X15099800Y-11089200D01*
X15099800Y-11059200D02*
X15069800Y-11089200D01*
X15107900Y-10411500D02*
X15137900Y-10441500D01*
X15137900Y-10411500D02*
X15107900Y-10441500D01*
X15120600Y-9484400D02*
X15150600Y-9514400D01*
X15150600Y-9484400D02*
X15120600Y-9514400D01*
X15120600Y-10881400D02*
X15150600Y-10911400D01*
X15150600Y-10881400D02*
X15120600Y-10911400D01*
X15120600Y-11148100D02*
X15150600Y-11178100D01*
X15150600Y-11148100D02*
X15120600Y-11178100D01*
X15120600Y-11262400D02*
X15150600Y-11292400D01*
X15150600Y-11262400D02*
X15120600Y-11292400D01*
X15120600Y-11389400D02*
X15150600Y-11419400D01*
X15150600Y-11389400D02*
X15120600Y-11419400D01*
X15120600Y-11503700D02*
X15150600Y-11533700D01*
X15150600Y-11503700D02*
X15120600Y-11533700D01*
X15128480Y-10272000D02*
X15158480Y-10302000D01*
X15158480Y-10272000D02*
X15128480Y-10302000D01*
X15133300Y-10513100D02*
X15163300Y-10543100D01*
X15163300Y-10513100D02*
X15133300Y-10543100D01*
X15133300Y-10614700D02*
X15163300Y-10644700D01*
X15163300Y-10614700D02*
X15133300Y-10644700D01*
X15133300Y-10703600D02*
X15163300Y-10733600D01*
X15163300Y-10703600D02*
X15133300Y-10733600D01*
X15222200Y-11059200D02*
X15252200Y-11089200D01*
X15252200Y-11059200D02*
X15222200Y-11089200D01*
X15247600Y-9484400D02*
X15277600Y-9514400D01*
X15277600Y-9484400D02*
X15247600Y-9514400D01*
X15247600Y-10500400D02*
X15277600Y-10530400D01*
X15277600Y-10500400D02*
X15247600Y-10530400D01*
X15247600Y-10627400D02*
X15277600Y-10657400D01*
X15277600Y-10627400D02*
X15247600Y-10657400D01*
X15247600Y-10754400D02*
X15277600Y-10784400D01*
X15277600Y-10754400D02*
X15247600Y-10784400D01*
X15247600Y-10881400D02*
X15277600Y-10911400D01*
X15277600Y-10881400D02*
X15247600Y-10911400D01*
X15247600Y-11148100D02*
X15277600Y-11178100D01*
X15277600Y-11148100D02*
X15247600Y-11178100D01*
X15247600Y-11262400D02*
X15277600Y-11292400D01*
X15277600Y-11262400D02*
X15247600Y-11292400D01*
X15247600Y-11389400D02*
X15277600Y-11419400D01*
X15277600Y-11389400D02*
X15247600Y-11419400D01*
X15247600Y-11503700D02*
X15277600Y-11533700D01*
X15277600Y-11503700D02*
X15247600Y-11533700D01*
X15336500Y-11059200D02*
X15366500Y-11089200D01*
X15366500Y-11059200D02*
X15336500Y-11089200D01*
X15374600Y-9484400D02*
X15404600Y-9514400D01*
X15404600Y-9484400D02*
X15374600Y-9514400D01*
X15374600Y-9611400D02*
X15404600Y-9641400D01*
X15404600Y-9611400D02*
X15374600Y-9641400D01*
X15374600Y-9738400D02*
X15404600Y-9768400D01*
X15404600Y-9738400D02*
X15374600Y-9768400D01*
X15374600Y-9865400D02*
X15404600Y-9895400D01*
X15404600Y-9865400D02*
X15374600Y-9895400D01*
X15374600Y-9992400D02*
X15404600Y-10022400D01*
X15404600Y-9992400D02*
X15374600Y-10022400D01*
X15374600Y-10119400D02*
X15404600Y-10149400D01*
X15404600Y-10119400D02*
X15374600Y-10149400D01*
X15374600Y-10246400D02*
X15404600Y-10276400D01*
X15404600Y-10246400D02*
X15374600Y-10276400D01*
X15374600Y-10373400D02*
X15404600Y-10403400D01*
X15404600Y-10373400D02*
X15374600Y-10403400D01*
X15374600Y-10500400D02*
X15404600Y-10530400D01*
X15404600Y-10500400D02*
X15374600Y-10530400D01*
X15374600Y-10627400D02*
X15404600Y-10657400D01*
X15404600Y-10627400D02*
X15374600Y-10657400D01*
X15374600Y-10754400D02*
X15404600Y-10784400D01*
X15404600Y-10754400D02*
X15374600Y-10784400D01*
X15374600Y-10881400D02*
X15404600Y-10911400D01*
X15404600Y-10881400D02*
X15374600Y-10911400D01*
X15374600Y-11262400D02*
X15404600Y-11292400D01*
X15404600Y-11262400D02*
X15374600Y-11292400D01*
X15374600Y-11389400D02*
X15404600Y-11419400D01*
X15404600Y-11389400D02*
X15374600Y-11419400D01*
X15374600Y-11503700D02*
X15404600Y-11533700D01*
X15404600Y-11503700D02*
X15374600Y-11533700D01*
X15425400Y-11148100D02*
X15455400Y-11178100D01*
X15455400Y-11148100D02*
X15425400Y-11178100D01*
X15501600Y-9484400D02*
X15531600Y-9514400D01*
X15531600Y-9484400D02*
X15501600Y-9514400D01*
X15501600Y-9611400D02*
X15531600Y-9641400D01*
X15531600Y-9611400D02*
X15501600Y-9641400D01*
X15501600Y-9738400D02*
X15531600Y-9768400D01*
X15531600Y-9738400D02*
X15501600Y-9768400D01*
X15501600Y-9865400D02*
X15531600Y-9895400D01*
X15531600Y-9865400D02*
X15501600Y-9895400D01*
X15501600Y-9992400D02*
X15531600Y-10022400D01*
X15531600Y-9992400D02*
X15501600Y-10022400D01*
X15501600Y-10119400D02*
X15531600Y-10149400D01*
X15531600Y-10119400D02*
X15501600Y-10149400D01*
X15501600Y-10246400D02*
X15531600Y-10276400D01*
X15531600Y-10246400D02*
X15501600Y-10276400D01*
X15501600Y-10373400D02*
X15531600Y-10403400D01*
X15531600Y-10373400D02*
X15501600Y-10403400D01*
X15501600Y-10500400D02*
X15531600Y-10530400D01*
X15531600Y-10500400D02*
X15501600Y-10530400D01*
X15501600Y-10627400D02*
X15531600Y-10657400D01*
X15531600Y-10627400D02*
X15501600Y-10657400D01*
X15501600Y-10754400D02*
X15531600Y-10784400D01*
X15531600Y-10754400D02*
X15501600Y-10784400D01*
X15501600Y-10881400D02*
X15531600Y-10911400D01*
X15531600Y-10881400D02*
X15501600Y-10911400D01*
X15501600Y-11059200D02*
X15531600Y-11089200D01*
X15531600Y-11059200D02*
X15501600Y-11089200D01*
X15501600Y-11262400D02*
X15531600Y-11292400D01*
X15531600Y-11262400D02*
X15501600Y-11292400D01*
X15501600Y-11389400D02*
X15531600Y-11419400D01*
X15531600Y-11389400D02*
X15501600Y-11419400D01*
X15501600Y-11503700D02*
X15531600Y-11533700D01*
X15531600Y-11503700D02*
X15501600Y-11533700D01*
X15585200Y-11182800D02*
G75*
G02*
X15555200Y-11182800I-15000J0D01*
G01*
X15555200Y-11182800D02*
G75*
G02*
X15585200Y-11182800I15000J0D01*
G01*
X14957800Y-10457300D02*
X14957800Y-10497300D01*
X14937800Y-10477300D02*
X14977800Y-10477300D01*
X14073816Y-9923516D02*
X14073816Y-9881089D01*
X14031389Y-9881089D01*
X14031389Y-9923516D01*
X14073816Y-9923516D01*
X14991713Y-10269913D02*
X14991713Y-10227487D01*
X14949287Y-10227487D01*
X14949287Y-10269913D01*
X14991713Y-10269913D01*
X13090900Y-9996000D02*
X13120900Y-9966000D01*
X13090900Y-9936000D01*
X13060900Y-9966000D01*
X13090900Y-9996000D01*
X13130900Y-9936000D02*
X13050900Y-9936000D01*
X13050900Y-9996000D02*
G75*
G02*
X13050900Y-9936000I0J30000D01*
G01*
X13050900Y-9996000D02*
X13130900Y-9996000D01*
X13130900Y-9996000D02*
G75*
G03*
X13130900Y-9936000I0J30000D01*
G01*
X13090900Y-10860000D02*
X13120900Y-10830000D01*
X13090900Y-10800000D01*
X13060900Y-10830000D01*
X13090900Y-10860000D01*
X13130900Y-10800000D02*
X13050900Y-10800000D01*
X13050900Y-10860000D02*
G75*
G02*
X13050900Y-10800000I0J30000D01*
G01*
X13050900Y-10860000D02*
X13130900Y-10860000D01*
X13130900Y-10860000D02*
G75*
G03*
X13130900Y-10800000I0J30000D01*
G01*
X13510900Y-9996000D02*
X13540900Y-9966000D01*
X13510900Y-9936000D01*
X13480900Y-9966000D01*
X13510900Y-9996000D01*
X13565900Y-9936000D02*
X13455900Y-9936000D01*
X13455900Y-9996000D02*
G75*
G02*
X13455900Y-9936000I0J30000D01*
G01*
X13455900Y-9996000D02*
X13565900Y-9996000D01*
X13565900Y-9996000D02*
G75*
G03*
X13565900Y-9936000I0J30000D01*
G01*
X13510900Y-10860000D02*
X13540900Y-10830000D01*
X13510900Y-10800000D01*
X13480900Y-10830000D01*
X13510900Y-10860000D01*
X13565900Y-10800000D02*
X13455900Y-10800000D01*
X13455900Y-10860000D02*
G75*
G02*
X13455900Y-10800000I0J30000D01*
G01*
X13455900Y-10860000D02*
X13565900Y-10860000D01*
X13565900Y-10860000D02*
G75*
G03*
X13565900Y-10800000I0J30000D01*
G01*
X15073400Y-9596402D02*
X15163400Y-9686402D01*
X15163400Y-9596402D02*
X15073400Y-9686402D01*
X15163400Y-9641402D02*
G75*
G02*
X15073400Y-9641402I-45000J0D01*
G01*
X15073400Y-9641402D02*
G75*
G02*
X15163400Y-9641402I45000J0D01*
G01*
X15073400Y-9850402D02*
X15163400Y-9940402D01*
X15163400Y-9850402D02*
X15073400Y-9940402D01*
X15163400Y-9895402D02*
G75*
G02*
X15073400Y-9895402I-45000J0D01*
G01*
X15073400Y-9895402D02*
G75*
G02*
X15163400Y-9895402I45000J0D01*
G01*
X15073400Y-10104402D02*
X15163400Y-10194402D01*
X15163400Y-10104402D02*
X15073400Y-10194402D01*
X15163400Y-10149402D02*
G75*
G02*
X15073400Y-10149402I-45000J0D01*
G01*
X15073400Y-10149402D02*
G75*
G02*
X15163400Y-10149402I45000J0D01*
G01*
D11*
X13068179Y-11897781D02*
X13068179Y-11697781D01*
X13068179Y-11697781D02*
X13115798Y-11697781D01*
X13115798Y-11697781D02*
X13144370Y-11707305D01*
X13144370Y-11707305D02*
X13163418Y-11726353D01*
X13163418Y-11726353D02*
X13172941Y-11745400D01*
X13172941Y-11745400D02*
X13182465Y-11783495D01*
X13182465Y-11783495D02*
X13182465Y-11812067D01*
X13182465Y-11812067D02*
X13172941Y-11850162D01*
X13172941Y-11850162D02*
X13163418Y-11869210D01*
X13163418Y-11869210D02*
X13144370Y-11888257D01*
X13144370Y-11888257D02*
X13115798Y-11897781D01*
X13115798Y-11897781D02*
X13068179Y-11897781D01*
X13268179Y-11897781D02*
X13268179Y-11764448D01*
X13268179Y-11802543D02*
X13277703Y-11783495D01*
X13277703Y-11783495D02*
X13287227Y-11773972D01*
X13287227Y-11773972D02*
X13306275Y-11764448D01*
X13306275Y-11764448D02*
X13325322Y-11764448D01*
X13391989Y-11897781D02*
X13391989Y-11764448D01*
X13391989Y-11697781D02*
X13382465Y-11707305D01*
X13382465Y-11707305D02*
X13391989Y-11716829D01*
X13391989Y-11716829D02*
X13401513Y-11707305D01*
X13401513Y-11707305D02*
X13391989Y-11697781D01*
X13391989Y-11697781D02*
X13391989Y-11716829D01*
X13515798Y-11897781D02*
X13496751Y-11888257D01*
X13496751Y-11888257D02*
X13487227Y-11869210D01*
X13487227Y-11869210D02*
X13487227Y-11697781D01*
X13620560Y-11897781D02*
X13601513Y-11888257D01*
X13601513Y-11888257D02*
X13591989Y-11869210D01*
X13591989Y-11869210D02*
X13591989Y-11697781D01*
X13849132Y-11897781D02*
X13849132Y-11697781D01*
X13849132Y-11697781D02*
X13915799Y-11840638D01*
X13915799Y-11840638D02*
X13982465Y-11697781D01*
X13982465Y-11697781D02*
X13982465Y-11897781D01*
X14163418Y-11897781D02*
X14163418Y-11793019D01*
X14163418Y-11793019D02*
X14153894Y-11773972D01*
X14153894Y-11773972D02*
X14134846Y-11764448D01*
X14134846Y-11764448D02*
X14096751Y-11764448D01*
X14096751Y-11764448D02*
X14077703Y-11773972D01*
X14163418Y-11888257D02*
X14144370Y-11897781D01*
X14144370Y-11897781D02*
X14096751Y-11897781D01*
X14096751Y-11897781D02*
X14077703Y-11888257D01*
X14077703Y-11888257D02*
X14068179Y-11869210D01*
X14068179Y-11869210D02*
X14068179Y-11850162D01*
X14068179Y-11850162D02*
X14077703Y-11831115D01*
X14077703Y-11831115D02*
X14096751Y-11821591D01*
X14096751Y-11821591D02*
X14144370Y-11821591D01*
X14144370Y-11821591D02*
X14163418Y-11812067D01*
X14258656Y-11764448D02*
X14258656Y-11964448D01*
X14258656Y-11773972D02*
X14277703Y-11764448D01*
X14277703Y-11764448D02*
X14315799Y-11764448D01*
X14315799Y-11764448D02*
X14334846Y-11773972D01*
X14334846Y-11773972D02*
X14344370Y-11783495D01*
X14344370Y-11783495D02*
X14353894Y-11802543D01*
X14353894Y-11802543D02*
X14353894Y-11859686D01*
X14353894Y-11859686D02*
X14344370Y-11878734D01*
X14344370Y-11878734D02*
X14334846Y-11888257D01*
X14334846Y-11888257D02*
X14315799Y-11897781D01*
X14315799Y-11897781D02*
X14277703Y-11897781D01*
X14277703Y-11897781D02*
X14258656Y-11888257D01*
X14439608Y-11878734D02*
X14449132Y-11888257D01*
X14449132Y-11888257D02*
X14439608Y-11897781D01*
X14439608Y-11897781D02*
X14430084Y-11888257D01*
X14430084Y-11888257D02*
X14439608Y-11878734D01*
X14439608Y-11878734D02*
X14439608Y-11897781D01*
X14439608Y-11773972D02*
X14449132Y-11783495D01*
X14449132Y-11783495D02*
X14439608Y-11793019D01*
X14439608Y-11793019D02*
X14430084Y-11783495D01*
X14430084Y-11783495D02*
X14439608Y-11773972D01*
X14439608Y-11773972D02*
X14439608Y-11793019D01*
D10*
X12777403Y-12211297D02*
X12807403Y-12241297D01*
X12807403Y-12211297D02*
X12777403Y-12241297D01*
D11*
X13106275Y-12117781D02*
X13125322Y-12117781D01*
X13125322Y-12117781D02*
X13144370Y-12127305D01*
X13144370Y-12127305D02*
X13153894Y-12136829D01*
X13153894Y-12136829D02*
X13163418Y-12155876D01*
X13163418Y-12155876D02*
X13172941Y-12193972D01*
X13172941Y-12193972D02*
X13172941Y-12241591D01*
X13172941Y-12241591D02*
X13163418Y-12279686D01*
X13163418Y-12279686D02*
X13153894Y-12298734D01*
X13153894Y-12298734D02*
X13144370Y-12308257D01*
X13144370Y-12308257D02*
X13125322Y-12317781D01*
X13125322Y-12317781D02*
X13106275Y-12317781D01*
X13106275Y-12317781D02*
X13087227Y-12308257D01*
X13087227Y-12308257D02*
X13077703Y-12298734D01*
X13077703Y-12298734D02*
X13068179Y-12279686D01*
X13068179Y-12279686D02*
X13058656Y-12241591D01*
X13058656Y-12241591D02*
X13058656Y-12193972D01*
X13058656Y-12193972D02*
X13068179Y-12155876D01*
X13068179Y-12155876D02*
X13077703Y-12136829D01*
X13077703Y-12136829D02*
X13087227Y-12127305D01*
X13087227Y-12127305D02*
X13106275Y-12117781D01*
X13258656Y-12298734D02*
X13268179Y-12308257D01*
X13268179Y-12308257D02*
X13258656Y-12317781D01*
X13258656Y-12317781D02*
X13249132Y-12308257D01*
X13249132Y-12308257D02*
X13258656Y-12298734D01*
X13258656Y-12298734D02*
X13258656Y-12317781D01*
X13334846Y-12117781D02*
X13458656Y-12117781D01*
X13458656Y-12117781D02*
X13391989Y-12193972D01*
X13391989Y-12193972D02*
X13420560Y-12193972D01*
X13420560Y-12193972D02*
X13439608Y-12203495D01*
X13439608Y-12203495D02*
X13449132Y-12213019D01*
X13449132Y-12213019D02*
X13458656Y-12232067D01*
X13458656Y-12232067D02*
X13458656Y-12279686D01*
X13458656Y-12279686D02*
X13449132Y-12298734D01*
X13449132Y-12298734D02*
X13439608Y-12308257D01*
X13439608Y-12308257D02*
X13420560Y-12317781D01*
X13420560Y-12317781D02*
X13363418Y-12317781D01*
X13363418Y-12317781D02*
X13344370Y-12308257D01*
X13344370Y-12308257D02*
X13334846Y-12298734D01*
X13582465Y-12117781D02*
X13601513Y-12117781D01*
X13601513Y-12117781D02*
X13620560Y-12127305D01*
X13620560Y-12127305D02*
X13630084Y-12136829D01*
X13630084Y-12136829D02*
X13639608Y-12155876D01*
X13639608Y-12155876D02*
X13649132Y-12193972D01*
X13649132Y-12193972D02*
X13649132Y-12241591D01*
X13649132Y-12241591D02*
X13639608Y-12279686D01*
X13639608Y-12279686D02*
X13630084Y-12298734D01*
X13630084Y-12298734D02*
X13620560Y-12308257D01*
X13620560Y-12308257D02*
X13601513Y-12317781D01*
X13601513Y-12317781D02*
X13582465Y-12317781D01*
X13582465Y-12317781D02*
X13563418Y-12308257D01*
X13563418Y-12308257D02*
X13553894Y-12298734D01*
X13553894Y-12298734D02*
X13544370Y-12279686D01*
X13544370Y-12279686D02*
X13534846Y-12241591D01*
X13534846Y-12241591D02*
X13534846Y-12193972D01*
X13534846Y-12193972D02*
X13544370Y-12155876D01*
X13544370Y-12155876D02*
X13553894Y-12136829D01*
X13553894Y-12136829D02*
X13563418Y-12127305D01*
X13563418Y-12127305D02*
X13582465Y-12117781D01*
X13772941Y-12117781D02*
X13791989Y-12117781D01*
X13791989Y-12117781D02*
X13811037Y-12127305D01*
X13811037Y-12127305D02*
X13820560Y-12136829D01*
X13820560Y-12136829D02*
X13830084Y-12155876D01*
X13830084Y-12155876D02*
X13839608Y-12193972D01*
X13839608Y-12193972D02*
X13839608Y-12241591D01*
X13839608Y-12241591D02*
X13830084Y-12279686D01*
X13830084Y-12279686D02*
X13820560Y-12298734D01*
X13820560Y-12298734D02*
X13811037Y-12308257D01*
X13811037Y-12308257D02*
X13791989Y-12317781D01*
X13791989Y-12317781D02*
X13772941Y-12317781D01*
X13772941Y-12317781D02*
X13753894Y-12308257D01*
X13753894Y-12308257D02*
X13744370Y-12298734D01*
X13744370Y-12298734D02*
X13734846Y-12279686D01*
X13734846Y-12279686D02*
X13725322Y-12241591D01*
X13725322Y-12241591D02*
X13725322Y-12193972D01*
X13725322Y-12193972D02*
X13734846Y-12155876D01*
X13734846Y-12155876D02*
X13744370Y-12136829D01*
X13744370Y-12136829D02*
X13753894Y-12127305D01*
X13753894Y-12127305D02*
X13772941Y-12117781D01*
X13925322Y-12317781D02*
X13925322Y-12184448D01*
X13925322Y-12203495D02*
X13934846Y-12193972D01*
X13934846Y-12193972D02*
X13953894Y-12184448D01*
X13953894Y-12184448D02*
X13982465Y-12184448D01*
X13982465Y-12184448D02*
X14001513Y-12193972D01*
X14001513Y-12193972D02*
X14011037Y-12213019D01*
X14011037Y-12213019D02*
X14011037Y-12317781D01*
X14011037Y-12213019D02*
X14020560Y-12193972D01*
X14020560Y-12193972D02*
X14039608Y-12184448D01*
X14039608Y-12184448D02*
X14068179Y-12184448D01*
X14068179Y-12184448D02*
X14087227Y-12193972D01*
X14087227Y-12193972D02*
X14096751Y-12213019D01*
X14096751Y-12213019D02*
X14096751Y-12317781D01*
X14191989Y-12317781D02*
X14191989Y-12184448D01*
X14191989Y-12203495D02*
X14201513Y-12193972D01*
X14201513Y-12193972D02*
X14220560Y-12184448D01*
X14220560Y-12184448D02*
X14249132Y-12184448D01*
X14249132Y-12184448D02*
X14268180Y-12193972D01*
X14268180Y-12193972D02*
X14277703Y-12213019D01*
X14277703Y-12213019D02*
X14277703Y-12317781D01*
X14277703Y-12213019D02*
X14287227Y-12193972D01*
X14287227Y-12193972D02*
X14306275Y-12184448D01*
X14306275Y-12184448D02*
X14334846Y-12184448D01*
X14334846Y-12184448D02*
X14353894Y-12193972D01*
X14353894Y-12193972D02*
X14363418Y-12213019D01*
X14363418Y-12213019D02*
X14363418Y-12317781D01*
X14753894Y-12108257D02*
X14582465Y-12365400D01*
X15011037Y-12117781D02*
X15030084Y-12117781D01*
X15030084Y-12117781D02*
X15049132Y-12127305D01*
X15049132Y-12127305D02*
X15058656Y-12136829D01*
X15058656Y-12136829D02*
X15068180Y-12155876D01*
X15068180Y-12155876D02*
X15077703Y-12193972D01*
X15077703Y-12193972D02*
X15077703Y-12241591D01*
X15077703Y-12241591D02*
X15068180Y-12279686D01*
X15068180Y-12279686D02*
X15058656Y-12298734D01*
X15058656Y-12298734D02*
X15049132Y-12308257D01*
X15049132Y-12308257D02*
X15030084Y-12317781D01*
X15030084Y-12317781D02*
X15011037Y-12317781D01*
X15011037Y-12317781D02*
X14991989Y-12308257D01*
X14991989Y-12308257D02*
X14982465Y-12298734D01*
X14982465Y-12298734D02*
X14972942Y-12279686D01*
X14972942Y-12279686D02*
X14963418Y-12241591D01*
X14963418Y-12241591D02*
X14963418Y-12193972D01*
X14963418Y-12193972D02*
X14972942Y-12155876D01*
X14972942Y-12155876D02*
X14982465Y-12136829D01*
X14982465Y-12136829D02*
X14991989Y-12127305D01*
X14991989Y-12127305D02*
X15011037Y-12117781D01*
X15163418Y-12298734D02*
X15172942Y-12308257D01*
X15172942Y-12308257D02*
X15163418Y-12317781D01*
X15163418Y-12317781D02*
X15153894Y-12308257D01*
X15153894Y-12308257D02*
X15163418Y-12298734D01*
X15163418Y-12298734D02*
X15163418Y-12317781D01*
X15296751Y-12117781D02*
X15315799Y-12117781D01*
X15315799Y-12117781D02*
X15334846Y-12127305D01*
X15334846Y-12127305D02*
X15344370Y-12136829D01*
X15344370Y-12136829D02*
X15353894Y-12155876D01*
X15353894Y-12155876D02*
X15363418Y-12193972D01*
X15363418Y-12193972D02*
X15363418Y-12241591D01*
X15363418Y-12241591D02*
X15353894Y-12279686D01*
X15353894Y-12279686D02*
X15344370Y-12298734D01*
X15344370Y-12298734D02*
X15334846Y-12308257D01*
X15334846Y-12308257D02*
X15315799Y-12317781D01*
X15315799Y-12317781D02*
X15296751Y-12317781D01*
X15296751Y-12317781D02*
X15277703Y-12308257D01*
X15277703Y-12308257D02*
X15268180Y-12298734D01*
X15268180Y-12298734D02*
X15258656Y-12279686D01*
X15258656Y-12279686D02*
X15249132Y-12241591D01*
X15249132Y-12241591D02*
X15249132Y-12193972D01*
X15249132Y-12193972D02*
X15258656Y-12155876D01*
X15258656Y-12155876D02*
X15268180Y-12136829D01*
X15268180Y-12136829D02*
X15277703Y-12127305D01*
X15277703Y-12127305D02*
X15296751Y-12117781D01*
X15553894Y-12317781D02*
X15439608Y-12317781D01*
X15496751Y-12317781D02*
X15496751Y-12117781D01*
X15496751Y-12117781D02*
X15477703Y-12146353D01*
X15477703Y-12146353D02*
X15458656Y-12165400D01*
X15458656Y-12165400D02*
X15439608Y-12174924D01*
X15744370Y-12317781D02*
X15630084Y-12317781D01*
X15687227Y-12317781D02*
X15687227Y-12117781D01*
X15687227Y-12117781D02*
X15668180Y-12146353D01*
X15668180Y-12146353D02*
X15649132Y-12165400D01*
X15649132Y-12165400D02*
X15630084Y-12174924D01*
X15858656Y-12203495D02*
X15839608Y-12193972D01*
X15839608Y-12193972D02*
X15830084Y-12184448D01*
X15830084Y-12184448D02*
X15820561Y-12165400D01*
X15820561Y-12165400D02*
X15820561Y-12155876D01*
X15820561Y-12155876D02*
X15830084Y-12136829D01*
X15830084Y-12136829D02*
X15839608Y-12127305D01*
X15839608Y-12127305D02*
X15858656Y-12117781D01*
X15858656Y-12117781D02*
X15896751Y-12117781D01*
X15896751Y-12117781D02*
X15915799Y-12127305D01*
X15915799Y-12127305D02*
X15925323Y-12136829D01*
X15925323Y-12136829D02*
X15934846Y-12155876D01*
X15934846Y-12155876D02*
X15934846Y-12165400D01*
X15934846Y-12165400D02*
X15925323Y-12184448D01*
X15925323Y-12184448D02*
X15915799Y-12193972D01*
X15915799Y-12193972D02*
X15896751Y-12203495D01*
X15896751Y-12203495D02*
X15858656Y-12203495D01*
X15858656Y-12203495D02*
X15839608Y-12213019D01*
X15839608Y-12213019D02*
X15830084Y-12222543D01*
X15830084Y-12222543D02*
X15820561Y-12241591D01*
X15820561Y-12241591D02*
X15820561Y-12279686D01*
X15820561Y-12279686D02*
X15830084Y-12298734D01*
X15830084Y-12298734D02*
X15839608Y-12308257D01*
X15839608Y-12308257D02*
X15858656Y-12317781D01*
X15858656Y-12317781D02*
X15896751Y-12317781D01*
X15896751Y-12317781D02*
X15915799Y-12308257D01*
X15915799Y-12308257D02*
X15925323Y-12298734D01*
X15925323Y-12298734D02*
X15934846Y-12279686D01*
X15934846Y-12279686D02*
X15934846Y-12241591D01*
X15934846Y-12241591D02*
X15925323Y-12222543D01*
X15925323Y-12222543D02*
X15915799Y-12213019D01*
X15915799Y-12213019D02*
X15896751Y-12203495D01*
X16011037Y-12117781D02*
X16011037Y-12155876D01*
X16087227Y-12117781D02*
X16087227Y-12155876D01*
X16382466Y-12393972D02*
X16372942Y-12384448D01*
X16372942Y-12384448D02*
X16353894Y-12355876D01*
X16353894Y-12355876D02*
X16344370Y-12336829D01*
X16344370Y-12336829D02*
X16334846Y-12308257D01*
X16334846Y-12308257D02*
X16325323Y-12260638D01*
X16325323Y-12260638D02*
X16325323Y-12222543D01*
X16325323Y-12222543D02*
X16334846Y-12174924D01*
X16334846Y-12174924D02*
X16344370Y-12146353D01*
X16344370Y-12146353D02*
X16353894Y-12127305D01*
X16353894Y-12127305D02*
X16372942Y-12098734D01*
X16372942Y-12098734D02*
X16382466Y-12089210D01*
X16563418Y-12317781D02*
X16449132Y-12317781D01*
X16506275Y-12317781D02*
X16506275Y-12117781D01*
X16506275Y-12117781D02*
X16487227Y-12146353D01*
X16487227Y-12146353D02*
X16468180Y-12165400D01*
X16468180Y-12165400D02*
X16449132Y-12174924D01*
X16658656Y-12317781D02*
X16696751Y-12317781D01*
X16696751Y-12317781D02*
X16715799Y-12308257D01*
X16715799Y-12308257D02*
X16725323Y-12298734D01*
X16725323Y-12298734D02*
X16744370Y-12270162D01*
X16744370Y-12270162D02*
X16753894Y-12232067D01*
X16753894Y-12232067D02*
X16753894Y-12155876D01*
X16753894Y-12155876D02*
X16744370Y-12136829D01*
X16744370Y-12136829D02*
X16734846Y-12127305D01*
X16734846Y-12127305D02*
X16715799Y-12117781D01*
X16715799Y-12117781D02*
X16677704Y-12117781D01*
X16677704Y-12117781D02*
X16658656Y-12127305D01*
X16658656Y-12127305D02*
X16649132Y-12136829D01*
X16649132Y-12136829D02*
X16639608Y-12155876D01*
X16639608Y-12155876D02*
X16639608Y-12203495D01*
X16639608Y-12203495D02*
X16649132Y-12222543D01*
X16649132Y-12222543D02*
X16658656Y-12232067D01*
X16658656Y-12232067D02*
X16677704Y-12241591D01*
X16677704Y-12241591D02*
X16715799Y-12241591D01*
X16715799Y-12241591D02*
X16734846Y-12232067D01*
X16734846Y-12232067D02*
X16744370Y-12222543D01*
X16744370Y-12222543D02*
X16753894Y-12203495D01*
X16925323Y-12117781D02*
X16887227Y-12117781D01*
X16887227Y-12117781D02*
X16868180Y-12127305D01*
X16868180Y-12127305D02*
X16858656Y-12136829D01*
X16858656Y-12136829D02*
X16839608Y-12165400D01*
X16839608Y-12165400D02*
X16830085Y-12203495D01*
X16830085Y-12203495D02*
X16830085Y-12279686D01*
X16830085Y-12279686D02*
X16839608Y-12298734D01*
X16839608Y-12298734D02*
X16849132Y-12308257D01*
X16849132Y-12308257D02*
X16868180Y-12317781D01*
X16868180Y-12317781D02*
X16906275Y-12317781D01*
X16906275Y-12317781D02*
X16925323Y-12308257D01*
X16925323Y-12308257D02*
X16934847Y-12298734D01*
X16934847Y-12298734D02*
X16944370Y-12279686D01*
X16944370Y-12279686D02*
X16944370Y-12232067D01*
X16944370Y-12232067D02*
X16934847Y-12213019D01*
X16934847Y-12213019D02*
X16925323Y-12203495D01*
X16925323Y-12203495D02*
X16906275Y-12193972D01*
X16906275Y-12193972D02*
X16868180Y-12193972D01*
X16868180Y-12193972D02*
X16849132Y-12203495D01*
X16849132Y-12203495D02*
X16839608Y-12213019D01*
X16839608Y-12213019D02*
X16830085Y-12232067D01*
X17182466Y-12317781D02*
X17182466Y-12117781D01*
X17268180Y-12317781D02*
X17268180Y-12213019D01*
X17268180Y-12213019D02*
X17258656Y-12193972D01*
X17258656Y-12193972D02*
X17239609Y-12184448D01*
X17239609Y-12184448D02*
X17211037Y-12184448D01*
X17211037Y-12184448D02*
X17191989Y-12193972D01*
X17191989Y-12193972D02*
X17182466Y-12203495D01*
X17391989Y-12317781D02*
X17372942Y-12308257D01*
X17372942Y-12308257D02*
X17363418Y-12298734D01*
X17363418Y-12298734D02*
X17353894Y-12279686D01*
X17353894Y-12279686D02*
X17353894Y-12222543D01*
X17353894Y-12222543D02*
X17363418Y-12203495D01*
X17363418Y-12203495D02*
X17372942Y-12193972D01*
X17372942Y-12193972D02*
X17391989Y-12184448D01*
X17391989Y-12184448D02*
X17420561Y-12184448D01*
X17420561Y-12184448D02*
X17439609Y-12193972D01*
X17439609Y-12193972D02*
X17449132Y-12203495D01*
X17449132Y-12203495D02*
X17458656Y-12222543D01*
X17458656Y-12222543D02*
X17458656Y-12279686D01*
X17458656Y-12279686D02*
X17449132Y-12298734D01*
X17449132Y-12298734D02*
X17439609Y-12308257D01*
X17439609Y-12308257D02*
X17420561Y-12317781D01*
X17420561Y-12317781D02*
X17391989Y-12317781D01*
X17572942Y-12317781D02*
X17553894Y-12308257D01*
X17553894Y-12308257D02*
X17544370Y-12289210D01*
X17544370Y-12289210D02*
X17544370Y-12117781D01*
X17725323Y-12308257D02*
X17706275Y-12317781D01*
X17706275Y-12317781D02*
X17668180Y-12317781D01*
X17668180Y-12317781D02*
X17649132Y-12308257D01*
X17649132Y-12308257D02*
X17639609Y-12289210D01*
X17639609Y-12289210D02*
X17639609Y-12213019D01*
X17639609Y-12213019D02*
X17649132Y-12193972D01*
X17649132Y-12193972D02*
X17668180Y-12184448D01*
X17668180Y-12184448D02*
X17706275Y-12184448D01*
X17706275Y-12184448D02*
X17725323Y-12193972D01*
X17725323Y-12193972D02*
X17734847Y-12213019D01*
X17734847Y-12213019D02*
X17734847Y-12232067D01*
X17734847Y-12232067D02*
X17639609Y-12251115D01*
X17811037Y-12308257D02*
X17830085Y-12317781D01*
X17830085Y-12317781D02*
X17868180Y-12317781D01*
X17868180Y-12317781D02*
X17887228Y-12308257D01*
X17887228Y-12308257D02*
X17896751Y-12289210D01*
X17896751Y-12289210D02*
X17896751Y-12279686D01*
X17896751Y-12279686D02*
X17887228Y-12260638D01*
X17887228Y-12260638D02*
X17868180Y-12251115D01*
X17868180Y-12251115D02*
X17839609Y-12251115D01*
X17839609Y-12251115D02*
X17820561Y-12241591D01*
X17820561Y-12241591D02*
X17811037Y-12222543D01*
X17811037Y-12222543D02*
X17811037Y-12213019D01*
X17811037Y-12213019D02*
X17820561Y-12193972D01*
X17820561Y-12193972D02*
X17839609Y-12184448D01*
X17839609Y-12184448D02*
X17868180Y-12184448D01*
X17868180Y-12184448D02*
X17887228Y-12193972D01*
X17963418Y-12393972D02*
X17972942Y-12384448D01*
X17972942Y-12384448D02*
X17991990Y-12355876D01*
X17991990Y-12355876D02*
X18001513Y-12336829D01*
X18001513Y-12336829D02*
X18011037Y-12308257D01*
X18011037Y-12308257D02*
X18020561Y-12260638D01*
X18020561Y-12260638D02*
X18020561Y-12222543D01*
X18020561Y-12222543D02*
X18011037Y-12174924D01*
X18011037Y-12174924D02*
X18001513Y-12146353D01*
X18001513Y-12146353D02*
X17991990Y-12127305D01*
X17991990Y-12127305D02*
X17972942Y-12098734D01*
X17972942Y-12098734D02*
X17963418Y-12089210D01*
D10*
X12807403Y-12490297D02*
G75*
G02*
X12777403Y-12490297I-15000J0D01*
G01*
X12777403Y-12490297D02*
G75*
G02*
X12807403Y-12490297I15000J0D01*
G01*
D11*
X13106275Y-12381781D02*
X13125322Y-12381781D01*
X13125322Y-12381781D02*
X13144370Y-12391305D01*
X13144370Y-12391305D02*
X13153894Y-12400829D01*
X13153894Y-12400829D02*
X13163418Y-12419876D01*
X13163418Y-12419876D02*
X13172941Y-12457972D01*
X13172941Y-12457972D02*
X13172941Y-12505591D01*
X13172941Y-12505591D02*
X13163418Y-12543686D01*
X13163418Y-12543686D02*
X13153894Y-12562734D01*
X13153894Y-12562734D02*
X13144370Y-12572257D01*
X13144370Y-12572257D02*
X13125322Y-12581781D01*
X13125322Y-12581781D02*
X13106275Y-12581781D01*
X13106275Y-12581781D02*
X13087227Y-12572257D01*
X13087227Y-12572257D02*
X13077703Y-12562734D01*
X13077703Y-12562734D02*
X13068179Y-12543686D01*
X13068179Y-12543686D02*
X13058656Y-12505591D01*
X13058656Y-12505591D02*
X13058656Y-12457972D01*
X13058656Y-12457972D02*
X13068179Y-12419876D01*
X13068179Y-12419876D02*
X13077703Y-12400829D01*
X13077703Y-12400829D02*
X13087227Y-12391305D01*
X13087227Y-12391305D02*
X13106275Y-12381781D01*
X13258656Y-12562734D02*
X13268179Y-12572257D01*
X13268179Y-12572257D02*
X13258656Y-12581781D01*
X13258656Y-12581781D02*
X13249132Y-12572257D01*
X13249132Y-12572257D02*
X13258656Y-12562734D01*
X13258656Y-12562734D02*
X13258656Y-12581781D01*
X13334846Y-12381781D02*
X13458656Y-12381781D01*
X13458656Y-12381781D02*
X13391989Y-12457972D01*
X13391989Y-12457972D02*
X13420560Y-12457972D01*
X13420560Y-12457972D02*
X13439608Y-12467495D01*
X13439608Y-12467495D02*
X13449132Y-12477019D01*
X13449132Y-12477019D02*
X13458656Y-12496067D01*
X13458656Y-12496067D02*
X13458656Y-12543686D01*
X13458656Y-12543686D02*
X13449132Y-12562734D01*
X13449132Y-12562734D02*
X13439608Y-12572257D01*
X13439608Y-12572257D02*
X13420560Y-12581781D01*
X13420560Y-12581781D02*
X13363418Y-12581781D01*
X13363418Y-12581781D02*
X13344370Y-12572257D01*
X13344370Y-12572257D02*
X13334846Y-12562734D01*
X13582465Y-12381781D02*
X13601513Y-12381781D01*
X13601513Y-12381781D02*
X13620560Y-12391305D01*
X13620560Y-12391305D02*
X13630084Y-12400829D01*
X13630084Y-12400829D02*
X13639608Y-12419876D01*
X13639608Y-12419876D02*
X13649132Y-12457972D01*
X13649132Y-12457972D02*
X13649132Y-12505591D01*
X13649132Y-12505591D02*
X13639608Y-12543686D01*
X13639608Y-12543686D02*
X13630084Y-12562734D01*
X13630084Y-12562734D02*
X13620560Y-12572257D01*
X13620560Y-12572257D02*
X13601513Y-12581781D01*
X13601513Y-12581781D02*
X13582465Y-12581781D01*
X13582465Y-12581781D02*
X13563418Y-12572257D01*
X13563418Y-12572257D02*
X13553894Y-12562734D01*
X13553894Y-12562734D02*
X13544370Y-12543686D01*
X13544370Y-12543686D02*
X13534846Y-12505591D01*
X13534846Y-12505591D02*
X13534846Y-12457972D01*
X13534846Y-12457972D02*
X13544370Y-12419876D01*
X13544370Y-12419876D02*
X13553894Y-12400829D01*
X13553894Y-12400829D02*
X13563418Y-12391305D01*
X13563418Y-12391305D02*
X13582465Y-12381781D01*
X13772941Y-12381781D02*
X13791989Y-12381781D01*
X13791989Y-12381781D02*
X13811037Y-12391305D01*
X13811037Y-12391305D02*
X13820560Y-12400829D01*
X13820560Y-12400829D02*
X13830084Y-12419876D01*
X13830084Y-12419876D02*
X13839608Y-12457972D01*
X13839608Y-12457972D02*
X13839608Y-12505591D01*
X13839608Y-12505591D02*
X13830084Y-12543686D01*
X13830084Y-12543686D02*
X13820560Y-12562734D01*
X13820560Y-12562734D02*
X13811037Y-12572257D01*
X13811037Y-12572257D02*
X13791989Y-12581781D01*
X13791989Y-12581781D02*
X13772941Y-12581781D01*
X13772941Y-12581781D02*
X13753894Y-12572257D01*
X13753894Y-12572257D02*
X13744370Y-12562734D01*
X13744370Y-12562734D02*
X13734846Y-12543686D01*
X13734846Y-12543686D02*
X13725322Y-12505591D01*
X13725322Y-12505591D02*
X13725322Y-12457972D01*
X13725322Y-12457972D02*
X13734846Y-12419876D01*
X13734846Y-12419876D02*
X13744370Y-12400829D01*
X13744370Y-12400829D02*
X13753894Y-12391305D01*
X13753894Y-12391305D02*
X13772941Y-12381781D01*
X13925322Y-12581781D02*
X13925322Y-12448448D01*
X13925322Y-12467495D02*
X13934846Y-12457972D01*
X13934846Y-12457972D02*
X13953894Y-12448448D01*
X13953894Y-12448448D02*
X13982465Y-12448448D01*
X13982465Y-12448448D02*
X14001513Y-12457972D01*
X14001513Y-12457972D02*
X14011037Y-12477019D01*
X14011037Y-12477019D02*
X14011037Y-12581781D01*
X14011037Y-12477019D02*
X14020560Y-12457972D01*
X14020560Y-12457972D02*
X14039608Y-12448448D01*
X14039608Y-12448448D02*
X14068179Y-12448448D01*
X14068179Y-12448448D02*
X14087227Y-12457972D01*
X14087227Y-12457972D02*
X14096751Y-12477019D01*
X14096751Y-12477019D02*
X14096751Y-12581781D01*
X14191989Y-12581781D02*
X14191989Y-12448448D01*
X14191989Y-12467495D02*
X14201513Y-12457972D01*
X14201513Y-12457972D02*
X14220560Y-12448448D01*
X14220560Y-12448448D02*
X14249132Y-12448448D01*
X14249132Y-12448448D02*
X14268180Y-12457972D01*
X14268180Y-12457972D02*
X14277703Y-12477019D01*
X14277703Y-12477019D02*
X14277703Y-12581781D01*
X14277703Y-12477019D02*
X14287227Y-12457972D01*
X14287227Y-12457972D02*
X14306275Y-12448448D01*
X14306275Y-12448448D02*
X14334846Y-12448448D01*
X14334846Y-12448448D02*
X14353894Y-12457972D01*
X14353894Y-12457972D02*
X14363418Y-12477019D01*
X14363418Y-12477019D02*
X14363418Y-12581781D01*
X14753894Y-12372257D02*
X14582465Y-12629400D01*
X15011037Y-12381781D02*
X15030084Y-12381781D01*
X15030084Y-12381781D02*
X15049132Y-12391305D01*
X15049132Y-12391305D02*
X15058656Y-12400829D01*
X15058656Y-12400829D02*
X15068180Y-12419876D01*
X15068180Y-12419876D02*
X15077703Y-12457972D01*
X15077703Y-12457972D02*
X15077703Y-12505591D01*
X15077703Y-12505591D02*
X15068180Y-12543686D01*
X15068180Y-12543686D02*
X15058656Y-12562734D01*
X15058656Y-12562734D02*
X15049132Y-12572257D01*
X15049132Y-12572257D02*
X15030084Y-12581781D01*
X15030084Y-12581781D02*
X15011037Y-12581781D01*
X15011037Y-12581781D02*
X14991989Y-12572257D01*
X14991989Y-12572257D02*
X14982465Y-12562734D01*
X14982465Y-12562734D02*
X14972942Y-12543686D01*
X14972942Y-12543686D02*
X14963418Y-12505591D01*
X14963418Y-12505591D02*
X14963418Y-12457972D01*
X14963418Y-12457972D02*
X14972942Y-12419876D01*
X14972942Y-12419876D02*
X14982465Y-12400829D01*
X14982465Y-12400829D02*
X14991989Y-12391305D01*
X14991989Y-12391305D02*
X15011037Y-12381781D01*
X15163418Y-12562734D02*
X15172942Y-12572257D01*
X15172942Y-12572257D02*
X15163418Y-12581781D01*
X15163418Y-12581781D02*
X15153894Y-12572257D01*
X15153894Y-12572257D02*
X15163418Y-12562734D01*
X15163418Y-12562734D02*
X15163418Y-12581781D01*
X15296751Y-12381781D02*
X15315799Y-12381781D01*
X15315799Y-12381781D02*
X15334846Y-12391305D01*
X15334846Y-12391305D02*
X15344370Y-12400829D01*
X15344370Y-12400829D02*
X15353894Y-12419876D01*
X15353894Y-12419876D02*
X15363418Y-12457972D01*
X15363418Y-12457972D02*
X15363418Y-12505591D01*
X15363418Y-12505591D02*
X15353894Y-12543686D01*
X15353894Y-12543686D02*
X15344370Y-12562734D01*
X15344370Y-12562734D02*
X15334846Y-12572257D01*
X15334846Y-12572257D02*
X15315799Y-12581781D01*
X15315799Y-12581781D02*
X15296751Y-12581781D01*
X15296751Y-12581781D02*
X15277703Y-12572257D01*
X15277703Y-12572257D02*
X15268180Y-12562734D01*
X15268180Y-12562734D02*
X15258656Y-12543686D01*
X15258656Y-12543686D02*
X15249132Y-12505591D01*
X15249132Y-12505591D02*
X15249132Y-12457972D01*
X15249132Y-12457972D02*
X15258656Y-12419876D01*
X15258656Y-12419876D02*
X15268180Y-12400829D01*
X15268180Y-12400829D02*
X15277703Y-12391305D01*
X15277703Y-12391305D02*
X15296751Y-12381781D01*
X15553894Y-12581781D02*
X15439608Y-12581781D01*
X15496751Y-12581781D02*
X15496751Y-12381781D01*
X15496751Y-12381781D02*
X15477703Y-12410353D01*
X15477703Y-12410353D02*
X15458656Y-12429400D01*
X15458656Y-12429400D02*
X15439608Y-12438924D01*
X15744370Y-12581781D02*
X15630084Y-12581781D01*
X15687227Y-12581781D02*
X15687227Y-12381781D01*
X15687227Y-12381781D02*
X15668180Y-12410353D01*
X15668180Y-12410353D02*
X15649132Y-12429400D01*
X15649132Y-12429400D02*
X15630084Y-12438924D01*
X15858656Y-12467495D02*
X15839608Y-12457972D01*
X15839608Y-12457972D02*
X15830084Y-12448448D01*
X15830084Y-12448448D02*
X15820561Y-12429400D01*
X15820561Y-12429400D02*
X15820561Y-12419876D01*
X15820561Y-12419876D02*
X15830084Y-12400829D01*
X15830084Y-12400829D02*
X15839608Y-12391305D01*
X15839608Y-12391305D02*
X15858656Y-12381781D01*
X15858656Y-12381781D02*
X15896751Y-12381781D01*
X15896751Y-12381781D02*
X15915799Y-12391305D01*
X15915799Y-12391305D02*
X15925323Y-12400829D01*
X15925323Y-12400829D02*
X15934846Y-12419876D01*
X15934846Y-12419876D02*
X15934846Y-12429400D01*
X15934846Y-12429400D02*
X15925323Y-12448448D01*
X15925323Y-12448448D02*
X15915799Y-12457972D01*
X15915799Y-12457972D02*
X15896751Y-12467495D01*
X15896751Y-12467495D02*
X15858656Y-12467495D01*
X15858656Y-12467495D02*
X15839608Y-12477019D01*
X15839608Y-12477019D02*
X15830084Y-12486543D01*
X15830084Y-12486543D02*
X15820561Y-12505591D01*
X15820561Y-12505591D02*
X15820561Y-12543686D01*
X15820561Y-12543686D02*
X15830084Y-12562734D01*
X15830084Y-12562734D02*
X15839608Y-12572257D01*
X15839608Y-12572257D02*
X15858656Y-12581781D01*
X15858656Y-12581781D02*
X15896751Y-12581781D01*
X15896751Y-12581781D02*
X15915799Y-12572257D01*
X15915799Y-12572257D02*
X15925323Y-12562734D01*
X15925323Y-12562734D02*
X15934846Y-12543686D01*
X15934846Y-12543686D02*
X15934846Y-12505591D01*
X15934846Y-12505591D02*
X15925323Y-12486543D01*
X15925323Y-12486543D02*
X15915799Y-12477019D01*
X15915799Y-12477019D02*
X15896751Y-12467495D01*
X16011037Y-12381781D02*
X16011037Y-12419876D01*
X16087227Y-12381781D02*
X16087227Y-12419876D01*
X16382466Y-12657972D02*
X16372942Y-12648448D01*
X16372942Y-12648448D02*
X16353894Y-12619876D01*
X16353894Y-12619876D02*
X16344370Y-12600829D01*
X16344370Y-12600829D02*
X16334846Y-12572257D01*
X16334846Y-12572257D02*
X16325323Y-12524638D01*
X16325323Y-12524638D02*
X16325323Y-12486543D01*
X16325323Y-12486543D02*
X16334846Y-12438924D01*
X16334846Y-12438924D02*
X16344370Y-12410353D01*
X16344370Y-12410353D02*
X16353894Y-12391305D01*
X16353894Y-12391305D02*
X16372942Y-12362734D01*
X16372942Y-12362734D02*
X16382466Y-12353210D01*
X16563418Y-12581781D02*
X16449132Y-12581781D01*
X16506275Y-12581781D02*
X16506275Y-12381781D01*
X16506275Y-12381781D02*
X16487227Y-12410353D01*
X16487227Y-12410353D02*
X16468180Y-12429400D01*
X16468180Y-12429400D02*
X16449132Y-12438924D01*
X16801513Y-12581781D02*
X16801513Y-12381781D01*
X16887228Y-12581781D02*
X16887228Y-12477019D01*
X16887228Y-12477019D02*
X16877704Y-12457972D01*
X16877704Y-12457972D02*
X16858656Y-12448448D01*
X16858656Y-12448448D02*
X16830085Y-12448448D01*
X16830085Y-12448448D02*
X16811037Y-12457972D01*
X16811037Y-12457972D02*
X16801513Y-12467495D01*
X17011037Y-12581781D02*
X16991989Y-12572257D01*
X16991989Y-12572257D02*
X16982466Y-12562734D01*
X16982466Y-12562734D02*
X16972942Y-12543686D01*
X16972942Y-12543686D02*
X16972942Y-12486543D01*
X16972942Y-12486543D02*
X16982466Y-12467495D01*
X16982466Y-12467495D02*
X16991989Y-12457972D01*
X16991989Y-12457972D02*
X17011037Y-12448448D01*
X17011037Y-12448448D02*
X17039609Y-12448448D01*
X17039609Y-12448448D02*
X17058656Y-12457972D01*
X17058656Y-12457972D02*
X17068180Y-12467495D01*
X17068180Y-12467495D02*
X17077704Y-12486543D01*
X17077704Y-12486543D02*
X17077704Y-12543686D01*
X17077704Y-12543686D02*
X17068180Y-12562734D01*
X17068180Y-12562734D02*
X17058656Y-12572257D01*
X17058656Y-12572257D02*
X17039609Y-12581781D01*
X17039609Y-12581781D02*
X17011037Y-12581781D01*
X17191989Y-12581781D02*
X17172942Y-12572257D01*
X17172942Y-12572257D02*
X17163418Y-12553210D01*
X17163418Y-12553210D02*
X17163418Y-12381781D01*
X17344370Y-12572257D02*
X17325323Y-12581781D01*
X17325323Y-12581781D02*
X17287228Y-12581781D01*
X17287228Y-12581781D02*
X17268180Y-12572257D01*
X17268180Y-12572257D02*
X17258656Y-12553210D01*
X17258656Y-12553210D02*
X17258656Y-12477019D01*
X17258656Y-12477019D02*
X17268180Y-12457972D01*
X17268180Y-12457972D02*
X17287228Y-12448448D01*
X17287228Y-12448448D02*
X17325323Y-12448448D01*
X17325323Y-12448448D02*
X17344370Y-12457972D01*
X17344370Y-12457972D02*
X17353894Y-12477019D01*
X17353894Y-12477019D02*
X17353894Y-12496067D01*
X17353894Y-12496067D02*
X17258656Y-12515115D01*
X17420561Y-12657972D02*
X17430085Y-12648448D01*
X17430085Y-12648448D02*
X17449132Y-12619876D01*
X17449132Y-12619876D02*
X17458656Y-12600829D01*
X17458656Y-12600829D02*
X17468180Y-12572257D01*
X17468180Y-12572257D02*
X17477704Y-12524638D01*
X17477704Y-12524638D02*
X17477704Y-12486543D01*
X17477704Y-12486543D02*
X17468180Y-12438924D01*
X17468180Y-12438924D02*
X17458656Y-12410353D01*
X17458656Y-12410353D02*
X17449132Y-12391305D01*
X17449132Y-12391305D02*
X17430085Y-12362734D01*
X17430085Y-12362734D02*
X17420561Y-12353210D01*
D10*
X12787403Y-12734297D02*
X12787403Y-12774297D01*
X12767403Y-12754297D02*
X12807403Y-12754297D01*
D11*
X13106275Y-12645781D02*
X13125322Y-12645781D01*
X13125322Y-12645781D02*
X13144370Y-12655305D01*
X13144370Y-12655305D02*
X13153894Y-12664829D01*
X13153894Y-12664829D02*
X13163418Y-12683876D01*
X13163418Y-12683876D02*
X13172941Y-12721972D01*
X13172941Y-12721972D02*
X13172941Y-12769591D01*
X13172941Y-12769591D02*
X13163418Y-12807686D01*
X13163418Y-12807686D02*
X13153894Y-12826734D01*
X13153894Y-12826734D02*
X13144370Y-12836257D01*
X13144370Y-12836257D02*
X13125322Y-12845781D01*
X13125322Y-12845781D02*
X13106275Y-12845781D01*
X13106275Y-12845781D02*
X13087227Y-12836257D01*
X13087227Y-12836257D02*
X13077703Y-12826734D01*
X13077703Y-12826734D02*
X13068179Y-12807686D01*
X13068179Y-12807686D02*
X13058656Y-12769591D01*
X13058656Y-12769591D02*
X13058656Y-12721972D01*
X13058656Y-12721972D02*
X13068179Y-12683876D01*
X13068179Y-12683876D02*
X13077703Y-12664829D01*
X13077703Y-12664829D02*
X13087227Y-12655305D01*
X13087227Y-12655305D02*
X13106275Y-12645781D01*
X13258656Y-12826734D02*
X13268179Y-12836257D01*
X13268179Y-12836257D02*
X13258656Y-12845781D01*
X13258656Y-12845781D02*
X13249132Y-12836257D01*
X13249132Y-12836257D02*
X13258656Y-12826734D01*
X13258656Y-12826734D02*
X13258656Y-12845781D01*
X13439608Y-12712448D02*
X13439608Y-12845781D01*
X13391989Y-12636257D02*
X13344370Y-12779115D01*
X13344370Y-12779115D02*
X13468179Y-12779115D01*
X13582465Y-12645781D02*
X13601513Y-12645781D01*
X13601513Y-12645781D02*
X13620560Y-12655305D01*
X13620560Y-12655305D02*
X13630084Y-12664829D01*
X13630084Y-12664829D02*
X13639608Y-12683876D01*
X13639608Y-12683876D02*
X13649132Y-12721972D01*
X13649132Y-12721972D02*
X13649132Y-12769591D01*
X13649132Y-12769591D02*
X13639608Y-12807686D01*
X13639608Y-12807686D02*
X13630084Y-12826734D01*
X13630084Y-12826734D02*
X13620560Y-12836257D01*
X13620560Y-12836257D02*
X13601513Y-12845781D01*
X13601513Y-12845781D02*
X13582465Y-12845781D01*
X13582465Y-12845781D02*
X13563418Y-12836257D01*
X13563418Y-12836257D02*
X13553894Y-12826734D01*
X13553894Y-12826734D02*
X13544370Y-12807686D01*
X13544370Y-12807686D02*
X13534846Y-12769591D01*
X13534846Y-12769591D02*
X13534846Y-12721972D01*
X13534846Y-12721972D02*
X13544370Y-12683876D01*
X13544370Y-12683876D02*
X13553894Y-12664829D01*
X13553894Y-12664829D02*
X13563418Y-12655305D01*
X13563418Y-12655305D02*
X13582465Y-12645781D01*
X13772941Y-12645781D02*
X13791989Y-12645781D01*
X13791989Y-12645781D02*
X13811037Y-12655305D01*
X13811037Y-12655305D02*
X13820560Y-12664829D01*
X13820560Y-12664829D02*
X13830084Y-12683876D01*
X13830084Y-12683876D02*
X13839608Y-12721972D01*
X13839608Y-12721972D02*
X13839608Y-12769591D01*
X13839608Y-12769591D02*
X13830084Y-12807686D01*
X13830084Y-12807686D02*
X13820560Y-12826734D01*
X13820560Y-12826734D02*
X13811037Y-12836257D01*
X13811037Y-12836257D02*
X13791989Y-12845781D01*
X13791989Y-12845781D02*
X13772941Y-12845781D01*
X13772941Y-12845781D02*
X13753894Y-12836257D01*
X13753894Y-12836257D02*
X13744370Y-12826734D01*
X13744370Y-12826734D02*
X13734846Y-12807686D01*
X13734846Y-12807686D02*
X13725322Y-12769591D01*
X13725322Y-12769591D02*
X13725322Y-12721972D01*
X13725322Y-12721972D02*
X13734846Y-12683876D01*
X13734846Y-12683876D02*
X13744370Y-12664829D01*
X13744370Y-12664829D02*
X13753894Y-12655305D01*
X13753894Y-12655305D02*
X13772941Y-12645781D01*
X13925322Y-12845781D02*
X13925322Y-12712448D01*
X13925322Y-12731495D02*
X13934846Y-12721972D01*
X13934846Y-12721972D02*
X13953894Y-12712448D01*
X13953894Y-12712448D02*
X13982465Y-12712448D01*
X13982465Y-12712448D02*
X14001513Y-12721972D01*
X14001513Y-12721972D02*
X14011037Y-12741019D01*
X14011037Y-12741019D02*
X14011037Y-12845781D01*
X14011037Y-12741019D02*
X14020560Y-12721972D01*
X14020560Y-12721972D02*
X14039608Y-12712448D01*
X14039608Y-12712448D02*
X14068179Y-12712448D01*
X14068179Y-12712448D02*
X14087227Y-12721972D01*
X14087227Y-12721972D02*
X14096751Y-12741019D01*
X14096751Y-12741019D02*
X14096751Y-12845781D01*
X14191989Y-12845781D02*
X14191989Y-12712448D01*
X14191989Y-12731495D02*
X14201513Y-12721972D01*
X14201513Y-12721972D02*
X14220560Y-12712448D01*
X14220560Y-12712448D02*
X14249132Y-12712448D01*
X14249132Y-12712448D02*
X14268180Y-12721972D01*
X14268180Y-12721972D02*
X14277703Y-12741019D01*
X14277703Y-12741019D02*
X14277703Y-12845781D01*
X14277703Y-12741019D02*
X14287227Y-12721972D01*
X14287227Y-12721972D02*
X14306275Y-12712448D01*
X14306275Y-12712448D02*
X14334846Y-12712448D01*
X14334846Y-12712448D02*
X14353894Y-12721972D01*
X14353894Y-12721972D02*
X14363418Y-12741019D01*
X14363418Y-12741019D02*
X14363418Y-12845781D01*
X14753894Y-12636257D02*
X14582465Y-12893400D01*
X15011037Y-12645781D02*
X15030084Y-12645781D01*
X15030084Y-12645781D02*
X15049132Y-12655305D01*
X15049132Y-12655305D02*
X15058656Y-12664829D01*
X15058656Y-12664829D02*
X15068180Y-12683876D01*
X15068180Y-12683876D02*
X15077703Y-12721972D01*
X15077703Y-12721972D02*
X15077703Y-12769591D01*
X15077703Y-12769591D02*
X15068180Y-12807686D01*
X15068180Y-12807686D02*
X15058656Y-12826734D01*
X15058656Y-12826734D02*
X15049132Y-12836257D01*
X15049132Y-12836257D02*
X15030084Y-12845781D01*
X15030084Y-12845781D02*
X15011037Y-12845781D01*
X15011037Y-12845781D02*
X14991989Y-12836257D01*
X14991989Y-12836257D02*
X14982465Y-12826734D01*
X14982465Y-12826734D02*
X14972942Y-12807686D01*
X14972942Y-12807686D02*
X14963418Y-12769591D01*
X14963418Y-12769591D02*
X14963418Y-12721972D01*
X14963418Y-12721972D02*
X14972942Y-12683876D01*
X14972942Y-12683876D02*
X14982465Y-12664829D01*
X14982465Y-12664829D02*
X14991989Y-12655305D01*
X14991989Y-12655305D02*
X15011037Y-12645781D01*
X15163418Y-12826734D02*
X15172942Y-12836257D01*
X15172942Y-12836257D02*
X15163418Y-12845781D01*
X15163418Y-12845781D02*
X15153894Y-12836257D01*
X15153894Y-12836257D02*
X15163418Y-12826734D01*
X15163418Y-12826734D02*
X15163418Y-12845781D01*
X15296751Y-12645781D02*
X15315799Y-12645781D01*
X15315799Y-12645781D02*
X15334846Y-12655305D01*
X15334846Y-12655305D02*
X15344370Y-12664829D01*
X15344370Y-12664829D02*
X15353894Y-12683876D01*
X15353894Y-12683876D02*
X15363418Y-12721972D01*
X15363418Y-12721972D02*
X15363418Y-12769591D01*
X15363418Y-12769591D02*
X15353894Y-12807686D01*
X15353894Y-12807686D02*
X15344370Y-12826734D01*
X15344370Y-12826734D02*
X15334846Y-12836257D01*
X15334846Y-12836257D02*
X15315799Y-12845781D01*
X15315799Y-12845781D02*
X15296751Y-12845781D01*
X15296751Y-12845781D02*
X15277703Y-12836257D01*
X15277703Y-12836257D02*
X15268180Y-12826734D01*
X15268180Y-12826734D02*
X15258656Y-12807686D01*
X15258656Y-12807686D02*
X15249132Y-12769591D01*
X15249132Y-12769591D02*
X15249132Y-12721972D01*
X15249132Y-12721972D02*
X15258656Y-12683876D01*
X15258656Y-12683876D02*
X15268180Y-12664829D01*
X15268180Y-12664829D02*
X15277703Y-12655305D01*
X15277703Y-12655305D02*
X15296751Y-12645781D01*
X15553894Y-12845781D02*
X15439608Y-12845781D01*
X15496751Y-12845781D02*
X15496751Y-12645781D01*
X15496751Y-12645781D02*
X15477703Y-12674353D01*
X15477703Y-12674353D02*
X15458656Y-12693400D01*
X15458656Y-12693400D02*
X15439608Y-12702924D01*
X15734846Y-12645781D02*
X15639608Y-12645781D01*
X15639608Y-12645781D02*
X15630084Y-12741019D01*
X15630084Y-12741019D02*
X15639608Y-12731495D01*
X15639608Y-12731495D02*
X15658656Y-12721972D01*
X15658656Y-12721972D02*
X15706275Y-12721972D01*
X15706275Y-12721972D02*
X15725323Y-12731495D01*
X15725323Y-12731495D02*
X15734846Y-12741019D01*
X15734846Y-12741019D02*
X15744370Y-12760067D01*
X15744370Y-12760067D02*
X15744370Y-12807686D01*
X15744370Y-12807686D02*
X15734846Y-12826734D01*
X15734846Y-12826734D02*
X15725323Y-12836257D01*
X15725323Y-12836257D02*
X15706275Y-12845781D01*
X15706275Y-12845781D02*
X15658656Y-12845781D01*
X15658656Y-12845781D02*
X15639608Y-12836257D01*
X15639608Y-12836257D02*
X15630084Y-12826734D01*
X15811037Y-12645781D02*
X15944370Y-12645781D01*
X15944370Y-12645781D02*
X15858656Y-12845781D01*
X16011037Y-12645781D02*
X16011037Y-12683876D01*
X16087227Y-12645781D02*
X16087227Y-12683876D01*
X16382466Y-12921972D02*
X16372942Y-12912448D01*
X16372942Y-12912448D02*
X16353894Y-12883876D01*
X16353894Y-12883876D02*
X16344370Y-12864829D01*
X16344370Y-12864829D02*
X16334846Y-12836257D01*
X16334846Y-12836257D02*
X16325323Y-12788638D01*
X16325323Y-12788638D02*
X16325323Y-12750543D01*
X16325323Y-12750543D02*
X16334846Y-12702924D01*
X16334846Y-12702924D02*
X16344370Y-12674353D01*
X16344370Y-12674353D02*
X16353894Y-12655305D01*
X16353894Y-12655305D02*
X16372942Y-12626734D01*
X16372942Y-12626734D02*
X16382466Y-12617210D01*
X16563418Y-12845781D02*
X16449132Y-12845781D01*
X16506275Y-12845781D02*
X16506275Y-12645781D01*
X16506275Y-12645781D02*
X16487227Y-12674353D01*
X16487227Y-12674353D02*
X16468180Y-12693400D01*
X16468180Y-12693400D02*
X16449132Y-12702924D01*
X16801513Y-12845781D02*
X16801513Y-12645781D01*
X16887228Y-12845781D02*
X16887228Y-12741019D01*
X16887228Y-12741019D02*
X16877704Y-12721972D01*
X16877704Y-12721972D02*
X16858656Y-12712448D01*
X16858656Y-12712448D02*
X16830085Y-12712448D01*
X16830085Y-12712448D02*
X16811037Y-12721972D01*
X16811037Y-12721972D02*
X16801513Y-12731495D01*
X17011037Y-12845781D02*
X16991989Y-12836257D01*
X16991989Y-12836257D02*
X16982466Y-12826734D01*
X16982466Y-12826734D02*
X16972942Y-12807686D01*
X16972942Y-12807686D02*
X16972942Y-12750543D01*
X16972942Y-12750543D02*
X16982466Y-12731495D01*
X16982466Y-12731495D02*
X16991989Y-12721972D01*
X16991989Y-12721972D02*
X17011037Y-12712448D01*
X17011037Y-12712448D02*
X17039609Y-12712448D01*
X17039609Y-12712448D02*
X17058656Y-12721972D01*
X17058656Y-12721972D02*
X17068180Y-12731495D01*
X17068180Y-12731495D02*
X17077704Y-12750543D01*
X17077704Y-12750543D02*
X17077704Y-12807686D01*
X17077704Y-12807686D02*
X17068180Y-12826734D01*
X17068180Y-12826734D02*
X17058656Y-12836257D01*
X17058656Y-12836257D02*
X17039609Y-12845781D01*
X17039609Y-12845781D02*
X17011037Y-12845781D01*
X17191989Y-12845781D02*
X17172942Y-12836257D01*
X17172942Y-12836257D02*
X17163418Y-12817210D01*
X17163418Y-12817210D02*
X17163418Y-12645781D01*
X17344370Y-12836257D02*
X17325323Y-12845781D01*
X17325323Y-12845781D02*
X17287228Y-12845781D01*
X17287228Y-12845781D02*
X17268180Y-12836257D01*
X17268180Y-12836257D02*
X17258656Y-12817210D01*
X17258656Y-12817210D02*
X17258656Y-12741019D01*
X17258656Y-12741019D02*
X17268180Y-12721972D01*
X17268180Y-12721972D02*
X17287228Y-12712448D01*
X17287228Y-12712448D02*
X17325323Y-12712448D01*
X17325323Y-12712448D02*
X17344370Y-12721972D01*
X17344370Y-12721972D02*
X17353894Y-12741019D01*
X17353894Y-12741019D02*
X17353894Y-12760067D01*
X17353894Y-12760067D02*
X17258656Y-12779115D01*
X17420561Y-12921972D02*
X17430085Y-12912448D01*
X17430085Y-12912448D02*
X17449132Y-12883876D01*
X17449132Y-12883876D02*
X17458656Y-12864829D01*
X17458656Y-12864829D02*
X17468180Y-12836257D01*
X17468180Y-12836257D02*
X17477704Y-12788638D01*
X17477704Y-12788638D02*
X17477704Y-12750543D01*
X17477704Y-12750543D02*
X17468180Y-12702924D01*
X17468180Y-12702924D02*
X17458656Y-12674353D01*
X17458656Y-12674353D02*
X17449132Y-12655305D01*
X17449132Y-12655305D02*
X17430085Y-12626734D01*
X17430085Y-12626734D02*
X17420561Y-12617210D01*
D10*
X12798616Y-13039511D02*
X12798616Y-12997084D01*
X12756189Y-12997084D01*
X12756189Y-13039511D01*
X12798616Y-13039511D01*
D11*
X13106275Y-12909781D02*
X13125322Y-12909781D01*
X13125322Y-12909781D02*
X13144370Y-12919305D01*
X13144370Y-12919305D02*
X13153894Y-12928829D01*
X13153894Y-12928829D02*
X13163418Y-12947876D01*
X13163418Y-12947876D02*
X13172941Y-12985972D01*
X13172941Y-12985972D02*
X13172941Y-13033591D01*
X13172941Y-13033591D02*
X13163418Y-13071686D01*
X13163418Y-13071686D02*
X13153894Y-13090734D01*
X13153894Y-13090734D02*
X13144370Y-13100257D01*
X13144370Y-13100257D02*
X13125322Y-13109781D01*
X13125322Y-13109781D02*
X13106275Y-13109781D01*
X13106275Y-13109781D02*
X13087227Y-13100257D01*
X13087227Y-13100257D02*
X13077703Y-13090734D01*
X13077703Y-13090734D02*
X13068179Y-13071686D01*
X13068179Y-13071686D02*
X13058656Y-13033591D01*
X13058656Y-13033591D02*
X13058656Y-12985972D01*
X13058656Y-12985972D02*
X13068179Y-12947876D01*
X13068179Y-12947876D02*
X13077703Y-12928829D01*
X13077703Y-12928829D02*
X13087227Y-12919305D01*
X13087227Y-12919305D02*
X13106275Y-12909781D01*
X13258656Y-13090734D02*
X13268179Y-13100257D01*
X13268179Y-13100257D02*
X13258656Y-13109781D01*
X13258656Y-13109781D02*
X13249132Y-13100257D01*
X13249132Y-13100257D02*
X13258656Y-13090734D01*
X13258656Y-13090734D02*
X13258656Y-13109781D01*
X13439608Y-12909781D02*
X13401513Y-12909781D01*
X13401513Y-12909781D02*
X13382465Y-12919305D01*
X13382465Y-12919305D02*
X13372941Y-12928829D01*
X13372941Y-12928829D02*
X13353894Y-12957400D01*
X13353894Y-12957400D02*
X13344370Y-12995495D01*
X13344370Y-12995495D02*
X13344370Y-13071686D01*
X13344370Y-13071686D02*
X13353894Y-13090734D01*
X13353894Y-13090734D02*
X13363418Y-13100257D01*
X13363418Y-13100257D02*
X13382465Y-13109781D01*
X13382465Y-13109781D02*
X13420560Y-13109781D01*
X13420560Y-13109781D02*
X13439608Y-13100257D01*
X13439608Y-13100257D02*
X13449132Y-13090734D01*
X13449132Y-13090734D02*
X13458656Y-13071686D01*
X13458656Y-13071686D02*
X13458656Y-13024067D01*
X13458656Y-13024067D02*
X13449132Y-13005019D01*
X13449132Y-13005019D02*
X13439608Y-12995495D01*
X13439608Y-12995495D02*
X13420560Y-12985972D01*
X13420560Y-12985972D02*
X13382465Y-12985972D01*
X13382465Y-12985972D02*
X13363418Y-12995495D01*
X13363418Y-12995495D02*
X13353894Y-13005019D01*
X13353894Y-13005019D02*
X13344370Y-13024067D01*
X13582465Y-12909781D02*
X13601513Y-12909781D01*
X13601513Y-12909781D02*
X13620560Y-12919305D01*
X13620560Y-12919305D02*
X13630084Y-12928829D01*
X13630084Y-12928829D02*
X13639608Y-12947876D01*
X13639608Y-12947876D02*
X13649132Y-12985972D01*
X13649132Y-12985972D02*
X13649132Y-13033591D01*
X13649132Y-13033591D02*
X13639608Y-13071686D01*
X13639608Y-13071686D02*
X13630084Y-13090734D01*
X13630084Y-13090734D02*
X13620560Y-13100257D01*
X13620560Y-13100257D02*
X13601513Y-13109781D01*
X13601513Y-13109781D02*
X13582465Y-13109781D01*
X13582465Y-13109781D02*
X13563418Y-13100257D01*
X13563418Y-13100257D02*
X13553894Y-13090734D01*
X13553894Y-13090734D02*
X13544370Y-13071686D01*
X13544370Y-13071686D02*
X13534846Y-13033591D01*
X13534846Y-13033591D02*
X13534846Y-12985972D01*
X13534846Y-12985972D02*
X13544370Y-12947876D01*
X13544370Y-12947876D02*
X13553894Y-12928829D01*
X13553894Y-12928829D02*
X13563418Y-12919305D01*
X13563418Y-12919305D02*
X13582465Y-12909781D01*
X13772941Y-12909781D02*
X13791989Y-12909781D01*
X13791989Y-12909781D02*
X13811037Y-12919305D01*
X13811037Y-12919305D02*
X13820560Y-12928829D01*
X13820560Y-12928829D02*
X13830084Y-12947876D01*
X13830084Y-12947876D02*
X13839608Y-12985972D01*
X13839608Y-12985972D02*
X13839608Y-13033591D01*
X13839608Y-13033591D02*
X13830084Y-13071686D01*
X13830084Y-13071686D02*
X13820560Y-13090734D01*
X13820560Y-13090734D02*
X13811037Y-13100257D01*
X13811037Y-13100257D02*
X13791989Y-13109781D01*
X13791989Y-13109781D02*
X13772941Y-13109781D01*
X13772941Y-13109781D02*
X13753894Y-13100257D01*
X13753894Y-13100257D02*
X13744370Y-13090734D01*
X13744370Y-13090734D02*
X13734846Y-13071686D01*
X13734846Y-13071686D02*
X13725322Y-13033591D01*
X13725322Y-13033591D02*
X13725322Y-12985972D01*
X13725322Y-12985972D02*
X13734846Y-12947876D01*
X13734846Y-12947876D02*
X13744370Y-12928829D01*
X13744370Y-12928829D02*
X13753894Y-12919305D01*
X13753894Y-12919305D02*
X13772941Y-12909781D01*
X13925322Y-13109781D02*
X13925322Y-12976448D01*
X13925322Y-12995495D02*
X13934846Y-12985972D01*
X13934846Y-12985972D02*
X13953894Y-12976448D01*
X13953894Y-12976448D02*
X13982465Y-12976448D01*
X13982465Y-12976448D02*
X14001513Y-12985972D01*
X14001513Y-12985972D02*
X14011037Y-13005019D01*
X14011037Y-13005019D02*
X14011037Y-13109781D01*
X14011037Y-13005019D02*
X14020560Y-12985972D01*
X14020560Y-12985972D02*
X14039608Y-12976448D01*
X14039608Y-12976448D02*
X14068179Y-12976448D01*
X14068179Y-12976448D02*
X14087227Y-12985972D01*
X14087227Y-12985972D02*
X14096751Y-13005019D01*
X14096751Y-13005019D02*
X14096751Y-13109781D01*
X14191989Y-13109781D02*
X14191989Y-12976448D01*
X14191989Y-12995495D02*
X14201513Y-12985972D01*
X14201513Y-12985972D02*
X14220560Y-12976448D01*
X14220560Y-12976448D02*
X14249132Y-12976448D01*
X14249132Y-12976448D02*
X14268180Y-12985972D01*
X14268180Y-12985972D02*
X14277703Y-13005019D01*
X14277703Y-13005019D02*
X14277703Y-13109781D01*
X14277703Y-13005019D02*
X14287227Y-12985972D01*
X14287227Y-12985972D02*
X14306275Y-12976448D01*
X14306275Y-12976448D02*
X14334846Y-12976448D01*
X14334846Y-12976448D02*
X14353894Y-12985972D01*
X14353894Y-12985972D02*
X14363418Y-13005019D01*
X14363418Y-13005019D02*
X14363418Y-13109781D01*
X14753894Y-12900257D02*
X14582465Y-13157400D01*
X15011037Y-12909781D02*
X15030084Y-12909781D01*
X15030084Y-12909781D02*
X15049132Y-12919305D01*
X15049132Y-12919305D02*
X15058656Y-12928829D01*
X15058656Y-12928829D02*
X15068180Y-12947876D01*
X15068180Y-12947876D02*
X15077703Y-12985972D01*
X15077703Y-12985972D02*
X15077703Y-13033591D01*
X15077703Y-13033591D02*
X15068180Y-13071686D01*
X15068180Y-13071686D02*
X15058656Y-13090734D01*
X15058656Y-13090734D02*
X15049132Y-13100257D01*
X15049132Y-13100257D02*
X15030084Y-13109781D01*
X15030084Y-13109781D02*
X15011037Y-13109781D01*
X15011037Y-13109781D02*
X14991989Y-13100257D01*
X14991989Y-13100257D02*
X14982465Y-13090734D01*
X14982465Y-13090734D02*
X14972942Y-13071686D01*
X14972942Y-13071686D02*
X14963418Y-13033591D01*
X14963418Y-13033591D02*
X14963418Y-12985972D01*
X14963418Y-12985972D02*
X14972942Y-12947876D01*
X14972942Y-12947876D02*
X14982465Y-12928829D01*
X14982465Y-12928829D02*
X14991989Y-12919305D01*
X14991989Y-12919305D02*
X15011037Y-12909781D01*
X15163418Y-13090734D02*
X15172942Y-13100257D01*
X15172942Y-13100257D02*
X15163418Y-13109781D01*
X15163418Y-13109781D02*
X15153894Y-13100257D01*
X15153894Y-13100257D02*
X15163418Y-13090734D01*
X15163418Y-13090734D02*
X15163418Y-13109781D01*
X15296751Y-12909781D02*
X15315799Y-12909781D01*
X15315799Y-12909781D02*
X15334846Y-12919305D01*
X15334846Y-12919305D02*
X15344370Y-12928829D01*
X15344370Y-12928829D02*
X15353894Y-12947876D01*
X15353894Y-12947876D02*
X15363418Y-12985972D01*
X15363418Y-12985972D02*
X15363418Y-13033591D01*
X15363418Y-13033591D02*
X15353894Y-13071686D01*
X15353894Y-13071686D02*
X15344370Y-13090734D01*
X15344370Y-13090734D02*
X15334846Y-13100257D01*
X15334846Y-13100257D02*
X15315799Y-13109781D01*
X15315799Y-13109781D02*
X15296751Y-13109781D01*
X15296751Y-13109781D02*
X15277703Y-13100257D01*
X15277703Y-13100257D02*
X15268180Y-13090734D01*
X15268180Y-13090734D02*
X15258656Y-13071686D01*
X15258656Y-13071686D02*
X15249132Y-13033591D01*
X15249132Y-13033591D02*
X15249132Y-12985972D01*
X15249132Y-12985972D02*
X15258656Y-12947876D01*
X15258656Y-12947876D02*
X15268180Y-12928829D01*
X15268180Y-12928829D02*
X15277703Y-12919305D01*
X15277703Y-12919305D02*
X15296751Y-12909781D01*
X15439608Y-12928829D02*
X15449132Y-12919305D01*
X15449132Y-12919305D02*
X15468180Y-12909781D01*
X15468180Y-12909781D02*
X15515799Y-12909781D01*
X15515799Y-12909781D02*
X15534846Y-12919305D01*
X15534846Y-12919305D02*
X15544370Y-12928829D01*
X15544370Y-12928829D02*
X15553894Y-12947876D01*
X15553894Y-12947876D02*
X15553894Y-12966924D01*
X15553894Y-12966924D02*
X15544370Y-12995495D01*
X15544370Y-12995495D02*
X15430084Y-13109781D01*
X15430084Y-13109781D02*
X15553894Y-13109781D01*
X15620561Y-12909781D02*
X15744370Y-12909781D01*
X15744370Y-12909781D02*
X15677703Y-12985972D01*
X15677703Y-12985972D02*
X15706275Y-12985972D01*
X15706275Y-12985972D02*
X15725323Y-12995495D01*
X15725323Y-12995495D02*
X15734846Y-13005019D01*
X15734846Y-13005019D02*
X15744370Y-13024067D01*
X15744370Y-13024067D02*
X15744370Y-13071686D01*
X15744370Y-13071686D02*
X15734846Y-13090734D01*
X15734846Y-13090734D02*
X15725323Y-13100257D01*
X15725323Y-13100257D02*
X15706275Y-13109781D01*
X15706275Y-13109781D02*
X15649132Y-13109781D01*
X15649132Y-13109781D02*
X15630084Y-13100257D01*
X15630084Y-13100257D02*
X15620561Y-13090734D01*
X15915799Y-12909781D02*
X15877703Y-12909781D01*
X15877703Y-12909781D02*
X15858656Y-12919305D01*
X15858656Y-12919305D02*
X15849132Y-12928829D01*
X15849132Y-12928829D02*
X15830084Y-12957400D01*
X15830084Y-12957400D02*
X15820561Y-12995495D01*
X15820561Y-12995495D02*
X15820561Y-13071686D01*
X15820561Y-13071686D02*
X15830084Y-13090734D01*
X15830084Y-13090734D02*
X15839608Y-13100257D01*
X15839608Y-13100257D02*
X15858656Y-13109781D01*
X15858656Y-13109781D02*
X15896751Y-13109781D01*
X15896751Y-13109781D02*
X15915799Y-13100257D01*
X15915799Y-13100257D02*
X15925323Y-13090734D01*
X15925323Y-13090734D02*
X15934846Y-13071686D01*
X15934846Y-13071686D02*
X15934846Y-13024067D01*
X15934846Y-13024067D02*
X15925323Y-13005019D01*
X15925323Y-13005019D02*
X15915799Y-12995495D01*
X15915799Y-12995495D02*
X15896751Y-12985972D01*
X15896751Y-12985972D02*
X15858656Y-12985972D01*
X15858656Y-12985972D02*
X15839608Y-12995495D01*
X15839608Y-12995495D02*
X15830084Y-13005019D01*
X15830084Y-13005019D02*
X15820561Y-13024067D01*
X16011037Y-12909781D02*
X16011037Y-12947876D01*
X16087227Y-12909781D02*
X16087227Y-12947876D01*
X16382466Y-13185972D02*
X16372942Y-13176448D01*
X16372942Y-13176448D02*
X16353894Y-13147876D01*
X16353894Y-13147876D02*
X16344370Y-13128829D01*
X16344370Y-13128829D02*
X16334846Y-13100257D01*
X16334846Y-13100257D02*
X16325323Y-13052638D01*
X16325323Y-13052638D02*
X16325323Y-13014543D01*
X16325323Y-13014543D02*
X16334846Y-12966924D01*
X16334846Y-12966924D02*
X16344370Y-12938353D01*
X16344370Y-12938353D02*
X16353894Y-12919305D01*
X16353894Y-12919305D02*
X16372942Y-12890734D01*
X16372942Y-12890734D02*
X16382466Y-12881210D01*
X16449132Y-12928829D02*
X16458656Y-12919305D01*
X16458656Y-12919305D02*
X16477704Y-12909781D01*
X16477704Y-12909781D02*
X16525323Y-12909781D01*
X16525323Y-12909781D02*
X16544370Y-12919305D01*
X16544370Y-12919305D02*
X16553894Y-12928829D01*
X16553894Y-12928829D02*
X16563418Y-12947876D01*
X16563418Y-12947876D02*
X16563418Y-12966924D01*
X16563418Y-12966924D02*
X16553894Y-12995495D01*
X16553894Y-12995495D02*
X16439608Y-13109781D01*
X16439608Y-13109781D02*
X16563418Y-13109781D01*
X16801513Y-13109781D02*
X16801513Y-12909781D01*
X16887228Y-13109781D02*
X16887228Y-13005019D01*
X16887228Y-13005019D02*
X16877704Y-12985972D01*
X16877704Y-12985972D02*
X16858656Y-12976448D01*
X16858656Y-12976448D02*
X16830085Y-12976448D01*
X16830085Y-12976448D02*
X16811037Y-12985972D01*
X16811037Y-12985972D02*
X16801513Y-12995495D01*
X17011037Y-13109781D02*
X16991989Y-13100257D01*
X16991989Y-13100257D02*
X16982466Y-13090734D01*
X16982466Y-13090734D02*
X16972942Y-13071686D01*
X16972942Y-13071686D02*
X16972942Y-13014543D01*
X16972942Y-13014543D02*
X16982466Y-12995495D01*
X16982466Y-12995495D02*
X16991989Y-12985972D01*
X16991989Y-12985972D02*
X17011037Y-12976448D01*
X17011037Y-12976448D02*
X17039609Y-12976448D01*
X17039609Y-12976448D02*
X17058656Y-12985972D01*
X17058656Y-12985972D02*
X17068180Y-12995495D01*
X17068180Y-12995495D02*
X17077704Y-13014543D01*
X17077704Y-13014543D02*
X17077704Y-13071686D01*
X17077704Y-13071686D02*
X17068180Y-13090734D01*
X17068180Y-13090734D02*
X17058656Y-13100257D01*
X17058656Y-13100257D02*
X17039609Y-13109781D01*
X17039609Y-13109781D02*
X17011037Y-13109781D01*
X17191989Y-13109781D02*
X17172942Y-13100257D01*
X17172942Y-13100257D02*
X17163418Y-13081210D01*
X17163418Y-13081210D02*
X17163418Y-12909781D01*
X17344370Y-13100257D02*
X17325323Y-13109781D01*
X17325323Y-13109781D02*
X17287228Y-13109781D01*
X17287228Y-13109781D02*
X17268180Y-13100257D01*
X17268180Y-13100257D02*
X17258656Y-13081210D01*
X17258656Y-13081210D02*
X17258656Y-13005019D01*
X17258656Y-13005019D02*
X17268180Y-12985972D01*
X17268180Y-12985972D02*
X17287228Y-12976448D01*
X17287228Y-12976448D02*
X17325323Y-12976448D01*
X17325323Y-12976448D02*
X17344370Y-12985972D01*
X17344370Y-12985972D02*
X17353894Y-13005019D01*
X17353894Y-13005019D02*
X17353894Y-13024067D01*
X17353894Y-13024067D02*
X17258656Y-13043115D01*
X17430085Y-13100257D02*
X17449132Y-13109781D01*
X17449132Y-13109781D02*
X17487228Y-13109781D01*
X17487228Y-13109781D02*
X17506275Y-13100257D01*
X17506275Y-13100257D02*
X17515799Y-13081210D01*
X17515799Y-13081210D02*
X17515799Y-13071686D01*
X17515799Y-13071686D02*
X17506275Y-13052638D01*
X17506275Y-13052638D02*
X17487228Y-13043115D01*
X17487228Y-13043115D02*
X17458656Y-13043115D01*
X17458656Y-13043115D02*
X17439609Y-13033591D01*
X17439609Y-13033591D02*
X17430085Y-13014543D01*
X17430085Y-13014543D02*
X17430085Y-13005019D01*
X17430085Y-13005019D02*
X17439609Y-12985972D01*
X17439609Y-12985972D02*
X17458656Y-12976448D01*
X17458656Y-12976448D02*
X17487228Y-12976448D01*
X17487228Y-12976448D02*
X17506275Y-12985972D01*
X17582466Y-13185972D02*
X17591990Y-13176448D01*
X17591990Y-13176448D02*
X17611037Y-13147876D01*
X17611037Y-13147876D02*
X17620561Y-13128829D01*
X17620561Y-13128829D02*
X17630085Y-13100257D01*
X17630085Y-13100257D02*
X17639609Y-13052638D01*
X17639609Y-13052638D02*
X17639609Y-13014543D01*
X17639609Y-13014543D02*
X17630085Y-12966924D01*
X17630085Y-12966924D02*
X17620561Y-12938353D01*
X17620561Y-12938353D02*
X17611037Y-12919305D01*
X17611037Y-12919305D02*
X17591990Y-12890734D01*
X17591990Y-12890734D02*
X17582466Y-12881210D01*
D10*
X12777403Y-13312297D02*
X12807403Y-13282297D01*
X12777403Y-13252297D01*
X12747403Y-13282297D01*
X12777403Y-13312297D01*
D11*
X13106275Y-13173781D02*
X13125322Y-13173781D01*
X13125322Y-13173781D02*
X13144370Y-13183305D01*
X13144370Y-13183305D02*
X13153894Y-13192829D01*
X13153894Y-13192829D02*
X13163418Y-13211876D01*
X13163418Y-13211876D02*
X13172941Y-13249972D01*
X13172941Y-13249972D02*
X13172941Y-13297591D01*
X13172941Y-13297591D02*
X13163418Y-13335686D01*
X13163418Y-13335686D02*
X13153894Y-13354734D01*
X13153894Y-13354734D02*
X13144370Y-13364257D01*
X13144370Y-13364257D02*
X13125322Y-13373781D01*
X13125322Y-13373781D02*
X13106275Y-13373781D01*
X13106275Y-13373781D02*
X13087227Y-13364257D01*
X13087227Y-13364257D02*
X13077703Y-13354734D01*
X13077703Y-13354734D02*
X13068179Y-13335686D01*
X13068179Y-13335686D02*
X13058656Y-13297591D01*
X13058656Y-13297591D02*
X13058656Y-13249972D01*
X13058656Y-13249972D02*
X13068179Y-13211876D01*
X13068179Y-13211876D02*
X13077703Y-13192829D01*
X13077703Y-13192829D02*
X13087227Y-13183305D01*
X13087227Y-13183305D02*
X13106275Y-13173781D01*
X13258656Y-13354734D02*
X13268179Y-13364257D01*
X13268179Y-13364257D02*
X13258656Y-13373781D01*
X13258656Y-13373781D02*
X13249132Y-13364257D01*
X13249132Y-13364257D02*
X13258656Y-13354734D01*
X13258656Y-13354734D02*
X13258656Y-13373781D01*
X13439608Y-13173781D02*
X13401513Y-13173781D01*
X13401513Y-13173781D02*
X13382465Y-13183305D01*
X13382465Y-13183305D02*
X13372941Y-13192829D01*
X13372941Y-13192829D02*
X13353894Y-13221400D01*
X13353894Y-13221400D02*
X13344370Y-13259495D01*
X13344370Y-13259495D02*
X13344370Y-13335686D01*
X13344370Y-13335686D02*
X13353894Y-13354734D01*
X13353894Y-13354734D02*
X13363418Y-13364257D01*
X13363418Y-13364257D02*
X13382465Y-13373781D01*
X13382465Y-13373781D02*
X13420560Y-13373781D01*
X13420560Y-13373781D02*
X13439608Y-13364257D01*
X13439608Y-13364257D02*
X13449132Y-13354734D01*
X13449132Y-13354734D02*
X13458656Y-13335686D01*
X13458656Y-13335686D02*
X13458656Y-13288067D01*
X13458656Y-13288067D02*
X13449132Y-13269019D01*
X13449132Y-13269019D02*
X13439608Y-13259495D01*
X13439608Y-13259495D02*
X13420560Y-13249972D01*
X13420560Y-13249972D02*
X13382465Y-13249972D01*
X13382465Y-13249972D02*
X13363418Y-13259495D01*
X13363418Y-13259495D02*
X13353894Y-13269019D01*
X13353894Y-13269019D02*
X13344370Y-13288067D01*
X13582465Y-13173781D02*
X13601513Y-13173781D01*
X13601513Y-13173781D02*
X13620560Y-13183305D01*
X13620560Y-13183305D02*
X13630084Y-13192829D01*
X13630084Y-13192829D02*
X13639608Y-13211876D01*
X13639608Y-13211876D02*
X13649132Y-13249972D01*
X13649132Y-13249972D02*
X13649132Y-13297591D01*
X13649132Y-13297591D02*
X13639608Y-13335686D01*
X13639608Y-13335686D02*
X13630084Y-13354734D01*
X13630084Y-13354734D02*
X13620560Y-13364257D01*
X13620560Y-13364257D02*
X13601513Y-13373781D01*
X13601513Y-13373781D02*
X13582465Y-13373781D01*
X13582465Y-13373781D02*
X13563418Y-13364257D01*
X13563418Y-13364257D02*
X13553894Y-13354734D01*
X13553894Y-13354734D02*
X13544370Y-13335686D01*
X13544370Y-13335686D02*
X13534846Y-13297591D01*
X13534846Y-13297591D02*
X13534846Y-13249972D01*
X13534846Y-13249972D02*
X13544370Y-13211876D01*
X13544370Y-13211876D02*
X13553894Y-13192829D01*
X13553894Y-13192829D02*
X13563418Y-13183305D01*
X13563418Y-13183305D02*
X13582465Y-13173781D01*
X13772941Y-13173781D02*
X13791989Y-13173781D01*
X13791989Y-13173781D02*
X13811037Y-13183305D01*
X13811037Y-13183305D02*
X13820560Y-13192829D01*
X13820560Y-13192829D02*
X13830084Y-13211876D01*
X13830084Y-13211876D02*
X13839608Y-13249972D01*
X13839608Y-13249972D02*
X13839608Y-13297591D01*
X13839608Y-13297591D02*
X13830084Y-13335686D01*
X13830084Y-13335686D02*
X13820560Y-13354734D01*
X13820560Y-13354734D02*
X13811037Y-13364257D01*
X13811037Y-13364257D02*
X13791989Y-13373781D01*
X13791989Y-13373781D02*
X13772941Y-13373781D01*
X13772941Y-13373781D02*
X13753894Y-13364257D01*
X13753894Y-13364257D02*
X13744370Y-13354734D01*
X13744370Y-13354734D02*
X13734846Y-13335686D01*
X13734846Y-13335686D02*
X13725322Y-13297591D01*
X13725322Y-13297591D02*
X13725322Y-13249972D01*
X13725322Y-13249972D02*
X13734846Y-13211876D01*
X13734846Y-13211876D02*
X13744370Y-13192829D01*
X13744370Y-13192829D02*
X13753894Y-13183305D01*
X13753894Y-13183305D02*
X13772941Y-13173781D01*
X13925322Y-13373781D02*
X13925322Y-13240448D01*
X13925322Y-13259495D02*
X13934846Y-13249972D01*
X13934846Y-13249972D02*
X13953894Y-13240448D01*
X13953894Y-13240448D02*
X13982465Y-13240448D01*
X13982465Y-13240448D02*
X14001513Y-13249972D01*
X14001513Y-13249972D02*
X14011037Y-13269019D01*
X14011037Y-13269019D02*
X14011037Y-13373781D01*
X14011037Y-13269019D02*
X14020560Y-13249972D01*
X14020560Y-13249972D02*
X14039608Y-13240448D01*
X14039608Y-13240448D02*
X14068179Y-13240448D01*
X14068179Y-13240448D02*
X14087227Y-13249972D01*
X14087227Y-13249972D02*
X14096751Y-13269019D01*
X14096751Y-13269019D02*
X14096751Y-13373781D01*
X14191989Y-13373781D02*
X14191989Y-13240448D01*
X14191989Y-13259495D02*
X14201513Y-13249972D01*
X14201513Y-13249972D02*
X14220560Y-13240448D01*
X14220560Y-13240448D02*
X14249132Y-13240448D01*
X14249132Y-13240448D02*
X14268180Y-13249972D01*
X14268180Y-13249972D02*
X14277703Y-13269019D01*
X14277703Y-13269019D02*
X14277703Y-13373781D01*
X14277703Y-13269019D02*
X14287227Y-13249972D01*
X14287227Y-13249972D02*
X14306275Y-13240448D01*
X14306275Y-13240448D02*
X14334846Y-13240448D01*
X14334846Y-13240448D02*
X14353894Y-13249972D01*
X14353894Y-13249972D02*
X14363418Y-13269019D01*
X14363418Y-13269019D02*
X14363418Y-13373781D01*
X14753894Y-13164257D02*
X14582465Y-13421400D01*
X15011037Y-13173781D02*
X15030084Y-13173781D01*
X15030084Y-13173781D02*
X15049132Y-13183305D01*
X15049132Y-13183305D02*
X15058656Y-13192829D01*
X15058656Y-13192829D02*
X15068180Y-13211876D01*
X15068180Y-13211876D02*
X15077703Y-13249972D01*
X15077703Y-13249972D02*
X15077703Y-13297591D01*
X15077703Y-13297591D02*
X15068180Y-13335686D01*
X15068180Y-13335686D02*
X15058656Y-13354734D01*
X15058656Y-13354734D02*
X15049132Y-13364257D01*
X15049132Y-13364257D02*
X15030084Y-13373781D01*
X15030084Y-13373781D02*
X15011037Y-13373781D01*
X15011037Y-13373781D02*
X14991989Y-13364257D01*
X14991989Y-13364257D02*
X14982465Y-13354734D01*
X14982465Y-13354734D02*
X14972942Y-13335686D01*
X14972942Y-13335686D02*
X14963418Y-13297591D01*
X14963418Y-13297591D02*
X14963418Y-13249972D01*
X14963418Y-13249972D02*
X14972942Y-13211876D01*
X14972942Y-13211876D02*
X14982465Y-13192829D01*
X14982465Y-13192829D02*
X14991989Y-13183305D01*
X14991989Y-13183305D02*
X15011037Y-13173781D01*
X15163418Y-13354734D02*
X15172942Y-13364257D01*
X15172942Y-13364257D02*
X15163418Y-13373781D01*
X15163418Y-13373781D02*
X15153894Y-13364257D01*
X15153894Y-13364257D02*
X15163418Y-13354734D01*
X15163418Y-13354734D02*
X15163418Y-13373781D01*
X15296751Y-13173781D02*
X15315799Y-13173781D01*
X15315799Y-13173781D02*
X15334846Y-13183305D01*
X15334846Y-13183305D02*
X15344370Y-13192829D01*
X15344370Y-13192829D02*
X15353894Y-13211876D01*
X15353894Y-13211876D02*
X15363418Y-13249972D01*
X15363418Y-13249972D02*
X15363418Y-13297591D01*
X15363418Y-13297591D02*
X15353894Y-13335686D01*
X15353894Y-13335686D02*
X15344370Y-13354734D01*
X15344370Y-13354734D02*
X15334846Y-13364257D01*
X15334846Y-13364257D02*
X15315799Y-13373781D01*
X15315799Y-13373781D02*
X15296751Y-13373781D01*
X15296751Y-13373781D02*
X15277703Y-13364257D01*
X15277703Y-13364257D02*
X15268180Y-13354734D01*
X15268180Y-13354734D02*
X15258656Y-13335686D01*
X15258656Y-13335686D02*
X15249132Y-13297591D01*
X15249132Y-13297591D02*
X15249132Y-13249972D01*
X15249132Y-13249972D02*
X15258656Y-13211876D01*
X15258656Y-13211876D02*
X15268180Y-13192829D01*
X15268180Y-13192829D02*
X15277703Y-13183305D01*
X15277703Y-13183305D02*
X15296751Y-13173781D01*
X15439608Y-13192829D02*
X15449132Y-13183305D01*
X15449132Y-13183305D02*
X15468180Y-13173781D01*
X15468180Y-13173781D02*
X15515799Y-13173781D01*
X15515799Y-13173781D02*
X15534846Y-13183305D01*
X15534846Y-13183305D02*
X15544370Y-13192829D01*
X15544370Y-13192829D02*
X15553894Y-13211876D01*
X15553894Y-13211876D02*
X15553894Y-13230924D01*
X15553894Y-13230924D02*
X15544370Y-13259495D01*
X15544370Y-13259495D02*
X15430084Y-13373781D01*
X15430084Y-13373781D02*
X15553894Y-13373781D01*
X15620561Y-13173781D02*
X15744370Y-13173781D01*
X15744370Y-13173781D02*
X15677703Y-13249972D01*
X15677703Y-13249972D02*
X15706275Y-13249972D01*
X15706275Y-13249972D02*
X15725323Y-13259495D01*
X15725323Y-13259495D02*
X15734846Y-13269019D01*
X15734846Y-13269019D02*
X15744370Y-13288067D01*
X15744370Y-13288067D02*
X15744370Y-13335686D01*
X15744370Y-13335686D02*
X15734846Y-13354734D01*
X15734846Y-13354734D02*
X15725323Y-13364257D01*
X15725323Y-13364257D02*
X15706275Y-13373781D01*
X15706275Y-13373781D02*
X15649132Y-13373781D01*
X15649132Y-13373781D02*
X15630084Y-13364257D01*
X15630084Y-13364257D02*
X15620561Y-13354734D01*
X15915799Y-13173781D02*
X15877703Y-13173781D01*
X15877703Y-13173781D02*
X15858656Y-13183305D01*
X15858656Y-13183305D02*
X15849132Y-13192829D01*
X15849132Y-13192829D02*
X15830084Y-13221400D01*
X15830084Y-13221400D02*
X15820561Y-13259495D01*
X15820561Y-13259495D02*
X15820561Y-13335686D01*
X15820561Y-13335686D02*
X15830084Y-13354734D01*
X15830084Y-13354734D02*
X15839608Y-13364257D01*
X15839608Y-13364257D02*
X15858656Y-13373781D01*
X15858656Y-13373781D02*
X15896751Y-13373781D01*
X15896751Y-13373781D02*
X15915799Y-13364257D01*
X15915799Y-13364257D02*
X15925323Y-13354734D01*
X15925323Y-13354734D02*
X15934846Y-13335686D01*
X15934846Y-13335686D02*
X15934846Y-13288067D01*
X15934846Y-13288067D02*
X15925323Y-13269019D01*
X15925323Y-13269019D02*
X15915799Y-13259495D01*
X15915799Y-13259495D02*
X15896751Y-13249972D01*
X15896751Y-13249972D02*
X15858656Y-13249972D01*
X15858656Y-13249972D02*
X15839608Y-13259495D01*
X15839608Y-13259495D02*
X15830084Y-13269019D01*
X15830084Y-13269019D02*
X15820561Y-13288067D01*
X16011037Y-13173781D02*
X16011037Y-13211876D01*
X16087227Y-13173781D02*
X16087227Y-13211876D01*
X16382466Y-13449972D02*
X16372942Y-13440448D01*
X16372942Y-13440448D02*
X16353894Y-13411876D01*
X16353894Y-13411876D02*
X16344370Y-13392829D01*
X16344370Y-13392829D02*
X16334846Y-13364257D01*
X16334846Y-13364257D02*
X16325323Y-13316638D01*
X16325323Y-13316638D02*
X16325323Y-13278543D01*
X16325323Y-13278543D02*
X16334846Y-13230924D01*
X16334846Y-13230924D02*
X16344370Y-13202353D01*
X16344370Y-13202353D02*
X16353894Y-13183305D01*
X16353894Y-13183305D02*
X16372942Y-13154734D01*
X16372942Y-13154734D02*
X16382466Y-13145210D01*
X16496751Y-13173781D02*
X16515799Y-13173781D01*
X16515799Y-13173781D02*
X16534846Y-13183305D01*
X16534846Y-13183305D02*
X16544370Y-13192829D01*
X16544370Y-13192829D02*
X16553894Y-13211876D01*
X16553894Y-13211876D02*
X16563418Y-13249972D01*
X16563418Y-13249972D02*
X16563418Y-13297591D01*
X16563418Y-13297591D02*
X16553894Y-13335686D01*
X16553894Y-13335686D02*
X16544370Y-13354734D01*
X16544370Y-13354734D02*
X16534846Y-13364257D01*
X16534846Y-13364257D02*
X16515799Y-13373781D01*
X16515799Y-13373781D02*
X16496751Y-13373781D01*
X16496751Y-13373781D02*
X16477704Y-13364257D01*
X16477704Y-13364257D02*
X16468180Y-13354734D01*
X16468180Y-13354734D02*
X16458656Y-13335686D01*
X16458656Y-13335686D02*
X16449132Y-13297591D01*
X16449132Y-13297591D02*
X16449132Y-13249972D01*
X16449132Y-13249972D02*
X16458656Y-13211876D01*
X16458656Y-13211876D02*
X16468180Y-13192829D01*
X16468180Y-13192829D02*
X16477704Y-13183305D01*
X16477704Y-13183305D02*
X16496751Y-13173781D01*
X16801513Y-13373781D02*
X16801513Y-13173781D01*
X16887228Y-13373781D02*
X16887228Y-13269019D01*
X16887228Y-13269019D02*
X16877704Y-13249972D01*
X16877704Y-13249972D02*
X16858656Y-13240448D01*
X16858656Y-13240448D02*
X16830085Y-13240448D01*
X16830085Y-13240448D02*
X16811037Y-13249972D01*
X16811037Y-13249972D02*
X16801513Y-13259495D01*
X17011037Y-13373781D02*
X16991989Y-13364257D01*
X16991989Y-13364257D02*
X16982466Y-13354734D01*
X16982466Y-13354734D02*
X16972942Y-13335686D01*
X16972942Y-13335686D02*
X16972942Y-13278543D01*
X16972942Y-13278543D02*
X16982466Y-13259495D01*
X16982466Y-13259495D02*
X16991989Y-13249972D01*
X16991989Y-13249972D02*
X17011037Y-13240448D01*
X17011037Y-13240448D02*
X17039609Y-13240448D01*
X17039609Y-13240448D02*
X17058656Y-13249972D01*
X17058656Y-13249972D02*
X17068180Y-13259495D01*
X17068180Y-13259495D02*
X17077704Y-13278543D01*
X17077704Y-13278543D02*
X17077704Y-13335686D01*
X17077704Y-13335686D02*
X17068180Y-13354734D01*
X17068180Y-13354734D02*
X17058656Y-13364257D01*
X17058656Y-13364257D02*
X17039609Y-13373781D01*
X17039609Y-13373781D02*
X17011037Y-13373781D01*
X17191989Y-13373781D02*
X17172942Y-13364257D01*
X17172942Y-13364257D02*
X17163418Y-13345210D01*
X17163418Y-13345210D02*
X17163418Y-13173781D01*
X17344370Y-13364257D02*
X17325323Y-13373781D01*
X17325323Y-13373781D02*
X17287228Y-13373781D01*
X17287228Y-13373781D02*
X17268180Y-13364257D01*
X17268180Y-13364257D02*
X17258656Y-13345210D01*
X17258656Y-13345210D02*
X17258656Y-13269019D01*
X17258656Y-13269019D02*
X17268180Y-13249972D01*
X17268180Y-13249972D02*
X17287228Y-13240448D01*
X17287228Y-13240448D02*
X17325323Y-13240448D01*
X17325323Y-13240448D02*
X17344370Y-13249972D01*
X17344370Y-13249972D02*
X17353894Y-13269019D01*
X17353894Y-13269019D02*
X17353894Y-13288067D01*
X17353894Y-13288067D02*
X17258656Y-13307115D01*
X17430085Y-13364257D02*
X17449132Y-13373781D01*
X17449132Y-13373781D02*
X17487228Y-13373781D01*
X17487228Y-13373781D02*
X17506275Y-13364257D01*
X17506275Y-13364257D02*
X17515799Y-13345210D01*
X17515799Y-13345210D02*
X17515799Y-13335686D01*
X17515799Y-13335686D02*
X17506275Y-13316638D01*
X17506275Y-13316638D02*
X17487228Y-13307115D01*
X17487228Y-13307115D02*
X17458656Y-13307115D01*
X17458656Y-13307115D02*
X17439609Y-13297591D01*
X17439609Y-13297591D02*
X17430085Y-13278543D01*
X17430085Y-13278543D02*
X17430085Y-13269019D01*
X17430085Y-13269019D02*
X17439609Y-13249972D01*
X17439609Y-13249972D02*
X17458656Y-13240448D01*
X17458656Y-13240448D02*
X17487228Y-13240448D01*
X17487228Y-13240448D02*
X17506275Y-13249972D01*
X17753894Y-13297591D02*
X17906275Y-13297591D01*
X17830085Y-13373781D02*
X17830085Y-13221400D01*
X18239609Y-13240448D02*
X18239609Y-13373781D01*
X18191990Y-13164257D02*
X18144371Y-13307115D01*
X18144371Y-13307115D02*
X18268180Y-13307115D01*
X18487228Y-13364257D02*
X18506275Y-13373781D01*
X18506275Y-13373781D02*
X18544371Y-13373781D01*
X18544371Y-13373781D02*
X18563418Y-13364257D01*
X18563418Y-13364257D02*
X18572942Y-13345210D01*
X18572942Y-13345210D02*
X18572942Y-13335686D01*
X18572942Y-13335686D02*
X18563418Y-13316638D01*
X18563418Y-13316638D02*
X18544371Y-13307115D01*
X18544371Y-13307115D02*
X18515799Y-13307115D01*
X18515799Y-13307115D02*
X18496752Y-13297591D01*
X18496752Y-13297591D02*
X18487228Y-13278543D01*
X18487228Y-13278543D02*
X18487228Y-13269019D01*
X18487228Y-13269019D02*
X18496752Y-13249972D01*
X18496752Y-13249972D02*
X18515799Y-13240448D01*
X18515799Y-13240448D02*
X18544371Y-13240448D01*
X18544371Y-13240448D02*
X18563418Y-13249972D01*
X18687228Y-13373781D02*
X18668180Y-13364257D01*
X18668180Y-13364257D02*
X18658656Y-13345210D01*
X18658656Y-13345210D02*
X18658656Y-13173781D01*
X18791990Y-13373781D02*
X18772942Y-13364257D01*
X18772942Y-13364257D02*
X18763418Y-13354734D01*
X18763418Y-13354734D02*
X18753894Y-13335686D01*
X18753894Y-13335686D02*
X18753894Y-13278543D01*
X18753894Y-13278543D02*
X18763418Y-13259495D01*
X18763418Y-13259495D02*
X18772942Y-13249972D01*
X18772942Y-13249972D02*
X18791990Y-13240448D01*
X18791990Y-13240448D02*
X18820561Y-13240448D01*
X18820561Y-13240448D02*
X18839609Y-13249972D01*
X18839609Y-13249972D02*
X18849133Y-13259495D01*
X18849133Y-13259495D02*
X18858656Y-13278543D01*
X18858656Y-13278543D02*
X18858656Y-13335686D01*
X18858656Y-13335686D02*
X18849133Y-13354734D01*
X18849133Y-13354734D02*
X18839609Y-13364257D01*
X18839609Y-13364257D02*
X18820561Y-13373781D01*
X18820561Y-13373781D02*
X18791990Y-13373781D01*
X18915799Y-13240448D02*
X18991990Y-13240448D01*
X18944371Y-13173781D02*
X18944371Y-13345210D01*
X18944371Y-13345210D02*
X18953894Y-13364257D01*
X18953894Y-13364257D02*
X18972942Y-13373781D01*
X18972942Y-13373781D02*
X18991990Y-13373781D01*
X19049133Y-13364257D02*
X19068180Y-13373781D01*
X19068180Y-13373781D02*
X19106275Y-13373781D01*
X19106275Y-13373781D02*
X19125323Y-13364257D01*
X19125323Y-13364257D02*
X19134847Y-13345210D01*
X19134847Y-13345210D02*
X19134847Y-13335686D01*
X19134847Y-13335686D02*
X19125323Y-13316638D01*
X19125323Y-13316638D02*
X19106275Y-13307115D01*
X19106275Y-13307115D02*
X19077704Y-13307115D01*
X19077704Y-13307115D02*
X19058656Y-13297591D01*
X19058656Y-13297591D02*
X19049133Y-13278543D01*
X19049133Y-13278543D02*
X19049133Y-13269019D01*
X19049133Y-13269019D02*
X19058656Y-13249972D01*
X19058656Y-13249972D02*
X19077704Y-13240448D01*
X19077704Y-13240448D02*
X19106275Y-13240448D01*
X19106275Y-13240448D02*
X19125323Y-13249972D01*
X19201514Y-13449972D02*
X19211037Y-13440448D01*
X19211037Y-13440448D02*
X19230085Y-13411876D01*
X19230085Y-13411876D02*
X19239609Y-13392829D01*
X19239609Y-13392829D02*
X19249133Y-13364257D01*
X19249133Y-13364257D02*
X19258656Y-13316638D01*
X19258656Y-13316638D02*
X19258656Y-13278543D01*
X19258656Y-13278543D02*
X19249133Y-13230924D01*
X19249133Y-13230924D02*
X19239609Y-13202353D01*
X19239609Y-13202353D02*
X19230085Y-13183305D01*
X19230085Y-13183305D02*
X19211037Y-13154734D01*
X19211037Y-13154734D02*
X19201514Y-13145210D01*
D10*
X12717403Y-13501297D02*
X12807403Y-13591297D01*
X12807403Y-13501297D02*
X12717403Y-13591297D01*
X12807403Y-13546297D02*
G75*
G02*
X12717403Y-13546297I-45000J0D01*
G01*
X12717403Y-13546297D02*
G75*
G02*
X12807403Y-13546297I45000J0D01*
G01*
D11*
X13106275Y-13437781D02*
X13125322Y-13437781D01*
X13125322Y-13437781D02*
X13144370Y-13447305D01*
X13144370Y-13447305D02*
X13153894Y-13456829D01*
X13153894Y-13456829D02*
X13163418Y-13475876D01*
X13163418Y-13475876D02*
X13172941Y-13513972D01*
X13172941Y-13513972D02*
X13172941Y-13561591D01*
X13172941Y-13561591D02*
X13163418Y-13599686D01*
X13163418Y-13599686D02*
X13153894Y-13618734D01*
X13153894Y-13618734D02*
X13144370Y-13628257D01*
X13144370Y-13628257D02*
X13125322Y-13637781D01*
X13125322Y-13637781D02*
X13106275Y-13637781D01*
X13106275Y-13637781D02*
X13087227Y-13628257D01*
X13087227Y-13628257D02*
X13077703Y-13618734D01*
X13077703Y-13618734D02*
X13068179Y-13599686D01*
X13068179Y-13599686D02*
X13058656Y-13561591D01*
X13058656Y-13561591D02*
X13058656Y-13513972D01*
X13058656Y-13513972D02*
X13068179Y-13475876D01*
X13068179Y-13475876D02*
X13077703Y-13456829D01*
X13077703Y-13456829D02*
X13087227Y-13447305D01*
X13087227Y-13447305D02*
X13106275Y-13437781D01*
X13258656Y-13618734D02*
X13268179Y-13628257D01*
X13268179Y-13628257D02*
X13258656Y-13637781D01*
X13258656Y-13637781D02*
X13249132Y-13628257D01*
X13249132Y-13628257D02*
X13258656Y-13618734D01*
X13258656Y-13618734D02*
X13258656Y-13637781D01*
X13363418Y-13637781D02*
X13401513Y-13637781D01*
X13401513Y-13637781D02*
X13420560Y-13628257D01*
X13420560Y-13628257D02*
X13430084Y-13618734D01*
X13430084Y-13618734D02*
X13449132Y-13590162D01*
X13449132Y-13590162D02*
X13458656Y-13552067D01*
X13458656Y-13552067D02*
X13458656Y-13475876D01*
X13458656Y-13475876D02*
X13449132Y-13456829D01*
X13449132Y-13456829D02*
X13439608Y-13447305D01*
X13439608Y-13447305D02*
X13420560Y-13437781D01*
X13420560Y-13437781D02*
X13382465Y-13437781D01*
X13382465Y-13437781D02*
X13363418Y-13447305D01*
X13363418Y-13447305D02*
X13353894Y-13456829D01*
X13353894Y-13456829D02*
X13344370Y-13475876D01*
X13344370Y-13475876D02*
X13344370Y-13523495D01*
X13344370Y-13523495D02*
X13353894Y-13542543D01*
X13353894Y-13542543D02*
X13363418Y-13552067D01*
X13363418Y-13552067D02*
X13382465Y-13561591D01*
X13382465Y-13561591D02*
X13420560Y-13561591D01*
X13420560Y-13561591D02*
X13439608Y-13552067D01*
X13439608Y-13552067D02*
X13449132Y-13542543D01*
X13449132Y-13542543D02*
X13458656Y-13523495D01*
X13582465Y-13437781D02*
X13601513Y-13437781D01*
X13601513Y-13437781D02*
X13620560Y-13447305D01*
X13620560Y-13447305D02*
X13630084Y-13456829D01*
X13630084Y-13456829D02*
X13639608Y-13475876D01*
X13639608Y-13475876D02*
X13649132Y-13513972D01*
X13649132Y-13513972D02*
X13649132Y-13561591D01*
X13649132Y-13561591D02*
X13639608Y-13599686D01*
X13639608Y-13599686D02*
X13630084Y-13618734D01*
X13630084Y-13618734D02*
X13620560Y-13628257D01*
X13620560Y-13628257D02*
X13601513Y-13637781D01*
X13601513Y-13637781D02*
X13582465Y-13637781D01*
X13582465Y-13637781D02*
X13563418Y-13628257D01*
X13563418Y-13628257D02*
X13553894Y-13618734D01*
X13553894Y-13618734D02*
X13544370Y-13599686D01*
X13544370Y-13599686D02*
X13534846Y-13561591D01*
X13534846Y-13561591D02*
X13534846Y-13513972D01*
X13534846Y-13513972D02*
X13544370Y-13475876D01*
X13544370Y-13475876D02*
X13553894Y-13456829D01*
X13553894Y-13456829D02*
X13563418Y-13447305D01*
X13563418Y-13447305D02*
X13582465Y-13437781D01*
X13772941Y-13437781D02*
X13791989Y-13437781D01*
X13791989Y-13437781D02*
X13811037Y-13447305D01*
X13811037Y-13447305D02*
X13820560Y-13456829D01*
X13820560Y-13456829D02*
X13830084Y-13475876D01*
X13830084Y-13475876D02*
X13839608Y-13513972D01*
X13839608Y-13513972D02*
X13839608Y-13561591D01*
X13839608Y-13561591D02*
X13830084Y-13599686D01*
X13830084Y-13599686D02*
X13820560Y-13618734D01*
X13820560Y-13618734D02*
X13811037Y-13628257D01*
X13811037Y-13628257D02*
X13791989Y-13637781D01*
X13791989Y-13637781D02*
X13772941Y-13637781D01*
X13772941Y-13637781D02*
X13753894Y-13628257D01*
X13753894Y-13628257D02*
X13744370Y-13618734D01*
X13744370Y-13618734D02*
X13734846Y-13599686D01*
X13734846Y-13599686D02*
X13725322Y-13561591D01*
X13725322Y-13561591D02*
X13725322Y-13513972D01*
X13725322Y-13513972D02*
X13734846Y-13475876D01*
X13734846Y-13475876D02*
X13744370Y-13456829D01*
X13744370Y-13456829D02*
X13753894Y-13447305D01*
X13753894Y-13447305D02*
X13772941Y-13437781D01*
X13925322Y-13637781D02*
X13925322Y-13504448D01*
X13925322Y-13523495D02*
X13934846Y-13513972D01*
X13934846Y-13513972D02*
X13953894Y-13504448D01*
X13953894Y-13504448D02*
X13982465Y-13504448D01*
X13982465Y-13504448D02*
X14001513Y-13513972D01*
X14001513Y-13513972D02*
X14011037Y-13533019D01*
X14011037Y-13533019D02*
X14011037Y-13637781D01*
X14011037Y-13533019D02*
X14020560Y-13513972D01*
X14020560Y-13513972D02*
X14039608Y-13504448D01*
X14039608Y-13504448D02*
X14068179Y-13504448D01*
X14068179Y-13504448D02*
X14087227Y-13513972D01*
X14087227Y-13513972D02*
X14096751Y-13533019D01*
X14096751Y-13533019D02*
X14096751Y-13637781D01*
X14191989Y-13637781D02*
X14191989Y-13504448D01*
X14191989Y-13523495D02*
X14201513Y-13513972D01*
X14201513Y-13513972D02*
X14220560Y-13504448D01*
X14220560Y-13504448D02*
X14249132Y-13504448D01*
X14249132Y-13504448D02*
X14268180Y-13513972D01*
X14268180Y-13513972D02*
X14277703Y-13533019D01*
X14277703Y-13533019D02*
X14277703Y-13637781D01*
X14277703Y-13533019D02*
X14287227Y-13513972D01*
X14287227Y-13513972D02*
X14306275Y-13504448D01*
X14306275Y-13504448D02*
X14334846Y-13504448D01*
X14334846Y-13504448D02*
X14353894Y-13513972D01*
X14353894Y-13513972D02*
X14363418Y-13533019D01*
X14363418Y-13533019D02*
X14363418Y-13637781D01*
X14753894Y-13428257D02*
X14582465Y-13685400D01*
X15011037Y-13437781D02*
X15030084Y-13437781D01*
X15030084Y-13437781D02*
X15049132Y-13447305D01*
X15049132Y-13447305D02*
X15058656Y-13456829D01*
X15058656Y-13456829D02*
X15068180Y-13475876D01*
X15068180Y-13475876D02*
X15077703Y-13513972D01*
X15077703Y-13513972D02*
X15077703Y-13561591D01*
X15077703Y-13561591D02*
X15068180Y-13599686D01*
X15068180Y-13599686D02*
X15058656Y-13618734D01*
X15058656Y-13618734D02*
X15049132Y-13628257D01*
X15049132Y-13628257D02*
X15030084Y-13637781D01*
X15030084Y-13637781D02*
X15011037Y-13637781D01*
X15011037Y-13637781D02*
X14991989Y-13628257D01*
X14991989Y-13628257D02*
X14982465Y-13618734D01*
X14982465Y-13618734D02*
X14972942Y-13599686D01*
X14972942Y-13599686D02*
X14963418Y-13561591D01*
X14963418Y-13561591D02*
X14963418Y-13513972D01*
X14963418Y-13513972D02*
X14972942Y-13475876D01*
X14972942Y-13475876D02*
X14982465Y-13456829D01*
X14982465Y-13456829D02*
X14991989Y-13447305D01*
X14991989Y-13447305D02*
X15011037Y-13437781D01*
X15163418Y-13618734D02*
X15172942Y-13628257D01*
X15172942Y-13628257D02*
X15163418Y-13637781D01*
X15163418Y-13637781D02*
X15153894Y-13628257D01*
X15153894Y-13628257D02*
X15163418Y-13618734D01*
X15163418Y-13618734D02*
X15163418Y-13637781D01*
X15296751Y-13437781D02*
X15315799Y-13437781D01*
X15315799Y-13437781D02*
X15334846Y-13447305D01*
X15334846Y-13447305D02*
X15344370Y-13456829D01*
X15344370Y-13456829D02*
X15353894Y-13475876D01*
X15353894Y-13475876D02*
X15363418Y-13513972D01*
X15363418Y-13513972D02*
X15363418Y-13561591D01*
X15363418Y-13561591D02*
X15353894Y-13599686D01*
X15353894Y-13599686D02*
X15344370Y-13618734D01*
X15344370Y-13618734D02*
X15334846Y-13628257D01*
X15334846Y-13628257D02*
X15315799Y-13637781D01*
X15315799Y-13637781D02*
X15296751Y-13637781D01*
X15296751Y-13637781D02*
X15277703Y-13628257D01*
X15277703Y-13628257D02*
X15268180Y-13618734D01*
X15268180Y-13618734D02*
X15258656Y-13599686D01*
X15258656Y-13599686D02*
X15249132Y-13561591D01*
X15249132Y-13561591D02*
X15249132Y-13513972D01*
X15249132Y-13513972D02*
X15258656Y-13475876D01*
X15258656Y-13475876D02*
X15268180Y-13456829D01*
X15268180Y-13456829D02*
X15277703Y-13447305D01*
X15277703Y-13447305D02*
X15296751Y-13437781D01*
X15430084Y-13437781D02*
X15553894Y-13437781D01*
X15553894Y-13437781D02*
X15487227Y-13513972D01*
X15487227Y-13513972D02*
X15515799Y-13513972D01*
X15515799Y-13513972D02*
X15534846Y-13523495D01*
X15534846Y-13523495D02*
X15544370Y-13533019D01*
X15544370Y-13533019D02*
X15553894Y-13552067D01*
X15553894Y-13552067D02*
X15553894Y-13599686D01*
X15553894Y-13599686D02*
X15544370Y-13618734D01*
X15544370Y-13618734D02*
X15534846Y-13628257D01*
X15534846Y-13628257D02*
X15515799Y-13637781D01*
X15515799Y-13637781D02*
X15458656Y-13637781D01*
X15458656Y-13637781D02*
X15439608Y-13628257D01*
X15439608Y-13628257D02*
X15430084Y-13618734D01*
X15734846Y-13437781D02*
X15639608Y-13437781D01*
X15639608Y-13437781D02*
X15630084Y-13533019D01*
X15630084Y-13533019D02*
X15639608Y-13523495D01*
X15639608Y-13523495D02*
X15658656Y-13513972D01*
X15658656Y-13513972D02*
X15706275Y-13513972D01*
X15706275Y-13513972D02*
X15725323Y-13523495D01*
X15725323Y-13523495D02*
X15734846Y-13533019D01*
X15734846Y-13533019D02*
X15744370Y-13552067D01*
X15744370Y-13552067D02*
X15744370Y-13599686D01*
X15744370Y-13599686D02*
X15734846Y-13618734D01*
X15734846Y-13618734D02*
X15725323Y-13628257D01*
X15725323Y-13628257D02*
X15706275Y-13637781D01*
X15706275Y-13637781D02*
X15658656Y-13637781D01*
X15658656Y-13637781D02*
X15639608Y-13628257D01*
X15639608Y-13628257D02*
X15630084Y-13618734D01*
X15915799Y-13504448D02*
X15915799Y-13637781D01*
X15868180Y-13428257D02*
X15820561Y-13571115D01*
X15820561Y-13571115D02*
X15944370Y-13571115D01*
X16011037Y-13437781D02*
X16011037Y-13475876D01*
X16087227Y-13437781D02*
X16087227Y-13475876D01*
X16382466Y-13713972D02*
X16372942Y-13704448D01*
X16372942Y-13704448D02*
X16353894Y-13675876D01*
X16353894Y-13675876D02*
X16344370Y-13656829D01*
X16344370Y-13656829D02*
X16334846Y-13628257D01*
X16334846Y-13628257D02*
X16325323Y-13580638D01*
X16325323Y-13580638D02*
X16325323Y-13542543D01*
X16325323Y-13542543D02*
X16334846Y-13494924D01*
X16334846Y-13494924D02*
X16344370Y-13466353D01*
X16344370Y-13466353D02*
X16353894Y-13447305D01*
X16353894Y-13447305D02*
X16372942Y-13418734D01*
X16372942Y-13418734D02*
X16382466Y-13409210D01*
X16439608Y-13437781D02*
X16563418Y-13437781D01*
X16563418Y-13437781D02*
X16496751Y-13513972D01*
X16496751Y-13513972D02*
X16525323Y-13513972D01*
X16525323Y-13513972D02*
X16544370Y-13523495D01*
X16544370Y-13523495D02*
X16553894Y-13533019D01*
X16553894Y-13533019D02*
X16563418Y-13552067D01*
X16563418Y-13552067D02*
X16563418Y-13599686D01*
X16563418Y-13599686D02*
X16553894Y-13618734D01*
X16553894Y-13618734D02*
X16544370Y-13628257D01*
X16544370Y-13628257D02*
X16525323Y-13637781D01*
X16525323Y-13637781D02*
X16468180Y-13637781D01*
X16468180Y-13637781D02*
X16449132Y-13628257D01*
X16449132Y-13628257D02*
X16439608Y-13618734D01*
X16801513Y-13637781D02*
X16801513Y-13437781D01*
X16887228Y-13637781D02*
X16887228Y-13533019D01*
X16887228Y-13533019D02*
X16877704Y-13513972D01*
X16877704Y-13513972D02*
X16858656Y-13504448D01*
X16858656Y-13504448D02*
X16830085Y-13504448D01*
X16830085Y-13504448D02*
X16811037Y-13513972D01*
X16811037Y-13513972D02*
X16801513Y-13523495D01*
X17011037Y-13637781D02*
X16991989Y-13628257D01*
X16991989Y-13628257D02*
X16982466Y-13618734D01*
X16982466Y-13618734D02*
X16972942Y-13599686D01*
X16972942Y-13599686D02*
X16972942Y-13542543D01*
X16972942Y-13542543D02*
X16982466Y-13523495D01*
X16982466Y-13523495D02*
X16991989Y-13513972D01*
X16991989Y-13513972D02*
X17011037Y-13504448D01*
X17011037Y-13504448D02*
X17039609Y-13504448D01*
X17039609Y-13504448D02*
X17058656Y-13513972D01*
X17058656Y-13513972D02*
X17068180Y-13523495D01*
X17068180Y-13523495D02*
X17077704Y-13542543D01*
X17077704Y-13542543D02*
X17077704Y-13599686D01*
X17077704Y-13599686D02*
X17068180Y-13618734D01*
X17068180Y-13618734D02*
X17058656Y-13628257D01*
X17058656Y-13628257D02*
X17039609Y-13637781D01*
X17039609Y-13637781D02*
X17011037Y-13637781D01*
X17191989Y-13637781D02*
X17172942Y-13628257D01*
X17172942Y-13628257D02*
X17163418Y-13609210D01*
X17163418Y-13609210D02*
X17163418Y-13437781D01*
X17344370Y-13628257D02*
X17325323Y-13637781D01*
X17325323Y-13637781D02*
X17287228Y-13637781D01*
X17287228Y-13637781D02*
X17268180Y-13628257D01*
X17268180Y-13628257D02*
X17258656Y-13609210D01*
X17258656Y-13609210D02*
X17258656Y-13533019D01*
X17258656Y-13533019D02*
X17268180Y-13513972D01*
X17268180Y-13513972D02*
X17287228Y-13504448D01*
X17287228Y-13504448D02*
X17325323Y-13504448D01*
X17325323Y-13504448D02*
X17344370Y-13513972D01*
X17344370Y-13513972D02*
X17353894Y-13533019D01*
X17353894Y-13533019D02*
X17353894Y-13552067D01*
X17353894Y-13552067D02*
X17258656Y-13571115D01*
X17430085Y-13628257D02*
X17449132Y-13637781D01*
X17449132Y-13637781D02*
X17487228Y-13637781D01*
X17487228Y-13637781D02*
X17506275Y-13628257D01*
X17506275Y-13628257D02*
X17515799Y-13609210D01*
X17515799Y-13609210D02*
X17515799Y-13599686D01*
X17515799Y-13599686D02*
X17506275Y-13580638D01*
X17506275Y-13580638D02*
X17487228Y-13571115D01*
X17487228Y-13571115D02*
X17458656Y-13571115D01*
X17458656Y-13571115D02*
X17439609Y-13561591D01*
X17439609Y-13561591D02*
X17430085Y-13542543D01*
X17430085Y-13542543D02*
X17430085Y-13533019D01*
X17430085Y-13533019D02*
X17439609Y-13513972D01*
X17439609Y-13513972D02*
X17458656Y-13504448D01*
X17458656Y-13504448D02*
X17487228Y-13504448D01*
X17487228Y-13504448D02*
X17506275Y-13513972D01*
X17582466Y-13713972D02*
X17591990Y-13704448D01*
X17591990Y-13704448D02*
X17611037Y-13675876D01*
X17611037Y-13675876D02*
X17620561Y-13656829D01*
X17620561Y-13656829D02*
X17630085Y-13628257D01*
X17630085Y-13628257D02*
X17639609Y-13580638D01*
X17639609Y-13580638D02*
X17639609Y-13542543D01*
X17639609Y-13542543D02*
X17630085Y-13494924D01*
X17630085Y-13494924D02*
X17620561Y-13466353D01*
X17620561Y-13466353D02*
X17611037Y-13447305D01*
X17611037Y-13447305D02*
X17591990Y-13418734D01*
X17591990Y-13418734D02*
X17582466Y-13409210D01*
M02*
