G04 #@! TF.GenerationSoftware,KiCad,Pcbnew,8.0.1*
G04 #@! TF.CreationDate,2024-04-19T23:10:03+02:00*
G04 #@! TF.ProjectId,esp-ir-receiver,6573702d-6972-42d7-9265-636569766572,1.0.0*
G04 #@! TF.SameCoordinates,Original*
G04 #@! TF.FileFunction,Legend,Top*
G04 #@! TF.FilePolarity,Positive*
%FSLAX46Y46*%
G04 Gerber Fmt 4.6, Leading zero omitted, Abs format (unit mm)*
G04 Created by KiCad (PCBNEW 8.0.1) date 2024-04-19 23:10:03*
%MOMM*%
%LPD*%
G01*
G04 APERTURE LIST*
G04 Aperture macros list*
%AMRoundRect*
0 Rectangle with rounded corners*
0 $1 Rounding radius*
0 $2 $3 $4 $5 $6 $7 $8 $9 X,Y pos of 4 corners*
0 Add a 4 corners polygon primitive as box body*
4,1,4,$2,$3,$4,$5,$6,$7,$8,$9,$2,$3,0*
0 Add four circle primitives for the rounded corners*
1,1,$1+$1,$2,$3*
1,1,$1+$1,$4,$5*
1,1,$1+$1,$6,$7*
1,1,$1+$1,$8,$9*
0 Add four rect primitives between the rounded corners*
20,1,$1+$1,$2,$3,$4,$5,0*
20,1,$1+$1,$4,$5,$6,$7,0*
20,1,$1+$1,$6,$7,$8,$9,0*
20,1,$1+$1,$8,$9,$2,$3,0*%
%AMFreePoly0*
4,1,19,0.500000,-0.750000,0.000000,-0.750000,0.000000,-0.744911,-0.071157,-0.744911,-0.207708,-0.704816,-0.327430,-0.627875,-0.420627,-0.520320,-0.479746,-0.390866,-0.500000,-0.250000,-0.500000,0.250000,-0.479746,0.390866,-0.420627,0.520320,-0.327430,0.627875,-0.207708,0.704816,-0.071157,0.744911,0.000000,0.744911,0.000000,0.750000,0.500000,0.750000,0.500000,-0.750000,0.500000,-0.750000,
$1*%
%AMFreePoly1*
4,1,19,0.000000,0.744911,0.071157,0.744911,0.207708,0.704816,0.327430,0.627875,0.420627,0.520320,0.479746,0.390866,0.500000,0.250000,0.500000,-0.250000,0.479746,-0.390866,0.420627,-0.520320,0.327430,-0.627875,0.207708,-0.704816,0.071157,-0.744911,0.000000,-0.744911,0.000000,-0.750000,-0.500000,-0.750000,-0.500000,0.750000,0.000000,0.750000,0.000000,0.744911,0.000000,0.744911,
$1*%
G04 Aperture macros list end*
%ADD10C,0.200000*%
%ADD11C,0.120000*%
%ADD12C,0.100000*%
%ADD13RoundRect,0.218750X-0.256250X0.218750X-0.256250X-0.218750X0.256250X-0.218750X0.256250X0.218750X0*%
%ADD14R,2.000000X1.500000*%
%ADD15R,2.000000X3.800000*%
%ADD16FreePoly0,180.000000*%
%ADD17FreePoly1,180.000000*%
%ADD18RoundRect,0.140000X0.170000X-0.140000X0.170000X0.140000X-0.170000X0.140000X-0.170000X-0.140000X0*%
%ADD19RoundRect,0.140000X-0.170000X0.140000X-0.170000X-0.140000X0.170000X-0.140000X0.170000X0.140000X0*%
%ADD20RoundRect,0.140000X0.140000X0.170000X-0.140000X0.170000X-0.140000X-0.170000X0.140000X-0.170000X0*%
%ADD21RoundRect,0.135000X-0.185000X0.135000X-0.185000X-0.135000X0.185000X-0.135000X0.185000X0.135000X0*%
%ADD22RoundRect,0.248400X0.651600X-0.651600X0.651600X0.651600X-0.651600X0.651600X-0.651600X-0.651600X0*%
%ADD23C,1.800000*%
%ADD24R,1.400000X1.200000*%
%ADD25RoundRect,0.140000X-0.140000X-0.170000X0.140000X-0.170000X0.140000X0.170000X-0.140000X0.170000X0*%
%ADD26R,0.500000X0.300000*%
%ADD27R,1.000000X0.750000*%
%ADD28RoundRect,0.147500X-0.147500X-0.172500X0.147500X-0.172500X0.147500X0.172500X-0.147500X0.172500X0*%
%ADD29RoundRect,0.135000X0.185000X-0.135000X0.185000X0.135000X-0.185000X0.135000X-0.185000X-0.135000X0*%
%ADD30R,0.500000X0.375000*%
%ADD31R,0.650000X0.300000*%
%ADD32RoundRect,0.135000X-0.135000X-0.185000X0.135000X-0.185000X0.135000X0.185000X-0.135000X0.185000X0*%
%ADD33C,0.650000*%
%ADD34R,1.240000X0.600000*%
%ADD35R,1.240000X0.300000*%
%ADD36O,2.100000X1.000000*%
%ADD37O,1.800000X1.000000*%
%ADD38RoundRect,0.147500X0.172500X-0.147500X0.172500X0.147500X-0.172500X0.147500X-0.172500X-0.147500X0*%
%ADD39RoundRect,0.050000X0.387500X0.050000X-0.387500X0.050000X-0.387500X-0.050000X0.387500X-0.050000X0*%
%ADD40RoundRect,0.050000X0.050000X0.387500X-0.050000X0.387500X-0.050000X-0.387500X0.050000X-0.387500X0*%
%ADD41R,2.600000X2.600000*%
G04 APERTURE END LIST*
D10*
X138060858Y-114226408D02*
X138203715Y-114274027D01*
X138203715Y-114274027D02*
X138251334Y-114321646D01*
X138251334Y-114321646D02*
X138298953Y-114416884D01*
X138298953Y-114416884D02*
X138298953Y-114559741D01*
X138298953Y-114559741D02*
X138251334Y-114654979D01*
X138251334Y-114654979D02*
X138203715Y-114702599D01*
X138203715Y-114702599D02*
X138108477Y-114750218D01*
X138108477Y-114750218D02*
X137727525Y-114750218D01*
X137727525Y-114750218D02*
X137727525Y-113750218D01*
X137727525Y-113750218D02*
X138060858Y-113750218D01*
X138060858Y-113750218D02*
X138156096Y-113797837D01*
X138156096Y-113797837D02*
X138203715Y-113845456D01*
X138203715Y-113845456D02*
X138251334Y-113940694D01*
X138251334Y-113940694D02*
X138251334Y-114035932D01*
X138251334Y-114035932D02*
X138203715Y-114131170D01*
X138203715Y-114131170D02*
X138156096Y-114178789D01*
X138156096Y-114178789D02*
X138060858Y-114226408D01*
X138060858Y-114226408D02*
X137727525Y-114226408D01*
X138918001Y-113750218D02*
X139108477Y-113750218D01*
X139108477Y-113750218D02*
X139203715Y-113797837D01*
X139203715Y-113797837D02*
X139298953Y-113893075D01*
X139298953Y-113893075D02*
X139346572Y-114083551D01*
X139346572Y-114083551D02*
X139346572Y-114416884D01*
X139346572Y-114416884D02*
X139298953Y-114607360D01*
X139298953Y-114607360D02*
X139203715Y-114702599D01*
X139203715Y-114702599D02*
X139108477Y-114750218D01*
X139108477Y-114750218D02*
X138918001Y-114750218D01*
X138918001Y-114750218D02*
X138822763Y-114702599D01*
X138822763Y-114702599D02*
X138727525Y-114607360D01*
X138727525Y-114607360D02*
X138679906Y-114416884D01*
X138679906Y-114416884D02*
X138679906Y-114083551D01*
X138679906Y-114083551D02*
X138727525Y-113893075D01*
X138727525Y-113893075D02*
X138822763Y-113797837D01*
X138822763Y-113797837D02*
X138918001Y-113750218D01*
X139965620Y-113750218D02*
X140156096Y-113750218D01*
X140156096Y-113750218D02*
X140251334Y-113797837D01*
X140251334Y-113797837D02*
X140346572Y-113893075D01*
X140346572Y-113893075D02*
X140394191Y-114083551D01*
X140394191Y-114083551D02*
X140394191Y-114416884D01*
X140394191Y-114416884D02*
X140346572Y-114607360D01*
X140346572Y-114607360D02*
X140251334Y-114702599D01*
X140251334Y-114702599D02*
X140156096Y-114750218D01*
X140156096Y-114750218D02*
X139965620Y-114750218D01*
X139965620Y-114750218D02*
X139870382Y-114702599D01*
X139870382Y-114702599D02*
X139775144Y-114607360D01*
X139775144Y-114607360D02*
X139727525Y-114416884D01*
X139727525Y-114416884D02*
X139727525Y-114083551D01*
X139727525Y-114083551D02*
X139775144Y-113893075D01*
X139775144Y-113893075D02*
X139870382Y-113797837D01*
X139870382Y-113797837D02*
X139965620Y-113750218D01*
X140679906Y-113750218D02*
X141251334Y-113750218D01*
X140965620Y-114750218D02*
X140965620Y-113750218D01*
X129583591Y-111400904D02*
X129583591Y-111734237D01*
X129059781Y-111877094D02*
X129059781Y-111400904D01*
X129059781Y-111400904D02*
X130059781Y-111400904D01*
X130059781Y-111400904D02*
X130059781Y-111877094D01*
X129059781Y-112305666D02*
X130059781Y-112305666D01*
X130059781Y-112305666D02*
X129059781Y-112877094D01*
X129059781Y-112877094D02*
X130059781Y-112877094D01*
D11*
X132324357Y-95540999D02*
X132324357Y-97825999D01*
X133794357Y-95540999D02*
X132324357Y-95540999D01*
X133794357Y-97825999D02*
X133794357Y-95540999D01*
X140881001Y-95534999D02*
X146891001Y-95534999D01*
X143131001Y-102354999D02*
X146891001Y-102354999D01*
X146891001Y-95534999D02*
X146891001Y-96794999D01*
X146891001Y-102354999D02*
X146891001Y-101094999D01*
X135381001Y-95540999D02*
X135381001Y-97825999D01*
X136851001Y-95540999D02*
X135381001Y-95540999D01*
X136851001Y-97825999D02*
X136851001Y-95540999D01*
X137891001Y-112692999D02*
X137891001Y-112092999D01*
X138591001Y-111392999D02*
X139991001Y-111392999D01*
X139991001Y-113392999D02*
X138591001Y-113392999D01*
X140691001Y-112092999D02*
X140691001Y-112692999D01*
X137891001Y-112092999D02*
G75*
G02*
X138591001Y-111392999I700000J0D01*
G01*
X138591001Y-113392999D02*
G75*
G02*
X137891001Y-112692999I0J700000D01*
G01*
X139991001Y-111392999D02*
G75*
G02*
X140691001Y-112092999I1J-699999D01*
G01*
X140691001Y-112692999D02*
G75*
G02*
X139991001Y-113392999I-699999J-1D01*
G01*
X149599001Y-111329835D02*
X149599001Y-111114163D01*
X150319001Y-111329835D02*
X150319001Y-111114163D01*
X150343003Y-107584163D02*
X150343003Y-107799835D01*
X151063003Y-107584163D02*
X151063003Y-107799835D01*
X142980505Y-113505835D02*
X142980505Y-113290163D01*
X143700505Y-113505835D02*
X143700505Y-113290163D01*
X142446837Y-105301999D02*
X142231165Y-105301999D01*
X142446837Y-106021999D02*
X142231165Y-106021999D01*
X144156001Y-103349358D02*
X144156001Y-103656640D01*
X144916001Y-103349358D02*
X144916001Y-103656640D01*
X133857001Y-95540999D02*
X133857001Y-97825999D01*
X135327001Y-95540999D02*
X133857001Y-95540999D01*
X135327001Y-97825999D02*
X135327001Y-95540999D01*
X149824001Y-95874024D02*
X149824001Y-98954024D01*
X153484001Y-95794024D02*
X152284001Y-95794024D01*
X153484001Y-95794024D02*
X153484001Y-96254024D01*
X153484001Y-101454024D02*
X153484001Y-101674024D01*
X153484001Y-96254025D02*
G75*
G02*
X153484001Y-101454023I-1100000J-2599999D01*
G01*
X147964505Y-111377999D02*
X143964505Y-111377999D01*
X147964505Y-114677999D02*
X147964505Y-111377999D01*
X148187505Y-112763163D02*
X148187505Y-112978835D01*
X148907505Y-112763163D02*
X148907505Y-112978835D01*
X150115166Y-104919000D02*
X150330838Y-104919000D01*
X150115166Y-105639000D02*
X150330838Y-105639000D01*
X138322165Y-108335999D02*
X138537837Y-108335999D01*
X138322165Y-109055999D02*
X138537837Y-109055999D01*
X148454165Y-110381999D02*
X148669837Y-110381999D01*
X148454165Y-111101999D02*
X148669837Y-111101999D01*
X150115166Y-102887000D02*
X150330838Y-102887000D01*
X150115166Y-103607000D02*
X150330838Y-103607000D01*
X130809001Y-95540999D02*
X130809001Y-97825999D01*
X132279001Y-95540999D02*
X130809001Y-95540999D01*
X132279001Y-97825999D02*
X132279001Y-95540999D01*
D12*
X137944001Y-106715999D02*
G75*
G02*
X137844001Y-106715999I-50000J0D01*
G01*
X137844001Y-106715999D02*
G75*
G02*
X137944001Y-106715999I50000J0D01*
G01*
D11*
X140255165Y-105301999D02*
X140470837Y-105301999D01*
X140255165Y-106021999D02*
X140470837Y-106021999D01*
X151123001Y-110096163D02*
X151123001Y-110311835D01*
X151843001Y-110096163D02*
X151843001Y-110311835D01*
X138530001Y-101825358D02*
X138530001Y-102132640D01*
X139290001Y-101825358D02*
X139290001Y-102132640D01*
X150330839Y-105934999D02*
X150115167Y-105934999D01*
X150330839Y-106654999D02*
X150115167Y-106654999D01*
X145192001Y-103395163D02*
X145192001Y-103610835D01*
X145912001Y-103395163D02*
X145912001Y-103610835D01*
X130366001Y-111138999D02*
X130366001Y-113138999D01*
X131366002Y-109838999D02*
X131816001Y-109388999D01*
X131366002Y-114438999D02*
X131816001Y-114888999D01*
X131816001Y-109388999D02*
X134416001Y-109388999D01*
X131816001Y-114888999D02*
X134416001Y-114888999D01*
X134866000Y-109838999D02*
X134416001Y-109388999D01*
X134866000Y-114438999D02*
X134416001Y-114888999D01*
X135866001Y-111138999D02*
X135866001Y-113138999D01*
X139566001Y-98650860D02*
X139566001Y-98435188D01*
X140286001Y-98650860D02*
X140286001Y-98435188D01*
X146208001Y-103395163D02*
X146208001Y-103610835D01*
X146928001Y-103395163D02*
X146928001Y-103610835D01*
X150330839Y-103902999D02*
X150115167Y-103902999D01*
X150330839Y-104622999D02*
X150115167Y-104622999D01*
X138530001Y-106309640D02*
X138530001Y-106002358D01*
X139290001Y-106309640D02*
X139290001Y-106002358D01*
X138061974Y-104940499D02*
X139661974Y-104940499D01*
X139661974Y-103140499D02*
X137761974Y-103140499D01*
X141479001Y-107032359D02*
X141479001Y-107339641D01*
X142239001Y-107032359D02*
X142239001Y-107339641D01*
X137514001Y-96796641D02*
X137514001Y-96489359D01*
X138274001Y-96796641D02*
X138274001Y-96489359D01*
X137514001Y-98396358D02*
X137514001Y-98703640D01*
X138274001Y-98396358D02*
X138274001Y-98703640D01*
X138530001Y-98396358D02*
X138530001Y-98703640D01*
X139290001Y-98396358D02*
X139290001Y-98703640D01*
D12*
X137936974Y-101432999D02*
G75*
G02*
X137836974Y-101432999I-50000J0D01*
G01*
X137836974Y-101432999D02*
G75*
G02*
X137936974Y-101432999I50000J0D01*
G01*
D11*
X138530001Y-96798640D02*
X138530001Y-96491358D01*
X139290001Y-96798640D02*
X139290001Y-96491358D01*
X148220001Y-103349358D02*
X148220001Y-103656640D01*
X148980001Y-103349358D02*
X148980001Y-103656640D01*
X152002360Y-102866999D02*
X152309642Y-102866999D01*
X152002360Y-103626999D02*
X152309642Y-103626999D01*
X128199001Y-99399999D02*
X129904001Y-99399999D01*
X128199001Y-108559999D02*
X128199001Y-99399999D01*
X129904001Y-108559999D02*
X128199001Y-108559999D01*
X131914001Y-108559999D02*
X133834001Y-108559999D01*
X133834001Y-99399999D02*
X131914001Y-99399999D01*
X144006501Y-105399999D02*
X144006501Y-105949999D01*
X144006501Y-109619999D02*
X144006501Y-109069999D01*
X144556501Y-105399999D02*
X144006501Y-105399999D01*
X144556501Y-109619999D02*
X144006501Y-109619999D01*
X147676501Y-105399999D02*
X148226501Y-105399999D01*
X147676501Y-109619999D02*
X147926501Y-109619999D01*
X148226501Y-105399999D02*
X148226501Y-105949999D01*
X148226501Y-109069999D02*
X148226501Y-109379999D01*
X148466500Y-109949999D02*
X147986501Y-109949999D01*
X148226501Y-109619999D01*
X148466500Y-109949999D01*
G36*
X148466500Y-109949999D02*
G01*
X147986501Y-109949999D01*
X148226501Y-109619999D01*
X148466500Y-109949999D01*
G37*
X139566001Y-100562835D02*
X139566001Y-100347163D01*
X140286001Y-100562835D02*
X140286001Y-100347163D01*
X142515000Y-107078164D02*
X142515000Y-107293836D01*
X143235000Y-107078164D02*
X143235000Y-107293836D01*
X147204001Y-103656640D02*
X147204001Y-103349358D01*
X147964001Y-103656640D02*
X147964001Y-103349358D01*
X140463000Y-107032359D02*
X140463000Y-107339641D01*
X141223000Y-107032359D02*
X141223000Y-107339641D01*
X153996683Y-110096163D02*
X153996683Y-110311835D01*
X154716683Y-110096163D02*
X154716683Y-110311835D01*
X138322165Y-107319999D02*
X138537837Y-107319999D01*
X138322165Y-108039999D02*
X138537837Y-108039999D01*
X152048165Y-103902999D02*
X152263837Y-103902999D01*
X152048165Y-104622999D02*
X152263837Y-104622999D01*
%LPC*%
D13*
X133059357Y-96238498D03*
X133059357Y-97813500D03*
D14*
X141831001Y-96644999D03*
X141831001Y-98944999D03*
X141831001Y-101244999D03*
D15*
X148131001Y-98944999D03*
D13*
X136116001Y-96238498D03*
X136116001Y-97813500D03*
D16*
X139941001Y-112392999D03*
D17*
X138641001Y-112392999D03*
D18*
X149959001Y-111701999D03*
X149959001Y-110741999D03*
D19*
X150703003Y-107211999D03*
X150703003Y-108171999D03*
D18*
X143340505Y-113877999D03*
X143340505Y-112917999D03*
D20*
X142819001Y-105661999D03*
X141859001Y-105661999D03*
D21*
X144536001Y-102992999D03*
X144536001Y-104012999D03*
D13*
X134592001Y-96238498D03*
X134592001Y-97813500D03*
D22*
X151184001Y-101494024D03*
D23*
X151184001Y-98954024D03*
X151184001Y-96414024D03*
D24*
X147064505Y-112177999D03*
X144864505Y-112177999D03*
X144864505Y-113877999D03*
X147064505Y-113877999D03*
D19*
X148547505Y-112390999D03*
X148547505Y-113350999D03*
D25*
X149743002Y-105279000D03*
X150703002Y-105279000D03*
X137950001Y-108695999D03*
X138910001Y-108695999D03*
X148082001Y-110741999D03*
X149042001Y-110741999D03*
X149743002Y-103247000D03*
X150703002Y-103247000D03*
D13*
X131544001Y-96238498D03*
X131544001Y-97813500D03*
D26*
X137894001Y-106265999D03*
X137894001Y-105565999D03*
D25*
X139883001Y-105661999D03*
X140843001Y-105661999D03*
D19*
X151483001Y-109723999D03*
X151483001Y-110683999D03*
D21*
X138910001Y-101469000D03*
X138910001Y-102488998D03*
D20*
X150703003Y-106294999D03*
X149743003Y-106294999D03*
D19*
X145552001Y-103022999D03*
X145552001Y-103982999D03*
D27*
X130116001Y-110263999D03*
X136116001Y-110263999D03*
X130116001Y-114013999D03*
X136116001Y-114013999D03*
D18*
X139926001Y-99023024D03*
X139926001Y-98063024D03*
D19*
X146568001Y-103022999D03*
X146568001Y-103982999D03*
D20*
X150703003Y-104262999D03*
X149743003Y-104262999D03*
D28*
X152434842Y-109723999D03*
X153404842Y-109723999D03*
D29*
X138910001Y-106665999D03*
X138910001Y-105645999D03*
D30*
X138011974Y-103502999D03*
D31*
X137936974Y-104040499D03*
D30*
X138011974Y-104577999D03*
X139711974Y-104577999D03*
D31*
X139786974Y-104040499D03*
D30*
X139711974Y-103502999D03*
D21*
X141859001Y-106676000D03*
X141859001Y-107696000D03*
D29*
X137894001Y-97152999D03*
X137894001Y-96133001D03*
D21*
X137894001Y-98040000D03*
X137894001Y-99059998D03*
X138910001Y-98040000D03*
X138910001Y-99059998D03*
D26*
X137886974Y-101882999D03*
X137886974Y-102582999D03*
D29*
X138910001Y-97154998D03*
X138910001Y-96135000D03*
D21*
X148600001Y-102992999D03*
X148600001Y-104012999D03*
D32*
X151646001Y-103246999D03*
X152666001Y-103246999D03*
D33*
X134589001Y-101089999D03*
X134589001Y-106869999D03*
D34*
X135709001Y-100779999D03*
X135709001Y-101579999D03*
D35*
X135709001Y-102729999D03*
X135709001Y-103729999D03*
X135709001Y-104229999D03*
X135709001Y-105229999D03*
D34*
X135709001Y-106379999D03*
X135709001Y-107179999D03*
X135709001Y-107179999D03*
X135709001Y-106379999D03*
D35*
X135709001Y-105729999D03*
X135709001Y-104729999D03*
X135709001Y-103229999D03*
X135709001Y-102229999D03*
D34*
X135709001Y-101579999D03*
X135709001Y-100779999D03*
D36*
X135109001Y-99659999D03*
D37*
X130909001Y-99659999D03*
D36*
X135109001Y-108299999D03*
D37*
X130909001Y-108299999D03*
D38*
X149743001Y-108176998D03*
X149743001Y-107206998D03*
D39*
X148054001Y-108710000D03*
X148054001Y-108309999D03*
X148054001Y-107909999D03*
X148054000Y-107509999D03*
X148054001Y-107109999D03*
X148054001Y-106709999D03*
X148054001Y-106309998D03*
D40*
X147316502Y-105572499D03*
X146916501Y-105572499D03*
X146516501Y-105572499D03*
X146116501Y-105572500D03*
X145716501Y-105572499D03*
X145316501Y-105572499D03*
X144916500Y-105572499D03*
D39*
X144179001Y-106309998D03*
X144179001Y-106709999D03*
X144179001Y-107109999D03*
X144179002Y-107509999D03*
X144179001Y-107909999D03*
X144179001Y-108309999D03*
X144179001Y-108710000D03*
D40*
X144916500Y-109447499D03*
X145316501Y-109447499D03*
X145716501Y-109447499D03*
X146116501Y-109447498D03*
X146516501Y-109447499D03*
X146916501Y-109447499D03*
X147316502Y-109447499D03*
D41*
X146116501Y-107509999D03*
D18*
X139926001Y-100934999D03*
X139926001Y-99974999D03*
D19*
X142875000Y-106706000D03*
X142875000Y-107666000D03*
D29*
X147584001Y-104012999D03*
X147584001Y-102992999D03*
D21*
X140843000Y-106676000D03*
X140843000Y-107696000D03*
D19*
X154356683Y-109723999D03*
X154356683Y-110683999D03*
D25*
X137950001Y-107679999D03*
X138910001Y-107679999D03*
X151676001Y-104262999D03*
X152636001Y-104262999D03*
%LPD*%
M02*
